<?xml version="1.0" encoding="UTF-8"?>
<!DOCTYPE svg PUBLIC "-//W3C//DTD SVG 1.1//EN" "http://www.w3.org/Graphics/SVG/1.1/DTD/svg11.dtd">
<!-- Creator: CorelDRAW -->
<svg xmlns="http://www.w3.org/2000/svg" xml:space="preserve" width="30px" height="30px" version="1.1" style="shape-rendering:geometricPrecision; text-rendering:geometricPrecision; image-rendering:optimizeQuality; fill-rule:evenodd; clip-rule:evenodd"
viewBox="0 0 30 30"
 xmlns:xlink="http://www.w3.org/1999/xlink"
 xmlns:xodm="http://www.corel.com/coreldraw/odm/2003">
 <defs>
  <style type="text/css">
   <![CDATA[
    .fil0 {fill:none}
    .fil1 {fill:#F97150}
   ]]>
  </style>
 </defs>
 <g id="Layer_x0020_1">
  <metadata id="CorelCorpID_0Corel-Layer"/>
  <rect class="fil0" width="30" height="30"/>
  <g id="_2388646569616">
   <path class="fil1" d="M5.34 14.58c0.15,0.22 1.99,1.54 2.29,1.7 0.14,-0.25 0.26,-0.38 0.44,-0.62l1.35 -1.86c0.75,-1.01 0.84,-1.4 1.72,-2.02 0.19,-0.13 0.16,-0.17 0.37,-0.22l-0.57 3.11c-0.15,0.94 -0.34,1.77 0.15,2.69 0.22,0.41 0.97,1.09 1.36,1.39 0.3,0.23 0.5,0.43 0.79,0.66l3.04 2.53c0.29,0.26 0.36,0.47 0.5,0.88 0.58,1.67 1.31,3.49 1.86,5.1l0.74 2.08c0.32,-0.03 1.02,-0.32 1.33,-0.44l1.36 -0.48 -1.68 -4.62c-0.21,-0.55 -0.38,-1.03 -0.57,-1.59 -0.18,-0.53 -0.38,-1.04 -0.56,-1.54 -0.3,-0.84 -0.19,-0.78 -0.82,-1.28l-1.72 -1.43c-0.23,-0.18 -0.39,-0.34 -0.62,-0.5 0,-0.48 0.13,-0.92 0.21,-1.37 0.07,-0.45 0.17,-0.96 0.24,-1.39 0.08,-0.49 0.15,-0.85 0.23,-1.35 0.08,-0.43 0.23,-1 0.24,-1.4 0.26,0.17 0.34,0.39 0.67,0.71 1.23,1.2 2.85,2.07 4.56,2.53 1.06,0.28 1.34,0.17 1.91,0.26 0.68,0.1 0.47,0.09 0.47,-2.65 0,-0.32 -0.49,-0.17 -0.83,-0.21 -0.24,-0.03 -0.67,-0.11 -0.89,-0.17 -0.56,-0.14 -1.05,-0.31 -1.52,-0.57 -0.48,-0.27 -0.89,-0.48 -1.27,-0.84 -0.86,-0.8 -1.26,-1.13 -1.71,-2.48 -0.21,-0.62 -0.32,-0.96 -0.68,-1.43 -1.05,-1.42 -3.14,-2 -4.7,-0.85 -0.43,0.31 -0.85,0.6 -1.26,0.91l-2.85 2.07c-0.1,0.07 -0.24,0.15 -0.31,0.21 -0.12,0.11 -0.35,0.47 -0.48,0.64l-2.32 3.19c-0.16,0.24 -0.33,0.43 -0.47,0.65z"/>
   <path class="fil1" d="M6.06 27.64c0.51,0.34 1.84,1.66 2.23,1.77l4.49 -5.43 1.02 -2.32c-0.55,-0.36 -2.16,-1.92 -2.56,-2.03 -0.09,0.4 -0.27,0.84 -0.4,1.24l-0.63 1.79c-0.11,0.21 -0.24,0.29 -0.38,0.48 -0.25,0.32 -0.51,0.58 -0.75,0.89 -0.13,0.16 -0.21,0.25 -0.36,0.43 -0.56,0.71 -2.36,2.73 -2.66,3.18z"/>
   <path class="fil1" d="M14.07 2.83c0,0.47 0.12,0.81 0.25,1.13 0.27,0.65 0.77,1.11 1.41,1.41 0.75,0.35 1.52,0.36 2.27,0.02 0.32,-0.14 0.64,-0.33 0.88,-0.57 1.09,-1.09 1.09,-2.86 0.04,-3.95l-0.31 -0.29c-0.75,-0.64 -2.09,-0.76 -2.97,-0.31 -0.07,0.04 -0.32,0.19 -0.4,0.25 -0.08,0.06 -0.11,0.09 -0.18,0.16l-0.13 0.12c-0.01,0.01 -0.03,0.02 -0.04,0.03 -0.01,0.01 -0.02,0.03 -0.03,0.04 -0.43,0.44 -0.79,1.1 -0.79,1.96z"/>
  </g>
 </g>
</svg>
