<?xml version="1.0" encoding="UTF-8"?>
<!DOCTYPE svg PUBLIC "-//W3C//DTD SVG 1.1//EN" "http://www.w3.org/Graphics/SVG/1.1/DTD/svg11.dtd">
<!-- Creator: CorelDRAW -->
<svg xmlns="http://www.w3.org/2000/svg" xml:space="preserve" width="30px" height="30px" version="1.1" style="shape-rendering:geometricPrecision; text-rendering:geometricPrecision; image-rendering:optimizeQuality; fill-rule:evenodd; clip-rule:evenodd"
viewBox="0 0 30 30"
 xmlns:xlink="http://www.w3.org/1999/xlink"
 xmlns:xodm="http://www.corel.com/coreldraw/odm/2003">
 <defs>
  <style type="text/css">
   <![CDATA[
    .fil0 {fill:none}
    .fil1 {fill:#F97150}
   ]]>
  </style>
 </defs>
 <g id="Layer_x0020_1">
  <metadata id="CorelCorpID_0Corel-Layer"/>
  <rect class="fil0" width="30" height="30"/>
  <g id="_2388646603600">
   <path class="fil1" d="M0 19.89l0 2.29 6.27 0 0 -1.29 -4.98 0c0,-2.28 0.12,-3.58 0.95,-5.67 0.34,-0.84 0.69,-1.48 1.13,-2.21l0.57 -0.84c0.11,-0.14 0.23,-0.25 0.28,-0.42 0.27,0.07 2.47,2.36 2.58,2.52 0.19,-0.13 0.82,-0.74 0.88,-0.94l-2.54 -2.57c0.17,-0.24 1.01,-0.96 1.3,-1.19 0.16,-0.13 0.32,-0.25 0.5,-0.38 0.68,-0.49 1.31,-0.88 2.08,-1.25 0.19,-0.09 0.37,-0.16 0.57,-0.26 0.19,-0.09 0.37,-0.16 0.58,-0.23 1.28,-0.45 2.74,-0.86 4.19,-0.86l0 3.11 1.28 0 0 -3.11c1,0 2.07,0.24 2.9,0.44 2.45,0.62 4.05,1.74 5.88,3.27 0.16,0.14 0.31,0.28 0.42,0.45l-2.53 2.56c0.1,0.34 0.64,0.66 0.83,0.96 0.45,-0.3 2.29,-2.43 2.64,-2.52 0.04,0.16 0.15,0.25 0.25,0.39l0.82 1.23c1.01,1.81 1.86,4.07 1.86,6.35l0 1.17 -4.98 0 0 1.29 6.27 0 0 -0.73c0,-3.24 -0.06,-4.28 -1.37,-7.45 -0.18,-0.43 -0.41,-0.82 -0.62,-1.2 -0.21,-0.35 -0.47,-0.77 -0.71,-1.1 -0.64,-0.86 -1.33,-1.75 -2.15,-2.43 -1.1,-0.93 -1.19,-1.11 -2.62,-1.95 -2.54,-1.49 -4.93,-2.02 -7.94,-2.02 -1.57,0 -3.19,0.36 -4.61,0.84 -0.82,0.28 -1.74,0.73 -2.48,1.16 -1.17,0.67 -1.68,1.11 -2.62,1.94 -0.57,0.5 -0.84,0.77 -1.36,1.4l-0.79 1.02c-0.98,1.35 -1.95,3.37 -2.3,4.97 -0.22,1.04 -0.43,2.03 -0.43,3.26z"/>
   <path class="fil1" d="M15.23 23.41c-1.04,0 -1.89,-0.72 -2.04,-1.65 -0.18,-1.13 0.34,-1.84 1.26,-2.3l5 -2.38c-0.09,0.4 -2.35,5.05 -2.54,5.37 -0.29,0.48 -0.93,0.96 -1.68,0.96zm-0.05 1.29c1.1,0 2.24,-0.63 2.81,-1.53 0.24,-0.39 0.81,-1.69 1.05,-2.17l1.06 -2.22c0.1,-0.23 0.24,-0.48 0.35,-0.7 0.55,-1.09 1.2,-2.63 1.76,-3.7 -0.28,0.03 -0.76,0.33 -1.02,0.45 -2.22,1.12 -4.91,2.28 -7.15,3.4 -1.46,0.73 -2.4,1.88 -2.13,3.7 0.22,1.46 1.56,2.77 3.27,2.77z"/>
  </g>
 </g>
</svg>
