<?xml version="1.0" encoding="UTF-8"?>
<!DOCTYPE svg PUBLIC "-//W3C//DTD SVG 1.1//EN" "http://www.w3.org/Graphics/SVG/1.1/DTD/svg11.dtd">
<!-- Creator: CorelDRAW -->
<svg xmlns="http://www.w3.org/2000/svg" xml:space="preserve" width="30px" height="30px" version="1.1" style="shape-rendering:geometricPrecision; text-rendering:geometricPrecision; image-rendering:optimizeQuality; fill-rule:evenodd; clip-rule:evenodd"
viewBox="0 0 30 30"
 xmlns:xlink="http://www.w3.org/1999/xlink"
 xmlns:xodm="http://www.corel.com/coreldraw/odm/2003">
 <defs>
  <style type="text/css">
   <![CDATA[
    .fil0 {fill:none}
    .fil1 {fill:#F97150}
   ]]>
  </style>
 </defs>
 <g id="Layer_x0020_1">
  <metadata id="CorelCorpID_0Corel-Layer"/>
  <rect class="fil0" width="30" height="30"/>
  <g id="_2388814284464">
   <path class="fil1" d="M4.02 5.23c0,1.46 1.29,1.82 2.07,1.31 0.21,-0.14 0.31,-0.27 0.52,-0.44 0.21,-0.16 0.29,-0.29 0.5,-0.46 1.14,-0.88 1.6,-1.23 3,-1.85 4.17,-1.86 9.08,-1.12 12.63,1.74 1.63,1.31 2.95,3.1 3.68,5.07 0.46,1.25 0.54,1.76 0.74,3.09 0.04,0.32 0.01,0.6 0.04,0.92 0.06,0.48 0.01,0.44 -0.01,0.9 -0.28,5.24 -3.38,9.42 -8.37,11.1 -3,1.01 -6.5,0.7 -9.31,-0.7 -0.3,-0.15 -1.18,-0.61 -1.34,-0.83 0.75,-0.17 1.78,-0.48 2.01,-1.25 0.23,-0.82 -0.24,-1.81 -1.37,-1.81 -0.22,0 -3.86,1.19 -4.14,1.35 -1.01,0.6 -0.68,1.62 -0.46,2.74 0.11,0.54 0.2,1.05 0.3,1.62 0.08,0.46 0.17,1.25 0.35,1.56 0.52,0.87 1.71,1 2.36,0.07 0.38,-0.54 0.18,-0.82 0.12,-1.47 1.36,0.72 1.9,0.99 3.39,1.46 2.51,0.8 4.99,0.79 7.59,0.26 1.22,-0.25 2.99,-0.94 4.05,-1.56 1.11,-0.66 2.33,-1.52 3.24,-2.44 1.2,-1.2 2.36,-2.88 3.05,-4.42 4.49,-10.08 -2.88,-21.19 -13.66,-21.19 -2.88,0 -5.18,0.79 -7.21,1.85l-1.56 1c-0.75,0.54 -0.96,0.8 -1.4,1.14 -0.35,0.27 -0.81,0.68 -0.81,1.24z"/>
   <path class="fil1" d="M12.96 7.4l0 8.36c0,0.67 0.61,1.28 1.27,1.28l6.32 0c1.7,0 1.71,-2.74 -0.06,-2.74l-4.79 0 0 -6.83c0,-1.71 -2.74,-1.78 -2.74,-0.07z"/>
   <path class="fil1" d="M0 14.68c0,0.68 0.59,1.34 1.28,1.34 1.43,0 1.53,-1.09 1.53,-2.3 0,-1.3 -1.9,-1.79 -2.58,-0.6 -0.19,0.35 -0.23,1.03 -0.23,1.56z"/>
   <path class="fil1" d="M0.58 18.83c0,0.8 0.48,2.1 1.59,2.1 0.78,0 1.34,-0.59 1.34,-1.53 0,-0.31 -0.3,-1.07 -0.43,-1.29 -0.68,-1.11 -2.5,-0.62 -2.5,0.72z"/>
   <path class="fil1" d="M1.09 9.64c0,1.6 2.36,2.25 3,-0.26 0.37,-1.49 -1.69,-2.38 -2.49,-1.08 -0.15,0.24 -0.51,0.97 -0.51,1.34z"/>
  </g>
 </g>
</svg>
