<?xml version="1.0" encoding="utf-8"?>
<!-- Generator: Adobe Illustrator 16.0.0, SVG Export Plug-In . SVG Version: 6.00 Build 0)  -->
<!DOCTYPE svg PUBLIC "-//W3C//DTD SVG 1.1//EN" "http://www.w3.org/Graphics/SVG/1.1/DTD/svg11.dtd">
<svg version="1.1" id="Layer_1" xmlns="http://www.w3.org/2000/svg" xmlns:xlink="http://www.w3.org/1999/xlink" x="0px" y="0px"
	 width="64px" height="64px" viewBox="274 364 64 64" enable-background="new 274 364 64 64" xml:space="preserve">
<g>
	<g>
		<path fill="#F97150" d="M338,395.999c0-1.521-0.807-2.908-2.161-3.712l-3.564-2.096c1.373-0.815,2.597-1.542,3.567-2.12
			c1.352-0.807,2.158-2.193,2.158-3.709c0-1.516-0.807-2.902-2.158-3.71c-4.455-2.649-19.561-11.626-27.006-15.895
			c-1.725-0.99-3.821-1.03-5.685,0.009c0,0-20.25,11.894-26.989,15.884c-1.355,0.804-2.162,2.19-2.162,3.712
			c0,1.516,0.807,2.902,2.159,3.71c0.97,0.577,2.193,1.304,3.566,2.119l-3.563,2.096c-1.355,0.804-2.162,2.19-2.162,3.712
			c0,1.516,0.807,2.902,2.159,3.71c0.97,0.577,2.193,1.304,3.566,2.119l-3.563,2.096c-1.355,0.804-2.162,2.19-2.162,3.712
			c0,1.516,0.807,2.902,2.159,3.71c5.764,3.428,19.932,11.839,27.005,15.895c0.867,0.497,1.85,0.76,2.835,0.76
			s1.969-0.263,2.838-0.761c7.071-4.055,21.238-12.466,27.003-15.895c1.353-0.807,2.159-2.193,2.159-3.709
			c0-1.521-0.808-2.908-2.162-3.712l-3.563-2.097c1.372-0.815,2.596-1.542,3.566-2.119C337.193,398.9,338,397.515,338,395.999z
			 M277.648,385.576c-0.221-0.133-0.738-0.517-0.738-1.211c0-0.698,0.514-1.078,0.736-1.209c6.73-3.986,26.952-15.862,26.949-15.861
			c0.926-0.521,1.937-0.501,2.795-0.01c7.426,4.257,22.517,13.223,26.963,15.868c0.222,0.134,0.739,0.517,0.739,1.211
			c0,0.695-0.518,1.078-0.739,1.21c-5.756,3.423-19.906,11.825-26.96,15.868c-0.875,0.5-1.912,0.498-2.781,0.001
			C297.554,397.399,283.404,388.998,277.648,385.576z M334.355,406.428c0.222,0.131,0.736,0.512,0.736,1.209
			c0,0.694-0.518,1.078-0.739,1.21c-5.756,3.424-19.906,11.825-26.96,15.868c-0.875,0.5-1.912,0.499-2.781,0.002
			c-7.057-4.045-21.208-12.446-26.963-15.868c-0.221-0.134-0.738-0.518-0.738-1.212c0-0.697,0.514-1.078,0.736-1.209l4.936-2.904
			c6.672,3.954,15.473,9.15,20.583,12.08c0.867,0.498,1.85,0.761,2.835,0.761s1.969-0.263,2.838-0.762
			c5.108-2.929,13.908-8.124,20.58-12.079L334.355,406.428z M334.353,397.211c-5.756,3.423-19.906,11.825-26.96,15.867
			c-0.875,0.501-1.912,0.499-2.781,0.002c-7.057-4.044-21.208-12.446-26.963-15.868c-0.221-0.134-0.738-0.517-0.738-1.211
			c0-0.698,0.514-1.078,0.736-1.209l4.936-2.905c6.672,3.955,15.473,9.151,20.583,12.081c0.867,0.497,1.85,0.76,2.835,0.76
			s1.969-0.263,2.838-0.762c5.108-2.929,13.908-8.124,20.58-12.079l4.937,2.905c0.222,0.131,0.736,0.511,0.736,1.209
			C335.092,396.695,334.574,397.078,334.353,397.211z"/>
	</g>
</g>
</svg>
