<?xml version="1.0" encoding="utf-8"?>
<!-- Generator: Adobe Illustrator 16.0.0, SVG Export Plug-In . SVG Version: 6.00 Build 0)  -->
<!DOCTYPE svg PUBLIC "-//W3C//DTD SVG 1.1//EN" "http://www.w3.org/Graphics/SVG/1.1/DTD/svg11.dtd">
<svg version="1.1" id="svg1668" xmlns:svg="http://www.w3.org/2000/svg"
	 xmlns="http://www.w3.org/2000/svg" xmlns:xlink="http://www.w3.org/1999/xlink" x="0px" y="0px" width="64px" height="64px"
	 viewBox="309.333 309.333 64 64" enable-background="new 309.333 309.333 64 64" xml:space="preserve">
<rect fill="none" width="682.667" height="682.667"/>
<g id="g1678">
	<g id="g1684" transform="translate(218.2309,240.7603)">
		<g id="path1686">
			<path fill="#F97150" d="M117.811,132.46C117.811,132.46,117.811,132.46,117.811,132.46c-0.424,0-0.846-0.112-1.219-0.324
				l-20.744-11.793c-0.77-0.438-1.249-1.26-1.249-2.146V92.045c0-1.362,1.108-2.47,2.469-2.47c0.408,0,0.815,0.104,1.177,0.301
				l20.745,11.274c0.795,0.433,1.29,1.263,1.29,2.168v26.672c0,0.68-0.269,1.312-0.756,1.779
				C119.059,132.215,118.451,132.46,117.811,132.46z M97.455,117.972l19.969,11.353v-25.775L97.455,92.697V117.972z"/>
		</g>
	</g>
	<g id="g1688" transform="translate(435.2455,403.647)">
		<g id="path1690">
			<path fill="#F97150" d="M-94.264-65.963L-94.264-65.963c-0.401,0-0.8-0.099-1.155-0.287l-22.288-11.8
				c-0.812-0.43-1.314-1.267-1.313-2.185c0.001-0.917,0.507-1.753,1.319-2.181l22.288-11.728c0.353-0.186,0.75-0.284,1.149-0.284
				c0.394,0,0.787,0.096,1.136,0.277l22.621,11.728c0.821,0.425,1.331,1.264,1.332,2.188c0.002,0.924-0.507,1.764-1.326,2.191
				l-22.621,11.8C-93.473-66.06-93.868-65.963-94.264-65.963z M-115.721-80.23l21.459,11.362l21.78-11.362l-21.78-11.291
				L-115.721-80.23z"/>
		</g>
	</g>
	<g id="g1692" transform="translate(457.2202,329.5904)">
		<g id="path1694">
			<path fill="#F97150" d="M-110.596,43.63L-110.596,43.63c-1.362,0-2.47-1.107-2.47-2.47V14.488c0-0.905,0.494-1.736,1.29-2.168
				l20.744-11.274c0.362-0.197,0.77-0.301,1.178-0.301c1.361,0,2.469,1.108,2.469,2.47v26.152c0,0.886-0.479,1.708-1.248,2.146
				l-20.745,11.793C-109.75,43.518-110.172,43.63-110.596,43.63z M-110.21,14.72v25.774l19.97-11.353V3.867L-110.21,14.72z"/>
		</g>
	</g>
</g>
</svg>
