<?xml version="1.0" encoding="utf-8"?>
<!-- Generator: Adobe Illustrator 16.0.0, SVG Export Plug-In . SVG Version: 6.00 Build 0)  -->
<!DOCTYPE svg PUBLIC "-//W3C//DTD SVG 1.1//EN" "http://www.w3.org/Graphics/SVG/1.1/DTD/svg11.dtd">
<svg version="1.1" id="Layer_1" xmlns="http://www.w3.org/2000/svg" xmlns:xlink="http://www.w3.org/1999/xlink" x="0px" y="0px"
	 width="64px" height="64px" viewBox="224 224 64 64" enable-background="new 224 224 64 64" xml:space="preserve">
<g>
	<g>
		<g>
			<path fill="#F97150" d="M255.087,254.733c-0.087,0-0.174-0.015-0.246-0.043c-0.376-0.145-0.565-0.55-0.42-0.927l6.82-18.433
				c0.145-0.376,0.55-0.565,0.927-0.42c0.376,0.145,0.564,0.55,0.435,0.927l-6.834,18.418
				C255.667,254.544,255.392,254.733,255.087,254.733z"/>
		</g>
		<g>
			<path fill="#F97150" d="M238.841,251.287c-2.36,0-4.271-1.824-4.271-4.054v-8.138c0-0.405,0.318-0.724,0.724-0.724
				c0.405,0,0.724,0.319,0.724,0.724v8.138c0,1.433,1.274,2.606,2.823,2.606c1.549,0,2.823-1.173,2.823-2.606v-8.138
				c0-0.405,0.318-0.724,0.724-0.724c0.405,0,0.724,0.319,0.724,0.724v8.138C243.127,249.477,241.202,251.287,238.841,251.287z"/>
		</g>
		<g>
			<path fill="#F97150" d="M245.835,251.287c-0.116,0-0.232-0.029-0.348-0.086c-0.348-0.189-0.478-0.623-0.29-0.985l6.226-11.555
				c0.188-0.348,0.623-0.478,0.985-0.29c0.348,0.188,0.478,0.623,0.29,0.985l-6.226,11.555
				C246.341,251.157,246.096,251.287,245.835,251.287L245.835,251.287z"/>
		</g>
		<g>
			<path fill="#F97150" d="M252.061,251.287c-0.261,0-0.507-0.13-0.637-0.376l-6.226-11.555c-0.188-0.347-0.058-0.796,0.29-0.985
				c0.348-0.188,0.796-0.058,0.985,0.29l6.226,11.555c0.188,0.348,0.058,0.796-0.29,0.985
				C252.292,251.257,252.177,251.287,252.061,251.287L252.061,251.287z"/>
		</g>
		<g>
			<path fill="#F97150" d="M268.51,251.287c-2.359,0-4.271-1.824-4.271-4.054v-8.138c0-0.405,0.318-0.724,0.724-0.724
				c0.406,0,0.725,0.319,0.725,0.724v8.138c0,1.433,1.273,2.606,2.823,2.606s2.824-1.173,2.824-2.606v-8.138
				c0-0.405,0.317-0.724,0.724-0.724c0.405,0,0.725,0.319,0.725,0.724v8.138C272.782,249.477,270.87,251.287,268.51,251.287z"/>
		</g>
		<g>
			<path fill="#F97150" d="M276.691,252.069c-0.406,0-0.725-0.319-0.725-0.724v-13.119c0-0.406,0.318-0.724,0.725-0.724
				c0.405,0,0.724,0.318,0.724,0.724v13.119C277.415,251.75,277.097,252.069,276.691,252.069z"/>
		</g>
	</g>
	<g>
		<g>
			<path fill="#F97150" d="M249.006,270.487c-1.318,0-2.389-1.072-2.389-2.39c0-1.318,1.071-2.39,2.389-2.39
				c1.317,0,2.389,1.071,2.389,2.39C251.395,269.415,250.323,270.487,249.006,270.487z M249.006,267.157
				c-0.521,0-0.941,0.419-0.941,0.94c0,0.521,0.42,0.941,0.941,0.941c0.521,0,0.941-0.421,0.941-0.941
				C249.947,267.576,249.527,267.157,249.006,267.157z"/>
		</g>
		<g>
			<path fill="#F97150" d="M256,270.487c-1.317,0-2.389-1.072-2.389-2.39c0-1.318,1.072-2.39,2.389-2.39
				c1.318,0,2.389,1.071,2.389,2.39C258.389,269.415,257.317,270.487,256,270.487z M256,267.157c-0.521,0-0.941,0.419-0.941,0.94
				c0,0.521,0.42,0.941,0.941,0.941s0.942-0.421,0.942-0.941C256.941,267.576,256.521,267.157,256,267.157z"/>
		</g>
		<g>
			<path fill="#F97150" d="M262.979,270.487c-1.318,0-2.389-1.072-2.389-2.39c0-1.318,1.07-2.39,2.389-2.39
				c1.317,0,2.39,1.071,2.39,2.39C265.368,269.415,264.296,270.487,262.979,270.487z M262.979,267.157
				c-0.521,0-0.94,0.419-0.94,0.94c0,0.521,0.419,0.941,0.94,0.941s0.941-0.421,0.941-0.941
				C263.92,267.576,263.5,267.157,262.979,267.157z"/>
		</g>
		<g>
			<path fill="#F97150" d="M283.496,274.121h-55.008c-2.476,0-4.488-2.013-4.488-4.488v-39.081c0-2.476,2.013-4.488,4.488-4.488
				h55.008c2.477,0,4.489,2.013,4.489,4.488v39.081C288,272.108,285.973,274.121,283.496,274.121z M228.488,227.497
				c-1.679,0-3.04,1.361-3.04,3.041v39.081c0,1.679,1.361,3.04,3.04,3.04h55.008c1.68,0,3.041-1.361,3.041-3.04v-39.066
				c0-1.68-1.361-3.041-3.041-3.041C283.496,227.497,228.488,227.497,228.488,227.497z"/>
		</g>
		<g>
			<path fill="#F97150" d="M287.276,263.521h-62.553c-0.406,0-0.724-0.317-0.724-0.724c0-0.405,0.318-0.725,0.724-0.725h62.553
				c0.404,0,0.724,0.319,0.724,0.725C288,263.204,287.667,263.521,287.276,263.521z"/>
		</g>
		<g>
			<path fill="#F97150" d="M267.554,280.796c-0.405,0-0.723-0.318-0.723-0.724v-6.689c0-0.405,0.317-0.725,0.723-0.725
				c0.406,0,0.725,0.319,0.725,0.725v6.689C268.278,280.478,267.96,280.796,267.554,280.796z M244.763,280.796
				c-0.405,0-0.724-0.318-0.724-0.724v-6.689c0-0.405,0.319-0.725,0.724-0.725c0.406,0,0.724,0.319,0.724,0.725v6.689
				C245.487,280.478,245.169,280.796,244.763,280.796z"/>
		</g>
		<g>
			<path fill="#F97150" d="M271.507,285.937h-31.029c-1.824,0-3.302-1.478-3.302-3.302c0-1.81,1.478-3.301,3.302-3.301h31.016
				c1.81,0,3.301,1.477,3.301,3.301S273.317,285.937,271.507,285.937L271.507,285.937z M240.478,280.796
				c-1.014,0-1.854,0.826-1.854,1.854c0,1.028,0.825,1.854,1.854,1.854h31.016c1.013,0,1.854-0.825,1.854-1.854
				c0-1.027-0.826-1.854-1.854-1.854H240.478z"/>
		</g>
	</g>
</g>
</svg>
