<?xml version="1.0" encoding="UTF-8"?>
<!DOCTYPE svg PUBLIC "-//W3C//DTD SVG 1.1//EN" "http://www.w3.org/Graphics/SVG/1.1/DTD/svg11.dtd">
<!-- Creator: CorelDRAW 2020 (64-Bit) -->
<svg xmlns="http://www.w3.org/2000/svg" xml:space="preserve" width="60px" height="60px" version="1.1" style="shape-rendering:geometricPrecision; text-rendering:geometricPrecision; image-rendering:optimizeQuality; fill-rule:evenodd; clip-rule:evenodd"
viewBox="0 0 15.45 15.45"
 xmlns:xlink="http://www.w3.org/1999/xlink"
 xmlns:xodm="http://www.corel.com/coreldraw/odm/2003">
 <defs>
  <style type="text/css">
   <![CDATA[
    .fil0 {fill:none}
    .fil1 {fill:#F97150}
   ]]>
  </style>
 </defs>
 <g id="Layer_x0020_1">
  <metadata id="CorelCorpID_0Corel-Layer"/>
  <g id="_2906846159424">
   <rect class="fil0" width="15.45" height="15.45"/>
   <g id="_2906906575232">
    <path class="fil1" d="M0.45 14.21l14.55 0 0 0.52 -14.55 0 0 -0.52zm-0.45 0.79l0 -1.02c0.03,-0.29 0.17,-0.25 0.66,-0.25l0 -3.83c0,-0.15 0.1,-0.24 0.25,-0.24l1.93 0c0.14,0 0.24,0.09 0.24,0.24l0 1.45c0,0.34 -0.45,0.27 -0.45,0.06l0 -1.27 -1.48 0 0 3.59 1.48 0 0 -1.39c0,-0.13 0.23,-0.25 0.38,-0.11 0.13,0.12 0.07,1.17 0.07,1.5l1.48 0 0 -7.78c0,-0.12 0.08,-0.25 0.18,-0.25l2.02 0c0.14,0 0.21,0.07 0.21,0.22l0 3.07c0,0.31 -0.45,0.29 -0.45,-0.03l0 -2.8 -1.48 0 0 7.57 1.48 0 0 -3.68c0,-0.31 0.45,-0.33 0.45,-0.03l0 3.71 1.51 0 0 -5.73c0,-0.13 0.17,-0.18 0.3,-0.18l1.84 0c0.15,0 0.27,0.12 0.27,0.27l0 5.64 1.48 0 0 -6.4c0,-0.34 0.46,-0.26 0.46,-0.06l0 6.46 1.48 0 0 -9.08 -1.48 0 0 1.63c0,0.31 -0.46,0.25 -0.46,0.03l0 -1.9c0,-0.15 0.1,-0.25 0.25,-0.25l1.93 0c0.14,0 0.24,0.1 0.24,0.25l0 9.32c0.31,0 0.66,-0.06 0.66,0.24l0 1.03c0,0.07 -0.11,0.18 -0.18,0.18l-15.09 0c-0.07,0 -0.18,-0.11 -0.18,-0.18zm8.93 -6.7l1.48 0 0 5.43 -1.48 0 0 -5.43z"/>
    <path class="fil1" d="M1.93 7.7c-0.47,0 -0.78,-0.32 -0.78,-0.61 0,-0.33 -0.02,-0.43 0.23,-0.67 0.44,-0.42 1.18,-0.13 1.23,0.5 0.04,0.39 -0.3,0.78 -0.68,0.78zm7 -2.57c0,-0.35 0.32,-0.72 0.67,-0.72 1.18,0 0.97,1.5 0.06,1.47 -0.38,-0.01 -0.73,-0.34 -0.73,-0.75zm-3.14 -1.39c-0.98,0 -1.03,-1.48 0.03,-1.48 0.21,0 0.39,0.12 0.5,0.24 0.45,0.47 0.07,1.24 -0.53,1.24zm8.52 -2.35l0 0.18c0,0.31 -0.33,0.63 -0.64,0.63 -0.34,0 -0.64,-0.08 -0.78,-0.45 -0.22,-0.59 0.31,-1.17 0.94,-0.97 0.22,0.07 0.48,0.33 0.48,0.61zm-1.94 0.06c0,0.45 0.13,0.49 0.18,0.69 -0.11,0.06 -0.83,0.76 -1.09,0.99 -0.26,0.23 -0.83,0.84 -1.08,1 -0.14,-0.03 -0.63,-0.4 -1.23,-0.08 -0.05,0.02 -0.17,0.09 -0.21,0.12 -0.08,0.07 -0.1,0.12 -0.19,0.18l-0.46 -0.24c-0.08,-0.05 -0.12,-0.07 -0.21,-0.12l-1.14 -0.61c0.01,-0.38 0.17,-0.76 -0.34,-1.26 -0.56,-0.55 -1.53,-0.42 -1.92,0.38 -0.22,0.44 -0.11,0.8 0.09,1.18 -0.11,0.16 -1.13,1.12 -1.38,1.4 -0.25,0.26 -0.57,0.68 -0.85,0.87 -0.99,-0.53 -1.88,0.15 -1.88,1.02 0,1.02 1.23,1.62 2.05,0.87 0.43,-0.39 0.49,-1.06 0.16,-1.56l2.23 -2.27c0.29,0.16 0.48,0.23 0.87,0.18 0.28,-0.03 0.6,-0.23 0.73,-0.42l1.81 1c-0.03,0.36 -0.1,0.7 0.19,1.08 0.03,0.04 0.09,0.12 0.12,0.15 0.47,0.46 1.27,0.45 1.72,-0.02 0.41,-0.42 0.44,-0.97 0.17,-1.48l1.73 -1.63c0.13,-0.11 0.28,-0.3 0.42,-0.4 0.27,0.07 0.28,0.22 0.72,0.22 0.68,0 1.21,-0.54 1.21,-1.27 0,-0.59 -0.53,-1.15 -1.24,-1.15 -0.64,0 -1.18,0.54 -1.18,1.18z"/>
   </g>
  </g>
 </g>
</svg>
