<?xml version="1.0" encoding="UTF-8"?>
<!DOCTYPE svg PUBLIC "-//W3C//DTD SVG 1.1//EN" "http://www.w3.org/Graphics/SVG/1.1/DTD/svg11.dtd">
<!-- Creator: CorelDRAW 2020 (64-Bit) -->
<svg xmlns="http://www.w3.org/2000/svg" xml:space="preserve" width="60px" height="60px" version="1.1" style="shape-rendering:geometricPrecision; text-rendering:geometricPrecision; image-rendering:optimizeQuality; fill-rule:evenodd; clip-rule:evenodd"
viewBox="0 0 60 60"
 xmlns:xlink="http://www.w3.org/1999/xlink"
 xmlns:xodm="http://www.corel.com/coreldraw/odm/2003">
 <defs>
  <style type="text/css">
   <![CDATA[
    .fil0 {fill:none}
    .fil1 {fill:#F97150}
   ]]>
  </style>
 </defs>
 <g id="Layer_x0020_1">
  <metadata id="CorelCorpID_0Corel-Layer"/>
  <rect class="fil0" width="60" height="60"/>
  <rect class="fil0" width="60" height="60"/>
  <g id="_2906846178528">
   <path class="fil1" d="M3.28 56.02l53.44 0c0.39,0 1.08,1.59 1.18,1.99l-55.79 0c0.09,-0.4 0.79,-1.99 1.17,-1.99zm26.61 -15.12l0.23 0c0.39,1.47 2.84,1.62 2.82,5.27 -0.03,3.16 -0.14,5.18 0.46,7.74l-12.19 0c1.79,-2.67 8.68,-9.77 8.68,-13.01zm-12.08 13.01c-1.31,0 -2.22,-0.7 -2.22,-1.88 0,-1.21 4.3,-6.61 5.19,-7.81 2.19,-2.99 3.48,-4.46 3.6,-9.53 0.29,0.2 3.75,4.06 3.75,4.1 0,4 -2.53,6.01 -4.31,8.36 -0.91,1.21 -4.6,6.76 -6.01,6.76zm15.47 -23.32c0,-0.59 1.75,-5.56 2,-5.74 0.35,1.32 2.62,3.16 4.45,3.16l6.21 0 0 25.9 -5.39 0c0.15,-0.65 0.47,-0.97 0.47,-1.88l0 -10.31c0,-4.25 -7.74,-9.59 -7.74,-11.13zm-11.48 0.23c-0.92,0 -3.18,-0.96 -4.12,-1.27 -1.19,-0.4 -3.5,-0.77 -3.5,-2.01 0,-2.25 4.82,0.82 5.98,0.82 0.46,0 0.94,-0.53 0.94,-1.05 0,-1.55 -4.69,-1.93 -4.69,-2.93 0,-1.12 0.65,-2.08 0.94,-3.28l7.51 2.55c-0.57,1.19 -1.93,7.17 -3.06,7.17zm10.19 -10.9c0,2.1 2.38,0.8 1.02,4.88 -0.65,1.93 -1.72,4.37 -1.72,6.02 0,2.41 7.62,7.96 7.62,10.55l0 10.9c0,1.17 -1.59,2.06 -2.77,1.49 -2.77,-1.32 0.77,-7.86 -2.57,-11.98 -1.68,-2.07 -8.49,-8.39 -8.49,-10.96l0 -0.93c0,-1.22 2.43,-7.95 2.95,-9.48 0.9,-2.71 1.82,-7.29 5.76,-6.28 2.02,0.52 4.44,5.07 5.61,6.83 0.83,1.24 1.49,2.77 3.18,3.03 1.96,0.3 5.35,-0.85 5.35,1.21 0,0.54 -0.69,0.82 -1.29,0.82l-5.86 0c-4.59,0 -5.6,-7.03 -7.85,-7.03 -0.56,0 -0.94,0.37 -0.94,0.93zm-6.49 1.74l-7.45 -2.56 1.32 -3.74 7.35 2.59 -1.22 3.71zm1.92 -5.72l-7.37 -2.49c0.97,-4.17 1.39,-3.75 5.02,-2.42 3.76,1.37 4.33,0.78 2.35,4.91zm-10.66 -2.23c0,1.28 0.98,0.03 0.22,2.21 -0.15,0.44 -0.78,2.1 -0.81,2.48 -1.22,0 -1.29,0.52 -1.29,1.29 0,0.98 0.9,-0.4 0.02,2.24 -0.34,1.01 -0.6,1.46 -0.6,2.8 -1.44,0.33 -2.23,1.52 -2.23,3.16 0,2.24 2.57,2.84 4.32,3.42 1.02,0.33 4.97,2.05 6.11,1.5 0,0.81 -0.74,6.05 -0.95,6.67 -0.3,0.89 -2.42,3.62 -3.1,4.52 -1.12,1.49 -2.12,2.91 -3.23,4.39 -1.67,2.22 -2.01,2.36 -1.27,5.52 -2.97,0 -5.94,0 -8.91,0 -1.67,0 -2.83,-0.11 -3.62,0.83 -0.44,0.53 -1.42,2.39 -1.42,3.39 0,1.02 0.86,1.87 1.88,1.87l56.25 0c3.29,0 2,-6.09 -1.99,-6.09l-8.09 0 0 -26.13c1.75,-0.41 3.47,-3.79 0,-5.63 0,-1.56 0.03,-3.14 0.01,-4.7 -0.04,-2.29 -2.12,-1.61 -2.12,-0.34l0 4.81 -2.93 0c-2.06,0 -4.54,-9.97 -9.96,-9.97 -0.93,0 -1.65,0.04 -2.46,0.47 -0.48,-2.05 -1.65,-2.19 -3.45,-2.88 -1.85,-0.69 -3.93,-1.57 -5.58,-1.57 -1.51,0 -2.31,1.37 -2.71,2.56 -0.12,0.36 -0.51,1.69 -0.66,1.91 -0.39,0.57 -1.43,0.3 -1.43,1.27z"/>
   <path class="fil1" d="M41.96 5.86c0,2.37 -1.74,4.1 -3.87,4.1 -3.68,0 -5.26,-4.15 -2.96,-6.71 2.28,-2.53 6.83,-0.85 6.83,2.61zm-9.97 -0.12l0 0.71c0,2.93 2.99,5.62 5.98,5.62 3.31,0 6.1,-2.79 6.1,-6.09 0,-3.1 -2.67,-5.98 -5.75,-5.98l-0.82 0c-2.77,0 -5.51,2.87 -5.51,5.74z"/>
  </g>
 </g>
</svg>
