<?xml version="1.0" encoding="UTF-8"?>
<!DOCTYPE svg PUBLIC "-//W3C//DTD SVG 1.1//EN" "http://www.w3.org/Graphics/SVG/1.1/DTD/svg11.dtd">
<!-- Creator: CorelDRAW 2020 (64-Bit) -->
<svg xmlns="http://www.w3.org/2000/svg" xml:space="preserve" width="60px" height="60px" version="1.1" style="shape-rendering:geometricPrecision; text-rendering:geometricPrecision; image-rendering:optimizeQuality; fill-rule:evenodd; clip-rule:evenodd"
viewBox="0 0 60 60"
 xmlns:xlink="http://www.w3.org/1999/xlink"
 xmlns:xodm="http://www.corel.com/coreldraw/odm/2003">
 <defs>
  <style type="text/css">
   <![CDATA[
    .fil0 {fill:none}
    .fil1 {fill:#F97150}
   ]]>
  </style>
 </defs>
 <g id="Layer_x0020_1">
  <metadata id="CorelCorpID_0Corel-Layer"/>
  <rect class="fil0" width="60" height="60"/>
  <rect class="fil0" width="60" height="60"/>
  <g id="_2906845060080">
   <path class="fil1" d="M13.83 34.98c0.1,0.42 0.54,1.07 0.82,1.64 0.13,0.27 0.23,0.49 0.39,0.78 0.89,1.66 1.45,3.32 2.89,3.32 1.31,0 1.67,-1.17 2.15,-2.07 0.28,-0.52 1.28,-2.5 1.6,-2.73 0.12,0.52 0.42,0.83 0.67,1.32 0.78,1.57 1.51,3.48 2.85,3.48 0.77,0 1.25,-0.38 1.59,-0.87l2.62 -4.99c0.27,0.2 0.81,1.16 1.11,1.6 1.22,1.83 6.85,10.29 7.45,11.41l-32.81 0c0.72,-1.08 1.39,-2.16 2.13,-3.26l5.34 -8.13c0.39,-0.58 0.79,-1.39 1.2,-1.5zm23.79 5.51l1.82 -2.87c0.23,-0.3 0.03,-0.2 0.4,-0.3 0.1,0.41 2.01,3.23 2.46,3.87 0.24,0.34 0.89,0.82 1.41,0.82 1.3,0 1.81,-1.19 2.34,-1.99l1.76 -2.7c0.36,0.24 3.32,4.84 3.55,5.24l3.48 5.31 -12.54 0c-0.11,-0.43 -0.83,-1.37 -1.12,-1.8l-3.56 -5.58zm6.09 -3.64c-0.15,-0.58 -1.76,-2.61 -1.76,-2.93l1.88 -2.81c0.63,0.94 1.25,1.88 1.87,2.81 -0.33,0.5 -0.63,0.95 -0.98,1.48 -0.3,0.45 -0.64,1.19 -1.01,1.45zm-25.9 -1.87c-0.09,-0.42 -0.52,-1.2 -0.75,-1.59 -0.65,-1.09 -1.2,-1.79 -0.81,-2.42l5.31 -8.06c0.31,0.23 4.95,7.42 5.63,8.44 -0.32,0.59 -1.64,3.37 -1.99,3.63l-1.39 -2.72c-0.67,-1.1 -0.82,-2.09 -2.25,-2.09 -1.6,0 -1.99,1.83 -2.89,3.44 -0.16,0.3 -0.24,0.38 -0.39,0.67 -0.18,0.35 -0.16,0.47 -0.47,0.7zm-17.81 14.65c0,1.15 0.82,1.87 1.87,1.87l56.26 0c1.07,0 1.87,-0.71 1.87,-1.87 0,-0.83 -0.83,-1.83 -1.22,-2.42l-2.22 -3.4c-0.28,-0.41 -0.49,-0.72 -0.76,-1.12l-10.31 -15.7c-0.89,-1.36 -2.36,-1.6 -3.37,-0.05l-5.96 9.05c-0.26,0.39 -0.43,0.85 -0.77,1.1 -0.33,-0.24 -1.35,-1.92 -1.69,-2.42 -0.57,-0.86 -1.05,-1.63 -1.61,-2.48 -1.13,-1.69 -2.17,-3.31 -3.31,-5.02l-4.87 -7.43c-0.26,-0.38 -0.55,-0.89 -0.86,-1.25 -0.57,-0.7 -0.78,-0.74 -1.72,-0.74 -1.13,0 -2.23,2.29 -3.05,3.52l-2.65 4.03c-0.46,0.7 -0.85,1.28 -1.31,1.97l-13.2 20.08c-0.4,0.61 -1.12,1.54 -1.12,2.28z"/>
   <path class="fil1" d="M34.57 14.59c0,-3.2 4.81,-3.43 4.81,0.12 0,2.93 -4.81,2.99 -4.81,-0.12zm-3.63 -0.47l0 0.59c0,3.08 2.77,5.86 5.86,5.86 3.61,0 6.21,-2.51 6.21,-6.33 0,-2.99 -2.76,-5.75 -5.74,-5.75 -2.05,0 -3.17,0.45 -4.52,1.7 -0.81,0.76 -1.81,2.43 -1.81,3.93z"/>
  </g>
 </g>
</svg>
