<?xml version="1.0" encoding="UTF-8"?>
<!DOCTYPE svg PUBLIC "-//W3C//DTD SVG 1.1//EN" "http://www.w3.org/Graphics/SVG/1.1/DTD/svg11.dtd">
<!-- Creator: CorelDRAW 2020 (64-Bit) -->
<svg xmlns="http://www.w3.org/2000/svg" xml:space="preserve" width="60px" height="60px" version="1.1" style="shape-rendering:geometricPrecision; text-rendering:geometricPrecision; image-rendering:optimizeQuality; fill-rule:evenodd; clip-rule:evenodd"
viewBox="0 0 60 60"
 xmlns:xlink="http://www.w3.org/1999/xlink"
 xmlns:xodm="http://www.corel.com/coreldraw/odm/2003">
 <defs>
  <style type="text/css">
   <![CDATA[
    .fil0 {fill:none}
    .fil1 {fill:#F97150}
   ]]>
  </style>
 </defs>
 <g id="Layer_x0020_1">
  <metadata id="CorelCorpID_0Corel-Layer"/>
  <rect class="fil0" width="60" height="60"/>
  <rect class="fil0" width="60" height="60"/>
  <g id="_2906834504320">
   <path class="fil1" d="M10.49 39.95c-1.87,0 -6.82,-0.47 -8.09,-1.99 -1.13,-1.36 1.14,-8.47 8.09,-8.47 3.74,0 7.13,2.41 8.06,5.89 0.11,0.4 0.06,0.51 0.22,0.83 -0.56,0.14 -1.18,0.96 -1.59,1.38 -0.29,0.31 -0.36,0.46 -0.64,0.78 -0.24,0.27 -0.49,0.67 -0.72,0.84 -0.6,0.45 -4.12,0.74 -5.33,0.74zm28.96 -5.17c-0.79,-0.53 -3.27,-1.84 -4.4,-1.93l0 -0.26c1.36,-0.36 2.72,-2.8 3.36,-4.01 2.03,0 3.95,-0.1 5.77,-0.57 0.88,-0.22 1.07,-0.55 1.47,0.05 -1.17,0.56 -0.8,0.24 -2.12,1.11 -1.65,1.1 -3.91,3.58 -4.08,5.61zm-17.84 -6.2c0.21,0.4 0.37,0.79 0.62,1.19 0.53,0.85 1.84,2.58 2.74,2.82l0 0.26c-1.09,0.09 -3.62,1.42 -4.39,1.93 -0.17,-1.99 -2.44,-4.54 -4.09,-5.61 -0.33,-0.22 -0.65,-0.41 -0.96,-0.58 -0.41,-0.24 -0.74,-0.33 -1.16,-0.53 0.42,-0.61 0.56,-0.27 1.37,-0.07 2.08,0.49 3.56,0.59 5.87,0.59zm24.3 -4.65c0,-3.51 3.74,-4.99 6.11,-2.88 3.31,2.94 -1.03,8.7 -4.95,5.33 -0.51,-0.44 -1.16,-1.51 -1.16,-2.45zm-39.03 0.13c0,-1.72 0.56,-2.98 2.15,-3.67 1.42,-0.61 3.03,-0.27 4.02,0.72 3.24,3.23 -1.4,8.42 -4.98,5.37 -0.51,-0.44 -1.19,-1.52 -1.19,-2.42zm31.66 -8.02c1.43,0 3.22,0.52 4.14,1.04 1.16,0.66 2,1.48 2.84,2.45 -0.25,0.38 -0.64,0.76 -0.9,1.17 -1.44,2.34 -0.62,3.92 -0.52,5.17 -1.53,0.12 -2.56,0.64 -5.17,0.64 0.32,-1.37 0.04,-5.56 -1.55,-5.56 -0.86,0 -1.22,0.74 -1.03,1.41 0.52,1.8 0.51,1.12 0.51,3.25 0,3.46 -3.14,6.46 -6.98,6.46 -3.46,0 -6.72,-3.02 -6.72,-6.46 0,-1.4 0,-2.25 0.64,-3.5l1.01 -1.45c0.08,-0.09 0.11,-0.12 0.18,-0.2l0.19 -0.21c2.08,-2.08 5.13,-2.64 7.94,-1.24 1.7,0.86 1.65,1.56 2.58,1.56 0.76,0 1.87,-0.99 0.13,-2.33 -0.44,-0.34 -0.8,-0.76 -1.42,-0.9 0.15,-0.57 1.18,-0.78 1.78,-0.94 0.54,-0.14 1.64,-0.36 2.35,-0.36zm-17.58 8.92c0,1 -0.06,0.72 0.13,1.55 -2.65,0 -3.57,-0.51 -5.17,-0.64 0.05,-0.54 0.23,-1.07 0.33,-1.76 0.3,-2.19 -1.1,-3.61 -1.75,-4.58 0.76,-0.87 1.67,-1.83 2.76,-2.41 2.27,-1.21 5.12,-1.43 7.54,-0.39 0.87,0.37 0.71,0.22 0.82,0.61 -1.86,0.43 -4.66,4.25 -4.66,7.62zm13.96 -14.61c0,-4.72 7.24,-5.21 7.24,0.26 0,1.31 -1.01,2.53 -2.15,3.02 -1.45,0.62 -2.89,0.3 -4.02,-0.73 -0.53,-0.47 -1.07,-1.55 -1.07,-2.55zm-13.44 3.62c-1.68,0 -3.62,-1.48 -3.62,-3.36 0,-1.21 0.16,-2.14 1.13,-3 2.31,-2.05 6.11,-0.63 6.11,2.74 0,2.1 -1.84,3.62 -3.62,3.62zm-5.82 -3.75c0,0.92 0.27,1.87 0.57,2.54 0.16,0.35 0.4,0.69 0.6,0.96 0.26,0.37 0.52,0.53 0.77,0.9 -1.08,0.57 -1.34,0.44 -2.73,1.53 -0.41,0.32 -0.84,0.64 -1.18,1.02 -0.3,0.35 -0.68,0.97 -1,1.2 -1.75,-0.41 -2.93,-0.76 -4.83,0.21 -1.1,0.56 -2.14,1.64 -2.67,2.76 -0.89,1.9 -0.52,4.19 0.65,5.82 0.27,0.37 0.53,0.53 0.78,0.9 -1.9,0.91 -2.9,1.29 -4.44,3.19 -1.48,1.83 -3.52,6.41 -0.96,8.54 2.53,2.11 6.88,2.23 10.31,2.23 1.15,0 1.87,-0.17 2.84,-0.26 -0.12,0.51 -0.7,1.63 -0.98,2.9 -0.56,2.57 -0.82,4.24 0.54,6.21 1.24,1.8 3.16,2.31 3.16,0.33 0,-0.92 -1.94,-0.78 -1.94,-3.49 0,-4.36 2.67,-8.52 6.17,-10.89 0.73,-0.48 1.41,-0.86 2.27,-1.22 3.19,-1.36 4.04,-1.33 7.46,-1.33 3.65,0 6.85,1.82 9.52,4.04 2.27,1.89 4.31,6.12 4.31,9.4 0,2.31 -1.65,3.12 -3.88,4.01 -1.78,0.7 -3.8,1.02 -6.02,1.35 -1.22,0.18 -2.15,0.1 -3.41,0.2 -2.79,0.24 -1.74,-0.02 -3.49,0 -1.21,0 -2.33,-0.1 -3.37,-0.25l-3.23 -0.53c-0.82,0 -1.25,1.1 -0.73,1.76 0.83,1.04 8.28,1.22 10.17,1.22 4.61,0 12.8,-0.97 15.43,-4.99 1.91,-2.91 -0.42,-7.54 -0.7,-8.72 3.81,0.32 7.01,0.62 10.9,-0.73 1.43,-0.5 3.45,-1.73 3.45,-3.53 0,-1.66 -0.16,-2.72 -0.86,-4.18 -2.06,-4.29 -3.19,-1.71 -3.1,-1.17 0.04,0.26 2.67,4.06 1.69,5.66 -0.26,0.42 -1.03,0.86 -1.53,1.06 -1.88,0.74 -4.51,1.08 -6.67,1.08 -1.14,0 -4.64,-0.3 -5.25,-0.69l-1.37 -1.6c-0.35,-0.37 -1.22,-1.34 -1.65,-1.45 0.51,-2.2 1.22,-3.39 2.68,-4.69 2.53,-2.25 6.59,-2.63 9.64,-1.05 0.44,0.23 0.76,0.57 1.25,0.57 0.88,0 1.03,-0.62 1.03,-1.3 0,-0.73 -1.84,-1.39 -2.45,-1.68 0.54,-0.81 1.94,-1.81 1.94,-4.26 0,-3.12 -2.67,-5.82 -5.3,-5.82 -2.02,0 -1.08,0.01 -2.72,0.39 -0.62,-0.46 -0.63,-1.36 -3.41,-3.05 -0.53,-0.32 -0.99,-0.43 -1.5,-0.7 0.52,-0.77 1.94,-1.77 1.94,-4.27 0,-6.36 -8.82,-8.13 -11.19,-2.14 -0.65,1.62 -0.47,3.69 0.52,5.19 0.32,0.49 0.7,0.81 0.98,1.22 -1.11,0.59 -1.31,0.51 -2.49,1.4 -0.62,0.46 -0.34,0.15 -1,0.15l-2.33 0c-0.62,0 -0.37,0.29 -0.93,-0.1 -1.84,-1.26 -0.96,-0.6 -2.56,-1.45 0.55,-0.82 1.18,-1.1 1.63,-2.63 1.17,-3.99 -2,-7.45 -5.12,-7.45 -2.03,0 -3.14,0.36 -4.56,1.77 -0.84,0.84 -1.65,2.3 -1.65,3.91z"/>
   <path class="fil1" d="M18.51 53.79c1.78,0 1.78,-2.07 0,-2.07 -1.08,0 -1.08,2.07 0,2.07z"/>
  </g>
 </g>
</svg>
