<?xml version="1.0" encoding="UTF-8"?>
<!DOCTYPE svg PUBLIC "-//W3C//DTD SVG 1.1//EN" "http://www.w3.org/Graphics/SVG/1.1/DTD/svg11.dtd">
<!-- Creator: CorelDRAW 2020 (64-Bit) -->
<svg xmlns="http://www.w3.org/2000/svg" xml:space="preserve" width="60px" height="60px" version="1.1" style="shape-rendering:geometricPrecision; text-rendering:geometricPrecision; image-rendering:optimizeQuality; fill-rule:evenodd; clip-rule:evenodd"
viewBox="0 0 60 60"
 xmlns:xlink="http://www.w3.org/1999/xlink"
 xmlns:xodm="http://www.corel.com/coreldraw/odm/2003">
 <defs>
  <style type="text/css">
   <![CDATA[
    .fil0 {fill:none}
    .fil1 {fill:#F97150}
   ]]>
  </style>
 </defs>
 <g id="Layer_x0020_1">
  <metadata id="CorelCorpID_0Corel-Layer"/>
  <rect class="fil0" width="60" height="60"/>
  <g id="_2906914993008">
   <path class="fil1" d="M54 51.64l0 -17.63 4 0 0 17.63c0,3.12 -4,3.12 -4,0zm-49 0l0 -17.63 4 0 0 17.63c0,3.12 -4,3.12 -4,0zm45 -38.13c0,-4.46 3.04,-7.5 7.5,-7.5l0.5 0 0 26 -8 0 0 -18.5zm-40 8.5c1.39,-0.32 2.25,-0.76 3.02,-1.72 1.17,-1.47 0.9,-2.57 0.97,-3.91 0.03,-0.55 0.03,-0.47 0.35,-0.78 0.23,-0.24 0.39,-0.39 0.63,-0.62 0.27,-0.27 0.35,-0.27 0.62,-0.5 0.28,-0.24 0.37,-0.37 0.66,-0.59 6.24,-4.84 14.83,-6.4 22.25,-3.12 1.14,0.5 2.18,0.98 3.2,1.67l3.96 3.17c2.57,2.57 2.34,2.68 2.34,4.9l0 12.01c-0.02,1.88 0.64,1.49 3.75,1.49 -0.02,1.01 -0.65,3.15 -0.95,4.05 -1.38,4.15 -4,7.79 -7.48,10.4 -3.48,2.61 -6.56,3.76 -10.87,4.38 -3.5,0.5 -7.83,-0.2 -10.95,-1.58 -3.55,-1.57 -5.6,-3.1 -8.1,-5.9l-1.68 -2.2c-0.43,-0.65 -0.73,-0.8 -0.73,-1.89l0.01 -7.63c0.01,-1.04 -0.03,-1.55 -1,-1.63l0 -10zm-4 0l2 0 0 10 -2 0 0 -10zm-4 -4.75c0.39,0.09 0.4,0.16 0.85,0.28 2.04,0.56 5.09,0.66 7.19,0.26 1.03,-0.2 1.41,-0.41 1.96,-0.54 -0.28,3.4 -3.42,2.75 -6.88,2.75 -2.05,0 -2.89,-0.96 -3.12,-2.75zm-2 0.38c0,2.43 1.88,3.88 4,4.37l0 10c-0.61,0.05 -1,0.35 -1,1l0 19.25c0,2.01 1.97,3.75 3.62,3.75 1.22,0 2.1,-0.1 3.1,-1.02 0.58,-0.54 1.11,-1.39 1.25,-2.25 0.24,-1.44 0.03,-5.29 0.03,-6.98 1.74,2 3.04,3.44 5.2,4.93 3.29,2.28 8.19,4.32 12.92,4.32l1.76 0c5,0 10.23,-2.33 13.14,-4.48 3,-2.21 5.43,-4.91 7.19,-8.18 0.23,-0.43 0.49,-1.11 0.79,-1.46 0,3.12 0,6.25 0,9.37 0,1.96 -0.18,2.71 0.65,3.98 1.38,2.12 4.43,2.39 6.2,0.62 0.49,-0.49 1.15,-1.54 1.15,-2.47l0 -47.38c0,-1.36 -1.72,-1 -3.62,-1 -3.5,0 -7.01,2.94 -8.05,6.46 -0.43,1.45 -0.33,2.74 -0.33,4.54 -0.55,-0.36 -1.1,-1.03 -1.59,-1.53 -1.42,-1.42 -3.69,-2.99 -5.49,-3.88 -8.55,-4.26 -18.04,-3.24 -25.65,2.43 -0.53,0.39 -1,0.89 -1.52,1.23l-0.26 -5.12c-0.05,-0.63 -0.09,-1.73 -0.18,-2.43 -0.18,-1.24 0.02,-1.7 -1.31,-1.7 -0.35,0 -0.67,0.44 -0.76,0.74 -0.11,0.41 0.57,10.13 0.63,10.26 -1.03,0.55 -2.28,0.88 -3.87,0.88l0 -10.88c0,-1.34 -2,-1.34 -2,0l0 10.88c-1.59,0 -2.83,-0.33 -3.88,-0.88 0.26,-0.52 0.26,-4.74 0.41,-5.84l0.25 -4.33c-0.23,-1.17 -1.86,-1.1 -2.02,0.06 -0.22,1.68 -0.76,11.62 -0.76,12.74z"/>
   <path class="fil1" d="M30 45.01c-2.02,0 -5.24,-0.8 -6.9,-1.85 -6.29,-3.97 -8.76,-10.65 -5.83,-17.88 1.13,-2.8 4.19,-5.86 7,-7 5.68,-2.3 11.31,-1.37 15.57,2.89 1.2,1.2 1.45,1.57 2.31,2.94 0.24,0.38 0.42,0.77 0.58,1.17 2.28,5.61 1.38,11.31 -2.89,15.58 -1.16,1.16 -1.51,1.45 -2.96,2.28 -0.41,0.24 -0.68,0.42 -1.15,0.61 -1.74,0.7 -3.74,1.26 -5.73,1.26zm-16 -14.75c0,3.29 0.21,4.71 1.5,7.63 2.23,5.03 8.13,9.12 13.75,9.12 3.29,0 4.71,-0.21 7.62,-1.5 5.03,-2.22 9.13,-8.13 9.13,-13.75 0,-3.28 -0.21,-4.71 -1.5,-7.62 -2.23,-5.03 -8.13,-9.13 -13.75,-9.13 -3.29,0 -4.71,0.21 -7.62,1.51 -5.03,2.22 -9.13,8.13 -9.13,13.74z"/>
  </g>
 </g>
</svg>
