<?xml version="1.0" encoding="UTF-8"?>
<!DOCTYPE svg PUBLIC "-//W3C//DTD SVG 1.1//EN" "http://www.w3.org/Graphics/SVG/1.1/DTD/svg11.dtd">
<!-- Creator: CorelDRAW 2020 (64-Bit) -->
<svg xmlns="http://www.w3.org/2000/svg" xml:space="preserve" width="60px" height="60px" version="1.1" style="shape-rendering:geometricPrecision; text-rendering:geometricPrecision; image-rendering:optimizeQuality; fill-rule:evenodd; clip-rule:evenodd"
viewBox="0 0 60 60"
 xmlns:xlink="http://www.w3.org/1999/xlink"
 xmlns:xodm="http://www.corel.com/coreldraw/odm/2003">
 <defs>
  <style type="text/css">
   <![CDATA[
    .fil0 {fill:none}
    .fil1 {fill:#F97150}
   ]]>
  </style>
 </defs>
 <g id="Layer_x0020_1">
  <metadata id="CorelCorpID_0Corel-Layer"/>
  <rect class="fil0" width="60" height="60"/>
  <g id="_2906910075520">
   <path class="fil1" d="M54.36 24.23c0.44,0.23 1.08,0.72 1.55,0.83l0 28.41 -1.55 0 0 -29.24zm-50.37 1.19c0,-0.33 0.48,-0.53 0.76,-0.68 0.38,-0.2 0.56,-0.33 0.91,-0.51l0 29.24 -1.67 0 0 -28.05zm-2.51 -0.48l0 -1.79 26.67 -15.58c0.5,-0.3 1.34,-0.89 1.86,-1.01 0.56,0.38 1.11,0.65 1.72,1.02l21.34 12.45c0.32,0.19 0.59,0.32 0.91,0.52l4.56 2.6 0 1.79c-0.41,-0.09 -5.39,-3.05 -6.23,-3.56l-8.08 -4.69c-3.74,-2.27 -7.8,-4.48 -11.53,-6.73 -3.62,-2.2 -2.18,-1.86 -6.43,0.5l-8.79 5.17c-0.33,0.18 -0.55,0.32 -0.91,0.53l-7.97 4.68c-0.55,0.31 -6.61,3.98 -7.12,4.1zm-1.43 -1.91c0,1.6 -0.4,4.41 1.07,3.84 0.35,-0.14 1.13,-0.65 1.44,-0.85l0 25.9c0,3.54 -0.57,2.98 3.94,2.98 0.28,0 0.35,-0.19 0.59,-0.36l0 -31.15 2.84 -1.69c1.71,-1.03 19.44,-11.53 20.08,-11.68 2.18,1.46 8.97,5.19 11.45,6.69 2.23,1.35 8.93,5.34 11.47,6.68l0 23.63c0,1.91 -0.23,6.28 0.11,7.76 0.91,0.21 3.28,0.21 4.18,0 0.29,-1.25 0.12,-12.11 0.12,-14.32 0,-4.82 0,-9.63 0,-14.44 0.44,0.11 2.63,1.93 2.63,0 0,-0.73 0.14,-3.03 -0.15,-3.56 -0.24,-0.43 -0.89,-0.67 -1.34,-0.93 -0.68,-0.4 -1.21,-0.71 -1.89,-1.09l-9.42 -5.5c-0.35,-0.21 -0.61,-0.35 -0.98,-0.57 -0.39,-0.23 -0.58,-0.35 -0.98,-0.57l-7.54 -4.39c-0.65,-0.4 -1.21,-0.71 -1.88,-1.11l-1.88 -1.1c-4.91,-2.67 -2.82,-3 -7.77,-0.09 -8.11,4.77 -16.51,9.57 -24.53,14.38 -0.89,0.53 -1.56,0.68 -1.56,1.54z"/>
   <path class="fil1" d="M14.37 47.86l0 5.61 -2.5 0 0 -22.32c0,-1.41 1.93,-1.8 2.43,-0.52 0.2,0.51 0.07,1.35 0.07,1.95l0 10.15c0,1.09 -0.09,0.98 0.36,1.67l29.84 0c1.37,0 3.1,-0.16 3.1,1.19l0 7.88 -2.5 0c0,-1.43 0.15,-5.17 -0.12,-6.33 -0.29,-0.14 -0.52,-0.24 -0.96,-0.24l-28.76 0c-0.58,0 -0.96,0.38 -0.96,0.96zm1.44 -8.71l25.78 0c1.19,0 2.19,0.38 2.83,0.98 0.92,0.85 1.34,1.46 1.34,2.83l-29.95 0 0 -3.81zm0 -2.87l2.03 0c0.75,0 1.19,0.64 1.19,1.43l-3.22 0 0 -1.43zm-5.37 -5.01l0 22.79c0,0.56 0.27,0.84 0.83,0.84l3.94 0c0.28,0 0.6,-0.32 0.6,-0.6l0 -5.96 27.93 0 0 5.72c0,0.56 0.27,0.84 0.83,0.84l3.94 0c0.28,0 0.6,-0.32 0.6,-0.6l0 -8.71c0,-1.32 -0.92,-1.98 -1.91,-2.51 0,-3.18 -2.48,-5.37 -5.61,-5.37l-21.13 0c0,-1.7 -1.28,-2.86 -2.62,-2.86l-2.03 0 0 -3.94c0,-0.99 -0.72,-1.82 -1.51,-2.2 -2.03,-0.96 -3.86,0.63 -3.86,2.56z"/>
  </g>
 </g>
</svg>
