<?xml version="1.0" encoding="UTF-8"?>
<!DOCTYPE svg PUBLIC "-//W3C//DTD SVG 1.1//EN" "http://www.w3.org/Graphics/SVG/1.1/DTD/svg11.dtd">
<!-- Creator: CorelDRAW 2020 (64-Bit) -->
<svg xmlns="http://www.w3.org/2000/svg" xml:space="preserve" width="60px" height="60px" version="1.1" style="shape-rendering:geometricPrecision; text-rendering:geometricPrecision; image-rendering:optimizeQuality; fill-rule:evenodd; clip-rule:evenodd"
viewBox="0 0 60 60"
 xmlns:xlink="http://www.w3.org/1999/xlink"
 xmlns:xodm="http://www.corel.com/coreldraw/odm/2003">
 <defs>
  <style type="text/css">
   <![CDATA[
    .fil0 {fill:none}
    .fil1 {fill:#F97150}
    .fil2 {fill:#F97150}
   ]]>
  </style>
 </defs>
 <g id="Layer_x0020_1">
  <metadata id="CorelCorpID_0Corel-Layer"/>
  <rect class="fil0" width="60" height="60"/>
  <g id="_2906912505872">
   <path class="fil1" d="M180.69 107.29l56.48 0 0 1.99 -56.48 0 0 -1.99zm-1.76 3.05l0 -3.95c0.13,-1.13 0.66,-0.98 2.58,-0.98l0 -14.88c0,-0.57 0.37,-0.94 0.94,-0.94l7.5 0c0.56,0 0.93,0.37 0.93,0.94l0 5.62c0,1.32 -1.75,1.07 -1.75,0.24l0 -4.92 -5.75 0 0 13.94 5.75 0 0 -5.39c0,-0.51 0.89,-0.99 1.49,-0.44 0.5,0.46 0.26,4.53 0.26,5.83l5.75 0 0 -30.23c0,-0.43 0.32,-0.94 0.7,-0.94l7.85 0c0.55,0 0.82,0.27 0.82,0.82l0 11.95c0,1.18 -1.76,1.1 -1.76,-0.11l0 -10.9 -5.74 0 0 29.41 5.74 0 0 -14.29c0,-1.22 1.76,-1.3 1.76,-0.12l0 14.41 5.86 0 0 -22.26c0,-0.48 0.65,-0.71 1.17,-0.71l7.15 0c0.58,0 1.06,0.48 1.06,1.06l0 21.91 5.74 0 0 -24.84c0,-1.35 1.76,-1.03 1.76,-0.24l0 25.08 5.74 0 0 -35.27 -5.74 0 0 6.33c0,1.2 -1.76,0.99 -1.76,0.11l0 -7.38c0,-0.57 0.37,-0.94 0.94,-0.94l7.5 0c0.56,0 0.93,0.37 0.93,0.94l0 36.21c1.23,0 2.58,-0.23 2.58,0.94l0 3.99c0,0.28 -0.42,0.7 -0.7,0.7l-58.6 0c-0.28,0 -0.7,-0.42 -0.7,-0.7zm34.69 -26.02l5.74 0 0 21.09 -5.74 0 0 -21.09z"/>
   <path class="fil1" d="M186.43 81.98c-1.83,0 -3.05,-1.23 -3.05,-2.35 0,-1.3 -0.08,-1.66 0.91,-2.61 1.71,-1.65 4.58,-0.51 4.79,1.95 0.12,1.52 -1.18,3.01 -2.65,3.01zm27.19 -9.97c0,-1.37 1.22,-2.81 2.58,-2.81 4.59,0 3.77,5.82 0.24,5.72 -1.49,-0.04 -2.82,-1.31 -2.82,-2.91zm-12.19 -5.39c-3.82,0 -4.03,-5.74 0.12,-5.74 0.79,0 1.49,0.47 1.91,0.9 1.77,1.84 0.29,4.84 -2.03,4.84zm33.05 -9.14l0 0.7c0,1.2 -1.27,2.47 -2.46,2.47 -1.35,0 -2.51,-0.33 -3.04,-1.77 -0.84,-2.28 1.21,-4.53 3.64,-3.76 0.86,0.27 1.86,1.27 1.86,2.36zm-7.5 0.24c0,1.75 0.5,1.92 0.7,2.69 -0.45,0.24 -3.24,2.96 -4.25,3.84 -1.01,0.9 -3.22,3.25 -4.19,3.9 -0.57,-0.16 -2.44,-1.57 -4.8,-0.35 -0.16,0.09 -0.63,0.36 -0.79,0.5 -0.3,0.25 -0.4,0.44 -0.73,0.67l-1.78 -0.92c-0.32,-0.19 -0.49,-0.27 -0.84,-0.45l-4.42 -2.38c0.04,-1.48 0.67,-2.95 -1.31,-4.9 -2.19,-2.15 -5.94,-1.62 -7.48,1.49 -0.83,1.69 -0.43,3.09 0.36,4.58 -0.42,0.62 -4.37,4.34 -5.37,5.42 -0.96,1.03 -2.22,2.64 -3.31,3.37 -3.82,-2.03 -7.26,0.58 -7.26,3.98 0,3.94 4.76,6.3 7.94,3.37 1.66,-1.52 1.91,-4.13 0.61,-6.06l8.68 -8.79c1.1,0.58 1.84,0.88 3.38,0.68 1.08,-0.13 2.33,-0.88 2.83,-1.62l7.03 3.87c-0.12,1.4 -0.41,2.72 0.73,4.18 0.12,0.15 0.36,0.46 0.48,0.58 1.8,1.8 4.93,1.78 6.67,-0.04 1.6,-1.67 1.73,-3.79 0.67,-5.78l6.71 -6.3c0.51,-0.45 1.08,-1.19 1.61,-1.55 1.06,0.25 1.1,0.82 2.82,0.82 2.64,0 4.68,-2.06 4.68,-4.92 0,-2.29 -2.04,-4.45 -4.8,-4.45 -2.47,0 -4.57,2.09 -4.57,4.57z"/>
  </g>
  <g id="_2906912535248">
   <path class="fil2" d="M154.46 4.64c0.1,0.43 0.54,1.08 0.82,1.64 0.13,0.27 0.23,0.49 0.39,0.78 0.89,1.66 1.45,3.32 2.89,3.32 1.31,0 1.67,-1.17 2.15,-2.07 0.28,-0.52 1.28,-2.5 1.6,-2.73 0.12,0.52 0.42,0.83 0.67,1.32 0.78,1.57 1.51,3.48 2.85,3.48 0.77,0 1.25,-0.37 1.59,-0.87l2.63 -4.99c0.26,0.2 0.8,1.16 1.1,1.6 1.22,1.83 6.86,10.29 7.45,11.41l-32.81 0c0.72,-1.08 1.39,-2.15 2.13,-3.26l5.34 -8.13c0.39,-0.58 0.79,-1.39 1.2,-1.5zm23.79 5.51l1.82 -2.87c0.23,-0.3 0.03,-0.2 0.4,-0.3 0.1,0.41 2.01,3.23 2.46,3.88 0.24,0.34 0.9,0.81 1.41,0.81 1.3,0 1.81,-1.18 2.35,-1.99l1.75 -2.7c0.36,0.25 3.32,4.84 3.56,5.24l3.48 5.31 -12.54 0c-0.12,-0.43 -0.84,-1.37 -1.13,-1.8l-3.56 -5.58zm6.09 -3.63c-0.15,-0.58 -1.76,-2.62 -1.76,-2.93l1.88 -2.82c0.63,0.94 1.25,1.88 1.87,2.82 -0.33,0.49 -0.63,0.94 -0.98,1.47 -0.29,0.45 -0.64,1.19 -1.01,1.46zm-25.9 -1.88c-0.09,-0.42 -0.52,-1.2 -0.75,-1.59 -0.65,-1.08 -1.2,-1.78 -0.81,-2.42l5.31 -8.06c0.31,0.23 4.95,7.43 5.63,8.44 -0.32,0.59 -1.64,3.37 -1.99,3.63l-1.39 -2.72c-0.67,-1.1 -0.82,-2.08 -2.25,-2.08 -1.6,0 -1.99,1.82 -2.89,3.43 -0.16,0.3 -0.24,0.38 -0.39,0.67 -0.18,0.35 -0.16,0.47 -0.47,0.7zm-17.81 14.65c0,1.15 0.82,1.88 1.87,1.88l56.26 0c1.08,0 1.87,-0.71 1.87,-1.88 0,-0.83 -0.82,-1.83 -1.22,-2.41l-2.22 -3.4c-0.28,-0.42 -0.48,-0.72 -0.75,-1.13l-10.31 -15.7c-0.9,-1.36 -2.37,-1.6 -3.38,-0.05l-5.96 9.05c-0.26,0.4 -0.43,0.85 -0.77,1.1 -0.33,-0.24 -1.35,-1.91 -1.69,-2.41 -0.57,-0.87 -1.05,-1.64 -1.61,-2.49 -1.13,-1.69 -2.17,-3.31 -3.31,-5.01l-4.87 -7.43c-0.26,-0.39 -0.55,-0.9 -0.86,-1.26 -0.57,-0.7 -0.78,-0.74 -1.72,-0.74 -1.13,0 -2.23,2.29 -3.05,3.52l-2.65 4.03c-0.46,0.7 -0.85,1.28 -1.31,1.97l-13.2 20.09c-0.4,0.6 -1.12,1.53 -1.12,2.27z"/>
   <path class="fil2" d="M175.2 -15.75c0,-3.2 4.81,-3.43 4.81,0.12 0,2.93 -4.81,2.99 -4.81,-0.12zm-3.63 -0.47l0 0.59c0,3.08 2.77,5.86 5.86,5.86 3.61,0 6.21,-2.51 6.21,-6.33 0,-2.99 -2.76,-5.75 -5.74,-5.75 -2.05,0 -3.17,0.45 -4.52,1.7 -0.81,0.76 -1.81,2.43 -1.81,3.93z"/>
  </g>
  <g id="_2906912534768">
   <path class="fil2" d="M161.03 -60.13c-1.87,0 -6.82,-0.47 -8.09,-1.99 -1.13,-1.36 1.14,-8.48 8.09,-8.48 3.74,0 7.13,2.42 8.06,5.9 0.1,0.4 0.06,0.5 0.21,0.82 -0.55,0.15 -1.18,0.97 -1.58,1.39 -0.3,0.31 -0.37,0.46 -0.65,0.78 -0.24,0.27 -0.48,0.67 -0.71,0.84 -0.6,0.45 -4.13,0.74 -5.33,0.74zm28.95 -5.17c-0.79,-0.53 -3.26,-1.84 -4.39,-1.94l0 -0.26c1.35,-0.36 2.72,-2.79 3.36,-4 2.02,0 3.95,-0.1 5.77,-0.57 0.87,-0.22 1.07,-0.55 1.47,0.05 -1.17,0.56 -0.81,0.24 -2.12,1.11 -1.65,1.1 -3.92,3.58 -4.09,5.61zm-17.83 -6.2c0.21,0.4 0.37,0.79 0.62,1.19 0.53,0.85 1.84,2.57 2.74,2.81l0 0.26c-1.09,0.09 -3.63,1.43 -4.4,1.94 -0.16,-1.99 -2.44,-4.54 -4.08,-5.61 -0.34,-0.22 -0.66,-0.41 -0.96,-0.59 -0.41,-0.24 -0.75,-0.32 -1.16,-0.52 0.41,-0.62 0.55,-0.27 1.37,-0.08 2.08,0.5 3.56,0.6 5.87,0.6zm24.3 -4.66c0,-3.51 3.73,-4.98 6.11,-2.87 3.31,2.94 -1.03,8.69 -4.95,5.33 -0.51,-0.44 -1.16,-1.51 -1.16,-2.46zm-39.04 0.13c0,-1.71 0.56,-2.97 2.15,-3.66 1.42,-0.61 3.04,-0.27 4.03,0.72 3.23,3.23 -1.41,8.42 -4.98,5.37 -0.51,-0.44 -1.2,-1.53 -1.2,-2.43zm31.67 -8.01c1.43,0 3.22,0.52 4.13,1.04 1.17,0.66 2,1.47 2.85,2.45 -0.26,0.38 -0.64,0.75 -0.9,1.17 -1.44,2.34 -0.63,3.91 -0.52,5.16 -1.53,0.13 -2.57,0.65 -5.17,0.65 0.32,-1.38 0.04,-5.56 -1.55,-5.56 -0.87,0 -1.22,0.73 -1.03,1.41 0.51,1.8 0.51,1.12 0.51,3.25 0,3.46 -3.15,6.46 -6.98,6.46 -3.46,0 -6.72,-3.03 -6.72,-6.46 0,-1.41 0,-2.25 0.64,-3.5l1 -1.45c0.08,-0.09 0.11,-0.13 0.19,-0.21l0.18 -0.2c2.08,-2.08 5.14,-2.65 7.94,-1.24 1.71,0.85 1.66,1.55 2.59,1.55 0.75,0 1.87,-0.99 0.13,-2.32 -0.44,-0.34 -0.81,-0.76 -1.43,-0.91 0.15,-0.56 1.18,-0.78 1.78,-0.93 0.55,-0.14 1.65,-0.36 2.36,-0.36zm-17.58 8.92c0,1 -0.06,0.71 0.13,1.55 -2.65,0 -3.57,-0.51 -5.17,-0.65 0.04,-0.53 0.23,-1.06 0.32,-1.75 0.31,-2.2 -1.1,-3.62 -1.74,-4.58 0.75,-0.87 1.66,-1.84 2.75,-2.42 2.27,-1.2 5.13,-1.43 7.55,-0.38 0.87,0.37 0.71,0.21 0.81,0.6 -1.86,0.43 -4.65,4.26 -4.65,7.63zm13.96 -14.61c0,-4.73 7.24,-5.21 7.24,0.26 0,1.31 -1.01,2.52 -2.15,3.02 -1.45,0.62 -2.89,0.29 -4.02,-0.73 -0.53,-0.48 -1.07,-1.56 -1.07,-2.55zm-13.44 3.62c-1.69,0 -3.62,-1.48 -3.62,-3.36 0,-1.22 0.15,-2.14 1.13,-3.01 2.3,-2.05 6.11,-0.63 6.11,2.75 0,2.09 -1.85,3.62 -3.62,3.62zm-5.82 -3.75c0,0.91 0.27,1.86 0.57,2.54 0.16,0.34 0.4,0.69 0.59,0.95 0.27,0.38 0.53,0.53 0.78,0.91 -1.09,0.57 -1.35,0.44 -2.73,1.53 -0.41,0.32 -0.84,0.63 -1.18,1.02 -0.3,0.34 -0.69,0.97 -1,1.2 -1.76,-0.41 -2.93,-0.76 -4.83,0.21 -1.11,0.56 -2.15,1.64 -2.67,2.76 -0.89,1.9 -0.52,4.19 0.64,5.82 0.27,0.37 0.53,0.53 0.78,0.9 -1.89,0.91 -2.89,1.29 -4.43,3.19 -1.49,1.83 -3.53,6.4 -0.96,8.54 2.53,2.1 6.88,2.23 10.3,2.23 1.16,0 1.88,-0.18 2.85,-0.26 -0.12,0.51 -0.7,1.62 -0.98,2.9 -0.57,2.57 -0.82,4.24 0.54,6.21 1.24,1.8 3.15,2.31 3.15,0.33 0,-0.92 -1.94,-0.78 -1.94,-3.49 0,-4.36 2.67,-8.52 6.18,-10.89 0.72,-0.49 1.4,-0.86 2.26,-1.23 3.19,-1.35 4.05,-1.32 7.46,-1.32 3.66,0 6.86,1.82 9.53,4.04 2.27,1.89 4.3,6.11 4.3,9.4 0,2.31 -1.65,3.12 -3.87,4.01 -1.78,0.7 -3.8,1.02 -6.02,1.35 -1.22,0.18 -2.15,0.1 -3.41,0.2 -2.8,0.23 -1.74,-0.02 -3.5,-0.01 -1.2,0.01 -2.33,-0.1 -3.37,-0.24l-3.22 -0.53c-0.82,0 -1.25,1.1 -0.73,1.76 0.82,1.04 8.27,1.21 10.16,1.21 4.62,0 12.81,-0.96 15.44,-4.98 1.91,-2.92 -0.43,-7.54 -0.7,-8.72 3.81,0.32 7.01,0.62 10.89,-0.74 1.43,-0.5 3.46,-1.72 3.46,-3.52 0,-1.66 -0.16,-2.72 -0.86,-4.18 -2.06,-4.29 -3.19,-1.71 -3.1,-1.17 0.04,0.25 2.66,4.06 1.69,5.66 -0.26,0.42 -1.03,0.86 -1.53,1.06 -1.88,0.74 -4.51,1.08 -6.67,1.08 -1.14,0 -4.64,-0.31 -5.26,-0.69l-1.37 -1.6c-0.34,-0.38 -1.21,-1.34 -1.65,-1.46 0.52,-2.19 1.23,-3.38 2.69,-4.68 2.53,-2.26 6.58,-2.63 9.64,-1.05 0.44,0.23 0.76,0.56 1.25,0.56 0.87,0 1.03,-0.62 1.03,-1.29 0,-0.73 -1.85,-1.39 -2.45,-1.68 0.54,-0.81 1.93,-1.82 1.93,-4.27 0,-3.11 -2.66,-5.81 -5.3,-5.81 -2.01,0 -1.07,0 -2.71,0.39 -0.63,-0.46 -0.64,-1.36 -3.41,-3.05 -0.53,-0.33 -1,-0.44 -1.5,-0.7 0.51,-0.77 1.94,-1.77 1.94,-4.27 0,-6.36 -8.83,-8.14 -11.2,-2.15 -0.64,1.63 -0.46,3.7 0.52,5.2 0.33,0.49 0.71,0.81 0.98,1.22 -1.11,0.59 -1.31,0.51 -2.49,1.39 -0.62,0.47 -0.34,0.16 -1,0.16l-2.33 0c-0.61,0 -0.36,0.29 -0.92,-0.1 -1.85,-1.26 -0.97,-0.61 -2.56,-1.45 0.54,-0.82 1.18,-1.1 1.63,-2.64 1.16,-3.98 -2.01,-7.45 -5.12,-7.45 -2.03,0 -3.15,0.37 -4.56,1.78 -0.84,0.84 -1.65,2.3 -1.65,3.91z"/>
   <path class="fil2" d="M169.04 -46.3c1.78,0 1.78,-2.06 0,-2.06 -1.08,0 -1.08,2.06 0,2.06z"/>
  </g>
  <g id="_2906912535584">
   <path class="fil2" d="M204.39 -134.5l0 -17.63 4 0 0 17.63c0,3.12 -4,3.12 -4,0zm-49 0l0 -17.63 4 0 0 17.63c0,3.12 -4,3.12 -4,0zm45 -38.13c0,-4.46 3.04,-7.5 7.5,-7.5l0.5 0 0 26 -8 0 0 -18.5zm-40 8.5c1.38,-0.32 2.24,-0.76 3.02,-1.73 1.17,-1.46 0.89,-2.56 0.97,-3.9 0.03,-0.56 0.03,-0.47 0.34,-0.78 0.24,-0.24 0.39,-0.39 0.63,-0.62 0.28,-0.27 0.35,-0.28 0.62,-0.51 0.28,-0.23 0.38,-0.36 0.67,-0.59 6.23,-4.83 14.83,-6.39 22.24,-3.12 1.15,0.51 2.19,0.99 3.21,1.67l3.95 3.17c2.58,2.57 2.35,2.68 2.35,4.91l-0.01 12.01c-0.01,1.88 0.65,1.49 3.76,1.49 -0.02,1.01 -0.66,3.15 -0.95,4.05 -1.38,4.15 -4,7.79 -7.48,10.4 -3.48,2.6 -6.56,3.76 -10.87,4.38 -3.5,0.5 -7.84,-0.21 -10.95,-1.58 -3.56,-1.57 -5.6,-3.1 -8.1,-5.9l-1.68 -2.2c-0.44,-0.66 -0.74,-0.8 -0.73,-1.89l0.01 -7.64c0.01,-1.03 -0.03,-1.54 -1,-1.62l0 -10zm-4 0l2 0 0 10 -2 0 0 -10zm-4 -4.75c0.38,0.09 0.4,0.16 0.84,0.28 2.05,0.56 5.1,0.65 7.19,0.26 1.04,-0.2 1.42,-0.41 1.97,-0.54 -0.29,3.39 -3.42,2.75 -6.88,2.75 -2.06,0 -2.89,-0.96 -3.12,-2.75zm-2 0.37c0,2.44 1.87,3.89 4,4.38l0 10c-0.62,0.05 -1,0.35 -1,1l0 19.25c0,2.01 1.97,3.75 3.62,3.75 1.22,0 2.1,-0.1 3.1,-1.03 0.58,-0.53 1.11,-1.38 1.25,-2.25 0.23,-1.43 0.03,-5.28 0.03,-6.97 1.73,2 3.03,3.43 5.2,4.93 3.29,2.27 8.18,4.32 12.92,4.32l1.75 0c5.01,0 10.24,-2.34 13.15,-4.48 2.99,-2.21 5.42,-4.91 7.19,-8.19 0.23,-0.42 0.49,-1.11 0.79,-1.45 0,3.12 0,6.25 0,9.37 0,1.96 -0.18,2.71 0.64,3.98 1.39,2.12 4.44,2.39 6.21,0.62 0.49,-0.49 1.15,-1.54 1.15,-2.47l0 -47.38c0,-1.37 -1.72,-1 -3.63,-1 -3.49,0 -7,2.94 -8.04,6.45 -0.44,1.46 -0.33,2.74 -0.33,4.55 -0.55,-0.37 -1.1,-1.03 -1.6,-1.53 -1.41,-1.42 -3.69,-2.99 -5.49,-3.89 -8.55,-4.25 -18.03,-3.23 -25.65,2.44 -0.52,0.39 -1,0.88 -1.51,1.23l-0.26 -5.12c-0.05,-0.63 -0.09,-1.73 -0.19,-2.43 -0.17,-1.25 0.02,-1.7 -1.3,-1.7 -0.36,0 -0.68,0.43 -0.76,0.74 -0.12,0.4 0.57,10.13 0.63,10.26 -1.04,0.55 -2.28,0.87 -3.87,0.87l0 -10.87c0,-1.34 -2,-1.34 -2,0l0 10.87c-1.6,0 -2.84,-0.32 -3.88,-0.87 0.26,-0.53 0.26,-4.74 0.41,-5.84l0.25 -4.33c-0.23,-1.17 -1.87,-1.11 -2.02,0.06 -0.23,1.67 -0.76,11.62 -0.76,12.73z"/>
   <path class="fil2" d="M180.39 -141.13c-2.03,0 -5.25,-0.8 -6.9,-1.85 -6.3,-3.97 -8.77,-10.65 -5.84,-17.88 1.14,-2.81 4.2,-5.87 7,-7 5.69,-2.31 11.32,-1.38 15.58,2.89 1.2,1.2 1.44,1.57 2.31,2.94 0.24,0.38 0.42,0.77 0.58,1.17 2.28,5.61 1.38,11.31 -2.89,15.57 -1.16,1.16 -1.51,1.46 -2.96,2.29 -0.41,0.24 -0.68,0.42 -1.15,0.61 -1.74,0.7 -3.74,1.26 -5.73,1.26zm-16 -14.75c0,3.29 0.21,4.71 1.5,7.62 2.23,5.03 8.13,9.13 13.75,9.13 3.28,0 4.71,-0.21 7.62,-1.5 5.03,-2.23 9.13,-8.13 9.13,-13.75 0,-3.29 -0.21,-4.71 -1.5,-7.62 -2.23,-5.03 -8.14,-9.13 -13.75,-9.13 -3.29,0 -4.71,0.21 -7.63,1.5 -5.03,2.23 -9.12,8.13 -9.12,13.75z"/>
  </g>
  <g id="_2906912532080">
   <path class="fil2" d="M338.55 -3.71c0.44,0.24 1.08,0.73 1.55,0.84l0 28.41 -1.55 0 0 -29.25zm-50.37 1.2c0,-0.34 0.48,-0.53 0.76,-0.68 0.38,-0.2 0.57,-0.33 0.91,-0.52l0 29.25 -1.67 0 0 -28.05zm-2.5 -0.48l0 -1.79 26.66 -15.58c0.5,-0.3 1.34,-0.89 1.86,-1.01 0.56,0.37 1.11,0.65 1.72,1.02l21.34 12.44c0.32,0.2 0.59,0.33 0.91,0.53l4.56 2.6 0 1.79c-0.4,-0.09 -5.39,-3.05 -6.23,-3.56l-8.07 -4.7c-3.75,-2.27 -7.81,-4.47 -11.54,-6.73 -3.62,-2.19 -2.18,-1.85 -6.43,0.51l-8.79 5.17c-0.33,0.18 -0.55,0.32 -0.9,0.53l-7.98 4.68c-0.55,0.31 -6.61,3.98 -7.11,4.1zm-1.44 -1.91c0,1.6 -0.4,4.4 1.07,3.83 0.35,-0.13 1.13,-0.64 1.44,-0.85l0 25.9c0,3.55 -0.57,2.99 3.94,2.99 0.28,0 0.35,-0.19 0.59,-0.36l0 -31.15 2.84 -1.7c1.71,-1.02 19.45,-11.52 20.08,-11.67 2.18,1.46 8.97,5.19 11.45,6.69 2.23,1.34 8.93,5.34 11.47,6.68l0 23.63c0,1.91 -0.23,6.28 0.12,7.76 0.9,0.21 3.27,0.21 4.17,0 0.3,-1.25 0.12,-12.11 0.12,-14.32 0,-4.82 0,-9.63 0,-14.45 0.44,0.12 2.63,1.94 2.63,0 0,-0.72 0.14,-3.02 -0.15,-3.55 -0.24,-0.44 -0.89,-0.67 -1.33,-0.93 -0.68,-0.4 -1.21,-0.71 -1.9,-1.09l-9.41 -5.5c-0.35,-0.22 -0.62,-0.35 -0.99,-0.57 -0.39,-0.23 -0.58,-0.35 -0.98,-0.57l-7.54 -4.4c-0.65,-0.39 -1.21,-0.7 -1.88,-1.1l-1.88 -1.1c-4.9,-2.67 -2.82,-3 -7.77,-0.09 -8.11,4.76 -16.51,9.57 -24.53,14.38 -0.89,0.53 -1.56,0.67 -1.56,1.54z"/>
   <path class="fil2" d="M298.56 19.93l0 5.61 -2.5 0 0 -22.32c0,-1.41 1.93,-1.8 2.43,-0.52 0.2,0.51 0.07,1.35 0.07,1.95l0 10.15c0,1.09 -0.09,0.98 0.36,1.67l29.84 0c1.37,0 3.11,-0.16 3.11,1.19l0 7.88 -2.51 0c0,-1.43 0.15,-5.17 -0.12,-6.33 -0.29,-0.14 -0.52,-0.24 -0.96,-0.24l-28.76 0c-0.58,0 -0.96,0.38 -0.96,0.96zm1.44 -8.72l25.78 0c1.2,0 2.2,0.39 2.84,0.99 0.91,0.85 1.34,1.46 1.34,2.83l-29.96 0 0 -3.82zm0 -2.86l2.03 0c0.75,0 1.19,0.63 1.19,1.43l-3.22 0 0 -1.43zm-5.37 -5.01l0 22.79c0,0.56 0.27,0.84 0.83,0.84l3.94 0c0.28,0 0.6,-0.32 0.6,-0.6l0 -5.97 27.93 0 0 5.73c0,0.56 0.28,0.84 0.83,0.84l3.94 0c0.28,0 0.6,-0.32 0.6,-0.6l0 -8.71c0,-1.32 -0.92,-1.98 -1.91,-2.51 0,-3.18 -2.48,-5.37 -5.61,-5.37l-21.13 0c0,-1.7 -1.28,-2.86 -2.62,-2.86l-2.03 0 0 -3.94c0,-0.99 -0.72,-1.82 -1.51,-2.2 -2.03,-0.97 -3.86,0.63 -3.86,2.56z"/>
  </g>
  <g id="_2906912533712">
   <path class="fil2" d="M24.73 34.57c0,2.09 0.2,3.47 1.39,5.17 1.73,2.51 4.16,3.62 7.4,3.62 1.95,0 9.49,-0.21 10.76,0.25 1.24,0.44 2.36,1.44 2.82,2.69 0.56,1.56 0.3,3.11 -0.48,4.31 -0.6,0.92 -2,2.01 -3.49,2.01l-25.32 0 0 3.63 25.08 0c4.25,0 8.09,-3.74 8.09,-7.97 0,-2.86 -1.08,-5.03 -2.85,-6.53 -2.05,-1.73 -3.94,-2.02 -6.76,-2.02 -2.91,0 -5.9,0.07 -8.8,0 -3.49,-0.08 -5.95,-4.76 -2.96,-7.89 0.69,-0.72 1.95,-1.37 3.32,-1.37l9.26 0 0 -3.63 -8.79 0c-3.36,0 -6.3,1.56 -7.78,4.53 -0.44,0.88 -0.89,1.93 -0.89,3.2z"/>
   <path class="fil2" d="M49.1 26.13c-0.41,-0.61 -0.58,-0.73 -1.08,-1.26l-1.13 -1.33c-1.89,-2.4 -4.94,-6.25 -4.94,-9.6 0,-5.9 6.7,-9.2 11.3,-6.02l1.04 0.83c1.2,1.15 2.19,3.32 2.19,5.08 0,3.81 -3.73,8.24 -6.12,11.1 -0.31,0.37 -0.89,0.96 -1.26,1.2zm0.12 4.92c0.96,-0.64 2.77,-2.72 3.43,-3.36 2.8,-2.75 7.35,-9.35 7.35,-13.16l0 -1.17c0,-5.26 -5.11,-10.2 -10.08,-10.2 -2.49,0 -3.95,0.11 -6.1,1.4 -2.53,1.52 -4.57,3.96 -5.18,7.01 -0.36,1.8 -0.36,3.62 0.22,5.35 1.06,3.16 2.41,5.23 4.38,7.81 1.23,1.61 4.6,5.4 5.98,6.32z"/>
   <path class="fil2" d="M3.52 39.73c0,-0.99 0.35,-2.23 0.66,-2.97 0.29,-0.67 0.99,-1.69 1.47,-2.17l0.96 -0.79c5.04,-3.5 11.44,0.38 11.44,5.81 0,3.25 -2.95,7.34 -4.89,9.65l-1.12 1.34c-0.46,0.5 -0.76,0.74 -1.14,1.32 -1.25,-0.84 -4.48,-5.18 -5.43,-6.76 -0.34,-0.58 -0.56,-0.99 -0.86,-1.6 -0.43,-0.86 -1.09,-2.63 -1.09,-3.83zm-3.52 -0.59c0,2.74 0.38,3.92 1.6,6.37 0.97,1.93 3.3,5.34 4.88,6.96 1.17,1.2 1.86,2.32 3.38,3.53 0.36,0.28 0.55,0.59 0.92,0.84l1.61 -1.44c0.48,-0.48 1.1,-1.01 1.51,-1.54 0.29,-0.39 0.39,-0.47 0.72,-0.8l2.09 -2.48c2.88,-3.7 5.66,-8.15 4.67,-13.13 -0.92,-4.61 -5.41,-8.5 -9.9,-8.5 -2.06,0 -3.53,0.04 -5.41,1.03 -3.33,1.77 -6.07,5.16 -6.07,9.16z"/>
   <path class="fil2" d="M7.27 39.73c0,0.99 0.46,1.9 0.96,2.43 1.9,2.02 6.07,1.29 6.07,-2.79 0,-0.87 -0.61,-1.73 -1.08,-2.2 -2.09,-2.06 -5.95,-0.65 -5.95,2.56z"/>
   <path class="fil2" d="M45.7 13.59c0,4.07 4.17,4.81 6.07,2.79 1.98,-2.09 0.79,-5.95 -2.67,-5.95 -0.98,0 -1.8,0.46 -2.32,0.96 -0.47,0.47 -1.08,1.33 -1.08,2.2z"/>
  </g>
 </g>
</svg>
