<?xml version="1.0" encoding="UTF-8"?>
<!DOCTYPE svg PUBLIC "-//W3C//DTD SVG 1.1//EN" "http://www.w3.org/Graphics/SVG/1.1/DTD/svg11.dtd">
<!-- Creator: CorelDRAW 2020 (64-Bit) -->
<svg xmlns="http://www.w3.org/2000/svg" xml:space="preserve" width="60px" height="60px" version="1.1" style="shape-rendering:geometricPrecision; text-rendering:geometricPrecision; image-rendering:optimizeQuality; fill-rule:evenodd; clip-rule:evenodd"
viewBox="0 0 60 60.03"
 xmlns:xlink="http://www.w3.org/1999/xlink"
 xmlns:xodm="http://www.corel.com/coreldraw/odm/2003">
 <defs>
  <style type="text/css">
   <![CDATA[
    .fil0 {fill:none}
    .fil1 {fill:#F97150}
   ]]>
  </style>
 </defs>
 <g id="Layer_x0020_1">
  <metadata id="CorelCorpID_0Corel-Layer"/>
  <rect class="fil0" y="0.01" width="60" height="60"/>
  <g id="_2906912530112">
   <path class="fil1" d="M29.88 41.39c-0.42,-0.78 -7.41,-9.55 -8.45,-10.91l-3.63 -4.69c-5.59,-7.77 -2.18,-19.49 7.66,-22.7 4.81,-1.57 10.54,-0.38 14.18,2.86l1.12 1.11c2.78,3.03 4.66,7.1 3.96,12 -0.8,5.61 -3.69,8 -6.6,11.93 -0.45,0.6 -0.88,1.13 -1.34,1.7l-4.1 5.28c-0.46,0.6 -2.35,3.11 -2.8,3.42zm-9.03 -7.63c-1.62,0.04 -5.37,1.01 -6.92,1.41 -2.26,0.59 -5.37,1.71 -7.39,2.93 -1.47,0.88 -2.42,1.54 -3.71,2.62 -0.7,0.57 -1.44,1.53 -1.87,2.34 -1.57,2.95 -1.18,5.82 0.92,8.38 5.33,6.51 19.46,8.59 26.71,8.59 5.99,0 11,-0.38 16.62,-1.79 2.68,-0.66 5.23,-1.54 7.64,-2.79 0.52,-0.27 1.09,-0.64 1.63,-0.96 0.61,-0.37 0.99,-0.69 1.59,-1.1 0.35,-0.24 0.4,-0.32 0.68,-0.61 0.98,-0.98 0.85,-0.63 1.87,-2 1.95,-2.63 1.77,-6 -0.15,-8.56 -1.62,-2.16 -4.07,-3.83 -6.55,-4.94 -0.97,-0.42 -3.58,-1.52 -4.57,-1.52 -0.96,0 -1.37,1.72 -0.08,2.3l4.34 1.76 2.47 1.52c1.64,1.13 3.1,2.51 3.47,4.62 0.22,1.26 -0.17,2.27 -0.73,3.14 -1.56,2.43 -4.37,4.04 -6.99,5.08 -4.33,1.73 -8.46,2.53 -13.07,3.12 -0.89,0.11 -6.69,0.48 -7.67,0.35l-3.9 -0.21c-1.28,0 -2.45,-0.21 -3.64,-0.34 -3.92,-0.43 -7.78,-1.49 -11.3,-2.88l-2.69 -1.31c-0.52,-0.26 -0.82,-0.49 -1.3,-0.81 -1.21,-0.81 -2.23,-1.69 -3.05,-2.93 -2.38,-3.64 0.88,-6.81 3.83,-8.58 3.57,-2.16 7.89,-3.41 12.07,-4.11 1.02,-0.18 2.55,-0.49 3.62,-0.49 0.51,0.77 1.1,1.43 1.67,2.2 0.31,0.41 0.56,0.72 0.88,1.11 0.32,0.4 0.55,0.73 0.87,1.12l2.57 3.29c0.46,0.6 0.67,0.84 1.51,0.84 0.57,0 2.61,-2.86 2.98,-3.35 0.33,-0.44 0.65,-0.77 0.89,-1.22 0.34,0.16 2.74,0.38 3.28,0.47 1.53,0.25 7.97,1.6 7.97,3.75 0,1.4 -3.25,2.53 -4.49,2.89 -2.1,0.61 -4.02,0.86 -6.23,1.16 -1.14,0.16 -2.3,0.15 -3.47,0.16 -0.6,0.01 -0.68,0.13 -1.17,0.13 -0.48,0 -0.48,-0.11 -1.05,-0.12 -1.2,-0.04 -2.4,0 -3.59,-0.17 -1.51,-0.21 -2.85,-0.31 -4.27,-0.65 -2.11,-0.51 -9.44,-2.43 -5.05,-5.05 0.48,-0.28 1.42,-0.68 1.42,-1.4 0,-0.6 -0.49,-1.29 -1.06,-1.29 -0.96,0 -2.1,0.96 -2.7,1.41 -2.38,1.78 -1.9,4.7 0.92,6.47 6.13,3.83 19.81,3.94 26.65,1.75 2.66,-0.85 6.55,-2.13 6.55,-5.53 0,-2.28 -2.84,-3.74 -4.58,-4.43 -1.14,-0.46 -2.17,-0.74 -3.41,-1.05 -1.26,-0.32 -2.6,-0.44 -3.85,-0.73 0.14,-0.52 1.32,-1.78 1.66,-2.21 1.76,-2.2 5.49,-6.86 6.74,-8.74 3.93,-5.89 3.76,-13.78 -0.31,-19.53 -0.84,-1.2 -1.8,-2.22 -2.9,-3.2 -0.36,-0.32 -0.82,-0.62 -1.2,-0.91 -2.32,-1.75 -5.91,-3.16 -9.15,-3.16 -1.72,0 -3.35,0.08 -5.01,0.49 -1.82,0.45 -3.49,1.25 -5.07,2.2 -1.09,0.65 -2.13,1.47 -3.02,2.38 -2.36,2.41 -3.6,4.95 -4.55,8.23 -0.55,1.88 -0.55,4.47 -0.26,6.5 0.56,3.94 2.43,6.83 4.77,9.76 0.39,0.5 3.03,3.65 3.18,4.2z"/>
   <path class="fil1" d="M19.44 16.88c0,2.78 0.38,4.66 2.03,6.89 3.81,5.14 11.35,5.84 15.82,1.35 0.89,-0.89 1.64,-1.75 2.17,-2.99 0.78,-1.83 1.09,-2.54 1.09,-4.78 0,-0.87 -0.22,-2.35 -0.47,-2.94 -0.36,-0.84 -1.51,-1.07 -2.06,-0.28 -0.73,1.06 0.76,2.67 -0.21,5.64 -2.13,6.48 -9.49,7.61 -13.61,3.49 -5.56,-5.56 -0.65,-13.88 5.21,-13.88l1.29 0c0.76,0 1.38,0.36 1.99,0.34 1.2,-0.05 2.9,-2.8 -2.81,-2.8 -2.23,0 -5,0.99 -6.54,2.37 -1.23,1.11 -1.92,1.68 -2.85,3.48 -0.47,0.93 -1.05,2.71 -1.05,4.11z"/>
   <path class="fil1" d="M35.39 10.9c0,1.48 2.46,1.55 2.46,0 0,-0.98 -1.26,-1.64 -2.07,-0.89 -0.17,0.16 -0.39,0.64 -0.39,0.89z"/>
   <path class="fil1" d="M41.13 35.41c0,1.63 2.46,1.78 2.46,0.11 0,-1.07 -1.34,-1.55 -2.02,-0.85 -0.11,0.1 -0.44,0.63 -0.44,0.74z"/>
   <path class="fil1" d="M19.91 40.92c1.69,0 1.69,-2.35 0,-2.35 -1.48,0 -1.45,2.35 0,2.35z"/>
  </g>
 </g>
</svg>
