<?xml version="1.0" encoding="UTF-8"?>
<!DOCTYPE svg PUBLIC "-//W3C//DTD SVG 1.1//EN" "http://www.w3.org/Graphics/SVG/1.1/DTD/svg11.dtd">
<!-- Creator: CorelDRAW 2020 (64-Bit) -->
<svg xmlns="http://www.w3.org/2000/svg" xml:space="preserve" width="60px" height="60px" version="1.1" style="shape-rendering:geometricPrecision; text-rendering:geometricPrecision; image-rendering:optimizeQuality; fill-rule:evenodd; clip-rule:evenodd"
viewBox="0 0 60 60.38"
 xmlns:xlink="http://www.w3.org/1999/xlink"
 xmlns:xodm="http://www.corel.com/coreldraw/odm/2003">
 <defs>
  <style type="text/css">
   <![CDATA[
    .fil0 {fill:none}
    .fil1 {fill:#F97150}
   ]]>
  </style>
 </defs>
 <g id="Layer_x0020_1">
  <metadata id="CorelCorpID_0Corel-Layer"/>
  <rect class="fil0" y="0.19" width="60" height="60"/>
  <g id="_2906831989664">
   <path class="fil1" d="M11.7 19.62l-2.36 -2.29 -1.44 1.51c0.86,0.59 2.46,2.44 3.33,3.26 0.71,0.68 0.47,0.94 0.47,2.81 0,1.13 0,2.26 0,3.39l-4.53 -2.64c-0.72,-0.42 -0.59,-0.84 -1.01,-2.52 -0.16,-0.66 -0.51,-2.38 -0.75,-2.89 -0.67,0.16 -1.34,0.35 -2.01,0.51 0.23,1 0.52,2.01 0.75,3.01 -0.74,-0.2 -1.48,-1.06 -2.26,-1.13 -0.17,0.62 -0.73,1.07 -0.88,1.64 0.36,0.49 1.65,0.88 2.01,1.38 -1.01,0.24 -2.01,0.52 -3.02,0.76 0.16,0.67 0.35,1.33 0.5,2.01l4.26 -1.04c1.25,-0.33 0.85,-0.24 2.39,0.68 0.4,0.25 0.68,0.41 1.1,0.66l2.32 1.59 -4.43 2.62c-0.52,0.35 -0.61,0.25 -1.28,0.07l-4.36 -1.06c-0.15,0.67 -0.34,1.34 -0.5,2.01 1.01,0.24 2.01,0.52 3.02,0.76 -0.36,0.49 -1.65,0.88 -2.01,1.38 0.15,0.57 0.71,1.02 0.88,1.64 0.78,-0.07 1.52,-0.94 2.26,-1.14 -0.23,1.01 -0.52,2.01 -0.75,3.02 0.67,0.16 1.34,0.35 2.01,0.51l1.08 -4.21c0.32,-1.36 0.22,-0.91 2.89,-2.51l2.32 -1.33 0 4.91c0.01,0.87 0.07,0.77 -0.4,1.22 -0.86,0.83 -2.56,2.75 -3.38,3.3l1.42 1.48 2.33 -2.26 0.03 2.54 2.01 0 0 -2.51 2.3 2.23 1.5 -1.45c-0.86,-0.59 -2.46,-2.44 -3.33,-3.27 -0.71,-0.67 -0.47,-0.93 -0.47,-2.8 0,-1.13 0,-2.26 0,-3.39l4.53 2.64c0.72,0.42 0.59,0.84 1,2.51 0.17,0.67 0.52,2.39 0.76,2.9 0.56,-0.13 1.57,-0.3 2.01,-0.51 -0.23,-1.01 -0.52,-2.01 -0.75,-3.02 0.74,0.2 1.48,1.07 2.26,1.14 0.15,-0.57 0.72,-1.02 0.88,-1.64 -0.35,-0.48 -1.31,-0.77 -2.01,-1.38 1.01,-0.24 2.01,-0.52 3.02,-0.76 -0.16,-0.67 -0.35,-1.34 -0.5,-2.01l-4.23 1.06c-0.75,0.2 -0.74,0.31 -1.32,-0.04l-3.3 -1.99c-0.37,-0.22 -0.83,-0.56 -1.22,-0.66l4.44 -2.87c0.76,-0.47 1.16,-0.14 2.71,0.25 0.92,0.23 1.95,0.5 2.92,0.73 0.15,-0.68 0.34,-1.34 0.5,-2.01 -1.01,-0.24 -2.01,-0.52 -3.02,-0.76 0.69,-0.6 1.66,-0.9 2.01,-1.38 -0.16,-0.62 -0.73,-1.07 -0.88,-1.64 -0.78,0.07 -1.52,0.93 -2.26,1.13 0.23,-1 0.52,-2.01 0.75,-3.01 -0.44,-0.22 -1.45,-0.38 -2.01,-0.51l-1.08 4.2c-0.32,1.36 -0.22,0.92 -2.89,2.52 -0.41,0.25 -0.69,0.42 -1.1,0.66 -0.37,0.23 -0.83,0.57 -1.22,0.67l-0.01 -4.91c-0.01,-0.93 -0.03,-0.8 0.48,-1.29 0.75,-0.71 2.83,-2.66 3.3,-3.36l-1.48 -1.41 -2.26 2.32 -0.03 -2.54 -2.01 0 0 2.51z"/>
   <path class="fil1" d="M47.92 21.13c0.59,0 1.74,0.4 2.12,0.65 3.34,2.16 1.21,5.57 1.15,5.77 0.23,0.34 1.24,1.04 1.64,1.26 0.46,-0.88 0.72,-1.64 2.14,-1.64 2.54,0 4.11,3.29 2.05,5.19 -0.52,0.48 -1.35,0.85 -2.3,0.85l-13.59 0c-2.98,0 -4.23,-3.26 -2.36,-5.13 1.77,-1.77 4.89,-0.79 5.13,2.11l2.01 0c0,-1.26 -0.31,-2.2 -0.98,-3.04 -0.43,-0.54 -1.28,-0.84 -0.94,-2.53 0.42,-2.1 2.02,-3.49 3.93,-3.49zm-6.03 3.52l0 0.51 -1.39 0c-2.32,0 -4.65,2.33 -4.65,4.65l0 0.76c0,2.32 2.33,4.65 4.65,4.65l14.85 0c2.32,0 4.65,-2.33 4.65,-4.65l0 -0.76c0,-2.32 -2.33,-4.65 -4.65,-4.65l-1.39 0c0,-2.41 -1.24,-4.43 -3.35,-5.46 -2.27,-1.11 -5.2,-0.66 -7,1.14 -0.87,0.87 -1.72,2.5 -1.72,3.81z"/>
   <path class="fil1" d="M20.38 53.21l1.35 -1.42 0.03 1.54 2.01 0 0 -2.51c0.48,0.32 0.8,0.75 1.23,1.16 0.72,0.68 0.54,0.56 0.54,1.86 -0.01,1.4 0.19,3.38 0.62,4.27 -1.62,-0.03 -3.77,-1.69 -4.83,-3.08 -0.29,-0.38 -0.31,-0.41 -0.54,-0.86l-0.41 -0.96zm3.49 -5.25c0.22,-0.83 0.49,-1.57 0.66,-2.3 2.63,1.4 1.71,3.63 1.63,4.53l-2.29 -2.23zm-4.12 2.86c0,-1.44 -0.09,-2.67 0.37,-3.66 0.39,-0.84 1.26,-1.52 2.27,-1.75 -0.05,0.58 -0.3,0.96 -0.43,1.58 -0.48,2.21 0.39,1.29 -1.17,2.85 -0.36,0.36 -0.64,0.71 -1.04,0.98zm3.77 -7.55c-1.62,0 -2.67,0.19 -3.99,1.29 -2.08,1.74 -1.79,3.98 -1.79,6.26 0,2.91 1.82,5.77 3.43,7.13 2.68,2.27 4.94,2.43 8.26,2.43 -0.28,-1.24 -2.71,-3.87 -1.53,-8.84 0.37,-1.57 0.96,-2.76 0.33,-4.55 -0.51,-1.42 -1.24,-2.39 -2.57,-3.09 0.56,-0.83 0.93,-1.21 1.76,-1.76 -0.3,-0.58 -0.76,-1.08 -1.13,-1.64 -0.93,0.22 -2.26,2.01 -2.77,2.77z"/>
   <path class="fil1" d="M32.2 51.95c0,-0.72 0.2,-0.9 0.25,-1.51l2.3 2.23c-0.22,0.83 -0.49,1.57 -0.66,2.3 -1.14,-0.61 -1.89,-1.57 -1.89,-3.02zm4.03 3.27c0.05,-0.59 0.3,-0.95 0.43,-1.58 0.45,-2.19 -0.37,-1.31 1.17,-2.85 0.36,-0.36 0.63,-0.71 1.04,-0.98 0,2.16 0.23,4.74 -2.64,5.41zm-3.78 -12.7c0.74,0.01 1.43,0.39 1.97,0.67 1.58,0.78 3.42,2.53 3.82,4.23l-1.35 1.42 -0.03 -1.54 -2.02 0 0 2.51c-0.47,-0.32 -0.8,-0.75 -1.23,-1.16 -0.71,-0.68 -0.54,-0.56 -0.53,-1.86 0.01,-1.4 -0.2,-3.38 -0.63,-4.27zm0.51 14.21c-0.56,0.83 -0.93,1.21 -1.76,1.76 0.3,0.58 0.76,1.08 1.13,1.64 0.93,-0.22 2.25,-2.01 2.76,-2.77 1.64,0 2.8,-0.24 4.06,-1.35 1.98,-1.74 1.73,-3.85 1.73,-6.2 0,-4.1 -3.11,-7.81 -6.81,-9.04 -1.72,-0.58 -2.64,-0.52 -4.89,-0.52 0.17,0.71 1.15,2.02 1.59,3.95 1.05,4.72 -1.42,6.34 -0.38,9.44 0.49,1.46 1.33,2.43 2.57,3.09z"/>
   <path class="fil1" d="M23.77 13.08c0,-0.83 0.3,-1.81 0.58,-2.44 1.63,-3.77 6.68,-4.84 9.71,-1.81 3.18,3.18 1.69,8.25 -1.69,9.7 -2.51,1.08 -4.97,0.56 -6.74,-1.14 -1.12,-1.06 -1.86,-2.74 -1.86,-4.31zm-2.01 -0.5l0 1.01c0,3.79 3.75,7.54 7.55,7.54l1 0c3.8,0 7.55,-3.75 7.55,-7.54l0 -1.01c0,-3.8 -3.75,-7.55 -7.55,-7.55l-1 0c-3.8,0 -7.55,3.75 -7.55,7.55z"/>
   <path class="fil1" d="M40.5 7.42c4.54,2.4 7.71,4.93 10.54,9.33 0.26,0.41 0.92,1.45 1.04,1.87l1.86 -0.93c-0.16,-0.66 -1.85,-3.12 -2.33,-3.76 -0.99,-1.32 -1.82,-2.19 -2.96,-3.33 -1.48,-1.48 -5.72,-4.68 -7.39,-5.07 -0.17,0.72 -0.7,1.15 -0.76,1.89z"/>
   <path class="fil1" d="M42.39 51.95c0.15,0.28 0.24,0.52 0.43,0.83 0.23,0.37 0.34,0.47 0.45,0.93 1.13,-0.09 5.06,-3.61 5.69,-4.24 0.91,-0.92 1.6,-1.62 2.38,-2.66 0.43,-0.58 1.83,-2.42 1.99,-3.04 -0.59,-0.31 -1.17,-0.69 -1.76,-1 -2.43,3.62 -3.38,5.06 -7.06,7.78l-2.12 1.4z"/>
   <path class="fil1" d="M7.67 14.59c0.56,0.37 1.08,0.76 1.64,1.13 0.27,-0.51 0.54,-0.79 0.89,-1.24 2.43,-3.06 5.2,-5.1 8.67,-6.93l-0.88 -1.89c-1.08,0.57 -2.02,1.09 -3.05,1.74 -0.52,0.32 -0.9,0.62 -1.39,0.99 -0.25,0.19 -0.39,0.29 -0.65,0.48 -0.33,0.25 -0.4,0.35 -0.68,0.58 -0.94,0.76 -4.29,4.06 -4.55,5.14z"/>
   <path class="fil1" d="M7.67 45.91c1.12,2.11 5.51,6.15 7.68,7.3 0.29,-0.44 0.96,-1.39 1,-1.89 -0.39,-0.1 -0.71,-0.38 -1.02,-0.61 -1.7,-1.26 -2.08,-1.56 -3.6,-3.07 -0.59,-0.58 -1.96,-2.23 -2.3,-2.86 -0.28,0.19 -0.52,0.33 -0.82,0.56 -0.34,0.25 -0.51,0.46 -0.94,0.57z"/>
   <polygon class="fil1" points="50.16,39.59 51.6,40.98 54.69,37.96 53.31,36.51 "/>
   <polygon class="fil1" points="38.14,39.53 39.52,40.98 42.61,37.96 41.23,36.51 "/>
   <polygon class="fil1" points="44.18,39.53 45.56,40.98 48.65,37.96 47.27,36.51 "/>
   <polygon class="fil1" points="28.8,3.02 30.82,3.02 30.82,0 28.8,0 "/>
   <polygon class="fil1" points="16.73,14.09 19.75,14.09 19.75,12.08 16.73,12.08 "/>
   <polygon class="fil1" points="39.87,14.09 42.89,14.09 42.89,12.08 39.87,12.08 "/>
   <polygon class="fil1" points="28.8,26.16 30.82,26.16 30.82,23.14 28.8,23.14 "/>
   <polygon class="fil1" points="36.13,20.79 38.14,22.86 39.65,21.41 37.51,19.34 "/>
   <polygon class="fil1" points="20.03,4.68 22.04,6.76 23.55,5.31 21.48,3.3 "/>
   <polygon class="fil1" points="36.13,5.31 37.51,6.77 39.65,4.68 38.21,3.3 "/>
  </g>
 </g>
</svg>
