<?xml version="1.0" encoding="UTF-8"?>
<!DOCTYPE svg PUBLIC "-//W3C//DTD SVG 1.1//EN" "http://www.w3.org/Graphics/SVG/1.1/DTD/svg11.dtd">
<!-- Creator: CorelDRAW 2020 (64-Bit) -->
<svg xmlns="http://www.w3.org/2000/svg" xml:space="preserve" width="60px" height="60px" version="1.1" style="shape-rendering:geometricPrecision; text-rendering:geometricPrecision; image-rendering:optimizeQuality; fill-rule:evenodd; clip-rule:evenodd"
viewBox="0 0 60 60"
 xmlns:xlink="http://www.w3.org/1999/xlink"
 xmlns:xodm="http://www.corel.com/coreldraw/odm/2003">
 <defs>
  <style type="text/css">
   <![CDATA[
    .fil0 {fill:none}
    .fil1 {fill:#F97150}
   ]]>
  </style>
 </defs>
 <g id="Layer_x0020_1">
  <metadata id="CorelCorpID_0Corel-Layer"/>
  <rect class="fil0" width="60" height="60"/>
  <rect class="fil0" width="60" height="60"/>
  <path class="fil1" d="M28.36 43.95l3.28 0 0 12.54 -3.28 0 0 -12.54zm-13.48 -13.25l34.69 0 0 9.73 -34.69 0c-0.35,0 -1,-0.83 -1.26,-1.08 -0.69,-0.7 -3.16,-3.39 -3.66,-3.72 0.15,-0.23 4.54,-4.93 4.92,-4.93zm13.48 -7.03l3.28 0 0 3.52 -3.28 0 0 -3.52zm16.88 -3.51l-34.81 0 0 -9.61 34.81 0c0.31,0 2.19,1.98 2.48,2.31l1.12 1.23c0.42,0.43 0.88,0.78 1.2,1.26 -0.37,0.25 -0.9,0.79 -1.19,1.16 -0.79,0.99 -2.06,2.09 -2.94,3.03 -0.48,0.5 -0.31,0.62 -0.67,0.62zm-16.88 -16.65l3.28 0 0 3.4 -3.28 0 0 -3.4zm-3.63 -1.75l0 5.15 -14.42 0c-1.67,0 -3.4,1.54 -3.4,3.17l0 10.43c0,1.51 1.66,3.16 3.17,3.16l14.65 0 0 3.52 -10.9 0c-1.16,0 -1.74,1.01 -2.32,1.67 -0.61,0.69 -1.37,1.38 -2.05,2.05l-1.93 2.05c-1.34,1.34 -1.79,1.42 -1.79,2.9 0,0.83 1.94,2.43 2.73,3.25l0.99 1.11c0.7,0.7 1.3,1.31 2,2 0.65,0.64 1.16,1.73 2.37,1.73l10.9 0 0 12.54c-1.28,0 -3.52,-0.36 -3.52,1.75 0,0.98 0.69,1.76 1.76,1.76l14.06 0c1.6,0 2.32,-1.85 1.26,-3.02 -0.61,-0.68 -1.89,-0.49 -3.02,-0.49l0 -12.54 14.42 0c1.68,0 3.4,-1.54 3.4,-3.17l0 -10.43c0,-1.56 -1.76,-3.16 -3.17,-3.16l-14.65 0 0 -3.52 11.14 0c0.77,0 1.85,-1.26 2.22,-1.76 0.62,-0.8 2.11,-2.13 2.96,-3.01l0.94 -1.06c1.31,-1.3 1.73,-1.32 1.73,-2.84 0,-0.79 -1.95,-2.48 -2.73,-3.25 -0.38,-0.39 -0.54,-0.67 -0.93,-1.06 -0.7,-0.69 -1.3,-1.3 -2,-1.99l-0.93 -1.06c-0.26,-0.28 -0.89,-0.73 -1.38,-0.73l-11.02 0 0 -5.15c0,-0.98 -0.68,-1.76 -1.75,-1.76l-7.04 0c-1.07,0 -1.75,0.78 -1.75,1.76z"/>
 </g>
</svg>
