<?xml version="1.0" encoding="UTF-8"?>
<!DOCTYPE svg PUBLIC "-//W3C//DTD SVG 1.1//EN" "http://www.w3.org/Graphics/SVG/1.1/DTD/svg11.dtd">
<!-- Creator: CorelDRAW 2020 (64-Bit) -->
<svg xmlns="http://www.w3.org/2000/svg" xml:space="preserve" width="48px" height="48px" version="1.1" style="shape-rendering:geometricPrecision; text-rendering:geometricPrecision; image-rendering:optimizeQuality; fill-rule:evenodd; clip-rule:evenodd"
viewBox="0 0 48 48"
 xmlns:xlink="http://www.w3.org/1999/xlink"
 xmlns:xodm="http://www.corel.com/coreldraw/odm/2003">
 <defs>
  <style type="text/css">
   <![CDATA[
    .fil0 {fill:none}
    .fil1 {fill:#F97150}
   ]]>
  </style>
 </defs>
 <g id="Layer_x0020_1">
  <metadata id="CorelCorpID_0Corel-Layer"/>
  <rect class="fil0" width="48" height="48"/>
  <path class="fil1" d="M32.42 46.45l-5.32 0 0 -1.55 5.32 0c0.43,0 0.87,0.4 0.87,0.78 0,0.38 -0.44,0.77 -0.87,0.77zm-19.55 -4.06l4.1 2.29c0.47,0.25 1.03,0.62 0.74,1.28 -0.46,1.02 -1.83,0 -2.81,-0.57l-2.8 -1.55c0.09,-0.35 0.59,-1.11 0.77,-1.45zm3.68 0.09c-0.46,-0.03 -1.84,-0.9 -2.32,-1.16 0.08,-0.36 0.23,-0.53 0.41,-0.84l2.47 -4.21c0.34,-0.55 0.7,-1.16 0.7,-2.01l0 -4.07c2.85,0 2.32,-0.6 2.32,4.65 0,0.9 -0.21,1.65 -0.55,2.26l-2.54 4.42c-0.19,0.32 -0.4,0.57 -0.49,0.96zm5.32 -12.29l3.29 0c0.44,0.66 0.94,1.22 1.43,1.87l2.15 2.78c0.82,1.08 1.45,1.66 1.45,3.48l0 5.03 -2.32 0 0 -4.54c0,-1.63 -1.61,-3.16 -2.73,-4.53 -0.51,-0.62 -2.89,-3.37 -3.27,-4.09zm-4.84 -3.58l5.73 1.24c0.55,0.13 1.44,0.41 2.01,0.41l0 0.39 -7.74 0 0 -2.04zm-7.74 -0.38l0 -0.68 4.65 0c0.19,0 0.76,0.49 1.54,0.68l0 0.87 -5.32 0c-0.48,0 -0.87,-0.4 -0.87,-0.87zm3.1 -4.26c0,1.63 0.23,1.28 0.29,2.03l-3.39 0 0 -6.19 5.81 0c-0.79,1.17 -2.71,2.08 -2.71,4.16zm5.42 -0.39c0,1.12 0.88,1.02 2.92,1.53 0.98,0.25 6.24,1.5 6.68,1.84 0.86,0.66 0.44,2.39 -1.1,2.07 -2.33,-0.5 -4.62,-1.09 -6.95,-1.58 -1.49,-0.31 -4.02,-0.62 -4.82,-1.56 -1.85,-2.2 0.94,-4.01 1.55,-4.7 0.55,-0.63 2.14,-2.4 2.71,-2.7 1.47,-0.76 2.79,1.02 1.6,2.27 -0.42,0.44 -2.59,2.37 -2.59,2.83zm16.35 -4.26c-0.02,-0.26 -0.04,-0.26 -0.1,-0.48 -0.28,0.02 -1.34,0.29 -1.54,0.39 0.08,0.35 0.29,1.09 0.29,1.45 0,0.24 -1.88,2.03 -3.87,2.03 -2.11,0 -1.03,-0.02 -2.62,-0.39 0,-0.64 0.13,-1.66 -0.09,-2.13 1.25,0.29 3,1.7 5.39,-0.7 0.41,-0.41 1.79,-2.01 2.35,-2.01 0.61,0 1.47,0.99 0.19,1.84zm-21.87 -4.16c0.83,0 1.84,0.5 2.25,0.94 0.29,0.32 1.03,1.63 1.04,2.16l-6.29 0c0.04,-1.74 1.47,-3.1 3,-3.1zm5.13 2.32l0 0zm0 0c0.02,-0.7 0.45,-1.16 0.58,-1.74 0.75,0.06 0.21,0.2 1.74,0.2 0.64,-0.01 1.31,-0.03 1.95,-0.01 0.65,0.01 0.9,0.34 1.22,0.71 2.06,2.48 1.86,4.01 1.86,7.81 -0.94,-0.08 -3.7,-1.04 -4.54,-1.06 0.22,-0.85 3.24,-2.23 2.03,-4.94 -0.63,-1.42 -2.1,-2.08 -3.6,-1.66 -0.68,0.19 -0.76,0.38 -1.24,0.69zm-0.39 -5.61l0 -2.13c1.49,0 2.54,0.21 3.47,-0.4 0.68,-0.44 0.99,-1.23 1.34,-1.95 0.47,-1 0.73,-0.74 2.93,-0.74l0 5.22c0,3.02 -3.15,2.52 -5.22,2.52 -1.5,0 -2.52,-1.02 -2.52,-2.52zm2.03 -3.68l-2.03 0c0,-1.82 -0.39,-4.64 2.52,-4.64 2.22,0 6.22,-0.44 7.55,1.55 -1.27,0 -4.49,-0.21 -5.36,0.16 -1.83,0.79 -1.41,2.93 -2.68,2.93zm-3.58 -2.61l0 6.77c0,0.94 0.6,2.05 1.17,2.42 -0.1,0.4 -0.21,0.77 -0.49,0.97 -0.26,-0.97 -2.18,-2.13 -3.48,-2.13 -1.53,0 -2.53,0.28 -3.56,1.28 -0.63,0.62 -1.38,1.79 -1.38,2.98l0 10.65c0,1.06 1.07,2.13 2.13,2.13l5.61 0c0,0.8 -0.14,1.47 0.78,1.54 0,5.05 0.41,3.78 -2.08,7.9l-1.35 2.32c-0.34,0.33 -0.51,-0.07 -0.89,0.37 -0.14,0.16 -1.78,3.21 -1.78,3.25 0,0.43 0.15,0.63 0.45,0.81l4.23 2.35c1.03,0.53 1.04,0.81 2.29,0.81 2.07,0 3.41,-3.25 0.77,-4.65 0.1,-0.42 2.26,-4.1 2.6,-4.66 1.36,-2.27 1.18,-2.64 1.18,-6.08 0.22,0.17 0.6,0.73 0.84,1l3.46 4.28c0.56,0.9 0.34,4.08 0.34,5.46 -0.47,0.04 -0.77,0.27 -0.77,0.78l0 3.1c0,0.46 0.3,0.77 0.77,0.77l6.39 0c1.18,0 2.13,-1.02 2.13,-2.52 0,-1.06 -1.07,-2.13 -2.13,-2.13l-0.97 0 0 -5.7c0,-1.02 -0.47,-2.07 -0.89,-2.7l-3.92 -5.07c-0.49,-0.59 -0.61,-0.62 -0.61,-1.23 1,0 1.52,-0.04 2.26,-0.75 1.94,-1.88 0.35,-4.96 -2.26,-4.96l0 -0.88c1.2,0.03 2.2,0.85 5.02,-0.3 0.86,-0.34 1.25,-0.78 1.95,-1.24 1.79,7.68 3.63,15.35 5.42,23.03 0.57,-0.05 0.9,-0.29 1.55,-0.29 -0.04,-0.48 -0.21,-1.04 -0.33,-1.51l-1.74 -7.45c-0.23,-1.05 -0.52,-2.05 -0.73,-3.05l-2.81 -12.09c0.16,-0.65 1.74,-0.88 1.74,-3 0,-1.25 -1.06,-2.22 -2.62,-2.22 -2.07,0 -2.71,3.29 -5.22,3.29 -0.46,0 -1.22,-0.34 -1.56,-0.47 -0.27,-0.11 -0.42,-0.17 -0.7,-0.28 -0.88,-0.33 -0.54,-0.54 -1.33,-1.77 -0.25,-0.39 -0.6,-0.77 -0.86,-1.16 0.99,-0.23 2.22,-1.87 2.22,-3.2l0 -5.7c2.23,0 3.1,0.31 3.1,-0.97 0,-0.23 -0.68,-1.19 -0.85,-1.38 -1.07,-1.2 -2.66,-2.3 -4.47,-2.3l-5.04 0c-1.78,0 -3.58,1.8 -3.58,3.58z"/>
 </g>
</svg>
