<?xml version="1.0" encoding="UTF-8"?>
<!DOCTYPE svg PUBLIC "-//W3C//DTD SVG 1.1//EN" "http://www.w3.org/Graphics/SVG/1.1/DTD/svg11.dtd">
<!-- Creator: CorelDRAW 2020 (64-Bit) -->
<svg xmlns="http://www.w3.org/2000/svg" xml:space="preserve" width="48px" height="48px" version="1.1" style="shape-rendering:geometricPrecision; text-rendering:geometricPrecision; image-rendering:optimizeQuality; fill-rule:evenodd; clip-rule:evenodd"
viewBox="0 0 48 48"
 xmlns:xlink="http://www.w3.org/1999/xlink"
 xmlns:xodm="http://www.corel.com/coreldraw/odm/2003">
 <defs>
  <style type="text/css">
   <![CDATA[
    .fil0 {fill:none}
    .fil1 {fill:#F97150}
   ]]>
  </style>
 </defs>
 <g id="Layer_x0020_1">
  <metadata id="CorelCorpID_0Corel-Layer"/>
  <rect class="fil0" width="48" height="48"/>
  <path class="fil1" d="M15.66 21.27c-0.1,-0.11 0.02,0.04 -0.13,-0.15 -0.09,-0.11 -0.09,-0.13 -0.16,-0.22 -0.1,-0.16 -0.18,-0.28 -0.3,-0.45 -0.23,-0.3 -0.36,-0.51 -0.58,-0.83 -0.58,-0.88 -1.63,-3.1 -2.98,-2.12 -0.47,0.34 -1.93,2.66 -2.34,3.28l-3.45 5.08c-1.13,0 -2.26,0 -3.38,0 -0.51,0 -1.24,-0.07 -1.6,0.1 -0.79,0.36 -1.01,1.43 -0.35,2.04 0.57,0.53 2.82,0.3 3.64,0.3 -0.55,0.83 -1.82,2.2 -0.73,3.08 1.27,1.03 2.31,-0.95 2.9,-1.84l1.67 -2.45c0.36,-0.54 0.7,-1 1.07,-1.56 0.55,-0.83 3.03,-4.6 3.34,-4.82 0.07,0.25 0.27,0.45 0.43,0.69l1.45 2.12c-0.63,1.18 -3.14,5.02 -3.89,6.15l-2.94 4.65c-0.33,0.51 -0.86,1.11 -0.86,1.77 0,1.07 1.55,1.95 2.56,0.22l12.03 -19.02c0.43,-0.66 1.67,-2.4 1.82,-2.96 0.38,0.1 0.6,0.7 0.81,1.06 0.26,0.44 0.49,0.78 0.76,1.21l9.72 15.32c0.35,0.54 0.61,0.79 1.37,0.79 0.79,0 1.03,-0.76 1.03,-1.4 0,-0.64 -3.54,-5.38 -3.75,-6.29 0.73,-0.49 1.35,-1.12 2.06,-1.59l3.16 3.49c0.33,0.34 0.47,0.46 0.77,0.83 0.26,0.33 0.54,0.52 0.81,0.88 0.31,0.39 0.51,0.52 0.82,0.87l2.34 2.63c1.4,1.53 3.53,-0.07 1.55,-2.02 -0.42,-0.41 -1.34,-1.37 -1.57,-1.81 0.71,0 4.15,0.16 4.64,-0.14 1.02,-0.62 0.68,-2.24 -0.6,-2.3 -1.61,-0.07 -3.27,0 -4.89,0 -1.91,0.01 -1.27,0.07 -2.46,-1.1 -1,-0.98 -1.89,-2.18 -2.91,-3.18 -0.54,-0.54 -0.76,-1.06 -1.66,-1.06 -0.74,0 -2.75,1.96 -3.47,2.44 -0.7,-1.32 -1.97,-3.15 -2.79,-4.43 -0.34,-0.51 -0.6,-0.99 -0.94,-1.5 -0.42,-0.62 -3.25,-5.32 -3.75,-5.91 -0.4,-0.45 -1.08,-0.55 -1.65,-0.2 -0.3,0.18 -0.82,1.06 -1.03,1.41l-1.88 2.99c-0.14,0.21 -3.58,5.43 -3.71,5.95z"/>
 </g>
</svg>
