<?xml version="1.0" encoding="UTF-8"?>
<!DOCTYPE svg PUBLIC "-//W3C//DTD SVG 1.1//EN" "http://www.w3.org/Graphics/SVG/1.1/DTD/svg11.dtd">
<!-- Creator: CorelDRAW 2020 (64-Bit) -->
<svg xmlns="http://www.w3.org/2000/svg" xml:space="preserve" width="48px" height="48px" version="1.1" style="shape-rendering:geometricPrecision; text-rendering:geometricPrecision; image-rendering:optimizeQuality; fill-rule:evenodd; clip-rule:evenodd"
viewBox="0 0 48 48.02"
 xmlns:xlink="http://www.w3.org/1999/xlink"
 xmlns:xodm="http://www.corel.com/coreldraw/odm/2003">
 <defs>
  <style type="text/css">
   <![CDATA[
    .fil0 {fill:none}
    .fil1 {fill:#F97150}
   ]]>
  </style>
 </defs>
 <g id="Layer_x0020_1">
  <metadata id="CorelCorpID_0Corel-Layer"/>
  <rect class="fil0" y="0.01" width="48" height="48"/>
  <g id="_2186855922592">
   <path class="fil1" d="M46.37 22.35c-0.9,0 -1.56,0.47 -1.73,1.29l-0.16 2.57c-0.32,4.08 -2.4,8.49 -5.08,11.53 -5.87,6.66 -15.49,8.8 -23.96,4.99 -4.09,-1.83 -8.38,-5.82 -10.09,-9.97l-0.74 -1.78c-2.36,-6.12 -1.15,-13.48 2.53,-18.81 1.19,-1.71 3.26,-3.77 4.96,-4.97 0.47,-0.34 0.98,-0.67 1.53,-0.97 0.57,-0.32 1.01,-0.61 1.64,-0.87 3.38,-1.39 5.03,-1.92 9.16,-1.92 2.51,0 5.11,0.63 7.28,1.49 2.88,1.14 4.88,2.57 7.01,4.7l1.05 1.15c0.16,0.19 0.19,0.18 0.33,0.39 -1.09,0 -5.12,-0.2 -5.81,0.25 -1.55,1.01 -0.89,3.2 1.21,3.2l7.53 0c0.6,0 1.18,-0.18 1.49,-0.5 0.72,-0.7 0.46,-2.18 0.66,-3.52 0.06,-0.38 0.03,-0.61 0.04,-1 0.01,-0.5 0.08,-0.48 0.11,-0.94 0.07,-1.4 0.16,-2.58 0.21,-3.97 0.02,-0.8 0.21,-0.99 -0.21,-1.67 -0.5,-0.81 -2.07,-1.18 -2.87,0.06 -0.43,0.65 -0.33,2.03 -0.37,2.76 -0.03,0.46 -0.1,0.44 -0.11,0.94 -0.02,0.89 0.19,1.54 -0.54,0.77 -3.55,-3.73 -8.42,-6.46 -13.59,-7.22 -1.76,-0.25 -3.2,-0.44 -4.9,-0.25 -0.37,0.04 -0.75,-0.01 -1.12,0.03 -5.03,0.53 -9.1,2.26 -13.04,5.36 -0.26,0.21 -0.34,0.33 -0.61,0.54 -0.29,0.23 -0.35,0.28 -0.61,0.54 -2.41,2.44 -4.34,4.81 -5.69,8.2 -0.22,0.56 -0.47,1.15 -0.63,1.67 -1.47,4.67 -1.7,9.28 -0.38,13.92 0.77,2.7 1.79,4.98 3.24,7.1l0.97 1.33c0.17,0.22 0.33,0.44 0.51,0.64 1.9,2.13 3.2,3.37 5.58,4.87 7.56,4.75 16.96,4.93 24.37,0.78 6.05,-3.38 10.27,-8.91 11.86,-15.73 0.25,-1.07 0.9,-4.98 0.44,-6.04 -0.22,-0.5 -0.75,-0.94 -1.47,-0.94z"/>
   <path class="fil1" d="M22.34 12.63l0 11.6c0,0.89 1.45,1.75 2.25,2.35l6.57 4.92c0.8,0.6 0.93,0.88 1.84,0.88 1.42,0 2.16,-1.75 1.22,-2.79l-1.42 -1.09c-0.5,-0.37 -0.92,-0.69 -1.43,-1.07 -1.53,-1.15 -4.27,-3.29 -5.69,-4.24l0.01 -10.25c-0.01,-0.65 -0.13,-0.89 -0.45,-1.23 -1.14,-1.22 -2.9,-0.16 -2.9,0.92z"/>
  </g>
 </g>
</svg>
