<?xml version="1.0" encoding="UTF-8"?>
<!DOCTYPE svg PUBLIC "-//W3C//DTD SVG 1.1//EN" "http://www.w3.org/Graphics/SVG/1.1/DTD/svg11.dtd">
<!-- Creator: CorelDRAW 2020 (64-Bit) -->
<svg xmlns="http://www.w3.org/2000/svg" xml:space="preserve" width="48px" height="48px" version="1.1" style="shape-rendering:geometricPrecision; text-rendering:geometricPrecision; image-rendering:optimizeQuality; fill-rule:evenodd; clip-rule:evenodd"
viewBox="0 0 48 48"
 xmlns:xlink="http://www.w3.org/1999/xlink"
 xmlns:xodm="http://www.corel.com/coreldraw/odm/2003">
 <defs>
  <style type="text/css">
   <![CDATA[
    .fil0 {fill:none}
    .fil3 {fill:#2B2A29}
    .fil1 {fill:#F97150}
    .fil2 {fill:#F97150}
   ]]>
  </style>
   <clipPath id="id0">
    <rect x="-3968.07" y="-1753.33" width="1706.9" height="1706.9"/>
   </clipPath>
 </defs>
 <g id="Layer_x0020_1">
  <metadata id="CorelCorpID_0Corel-Layer"/>
  <rect class="fil0" width="48" height="48"/>
  <rect class="fil0" x="-168.5" y="39.06" width="48" height="48"/>
  <rect class="fil0" x="-291.61" y="-10.61" width="48" height="48"/>
  <rect class="fil0" x="-983.81" y="-362.37" width="60" height="60"/>
  <rect class="fil0" x="-983.81" y="-362.37" width="60" height="60"/>
  <g id="_2186855971744">
   <path class="fil1" d="M-803.11 -255.08l56.48 0 0 1.99 -56.48 0 0 -1.99zm-1.76 3.05l0 -3.95c0.12,-1.14 0.65,-0.98 2.58,-0.98l0 -14.88c0,-0.57 0.37,-0.94 0.93,-0.94l7.5 0c0.57,0 0.94,0.37 0.94,0.94l0 5.62c0,1.32 -1.76,1.07 -1.76,0.24l0 -4.92 -5.74 0 0 13.94 5.74 0 0 -5.39c0,-0.51 0.9,-0.99 1.5,-0.44 0.5,0.46 0.26,4.53 0.26,5.83l5.74 0 0 -30.23c0,-0.43 0.33,-0.94 0.71,-0.94l7.85 0c0.55,0 0.82,0.27 0.82,0.82l0 11.95c0,1.18 -1.76,1.1 -1.76,-0.11l0 -10.9 -5.74 0 0 29.41 5.74 0 0 -14.29c0,-1.22 1.76,-1.3 1.76,-0.12l0 14.41 5.86 0 0 -22.26c0,-0.49 0.64,-0.71 1.17,-0.71l7.15 0c0.58,0 1.05,0.48 1.05,1.06l0 21.91 5.75 0 0 -24.84c0,-1.35 1.75,-1.03 1.75,-0.24l0 25.08 5.75 0 0 -35.27 -5.75 0 0 6.33c0,1.2 -1.75,0.99 -1.75,0.11l0 -7.38c0,-0.57 0.37,-0.94 0.93,-0.94l7.5 0c0.57,0 0.94,0.37 0.94,0.94l0 36.21c1.22,0 2.58,-0.23 2.58,0.94l0 3.99c0,0.28 -0.42,0.7 -0.7,0.7l-58.6 0c-0.28,0 -0.7,-0.42 -0.7,-0.7zm34.69 -26.02l5.74 0 0 21.09 -5.74 0 0 -21.09z"/>
   <path class="fil1" d="M-797.37 -280.4c-1.83,0 -3.05,-1.22 -3.05,-2.34 0,-1.3 -0.08,-1.66 0.91,-2.61 1.7,-1.65 4.58,-0.51 4.78,1.95 0.13,1.51 -1.17,3 -2.64,3zm27.19 -9.96c0,-1.37 1.21,-2.81 2.58,-2.81 4.59,0 3.77,5.82 0.24,5.72 -1.49,-0.04 -2.82,-1.31 -2.82,-2.91zm-12.19 -5.39c-3.83,0 -4.03,-5.74 0.12,-5.74 0.79,0 1.49,0.47 1.91,0.9 1.77,1.84 0.29,4.84 -2.03,4.84zm33.05 -9.14l0 0.7c0,1.19 -1.27,2.46 -2.46,2.46 -1.35,0 -2.51,-0.32 -3.04,-1.76 -0.84,-2.29 1.21,-4.53 3.64,-3.76 0.86,0.27 1.86,1.27 1.86,2.36zm-7.5 0.23c0,1.76 0.49,1.93 0.7,2.7 -0.45,0.24 -3.24,2.96 -4.25,3.84 -1.02,0.9 -3.22,3.25 -4.19,3.9 -0.57,-0.16 -2.45,-1.57 -4.8,-0.35 -0.16,0.08 -0.63,0.36 -0.79,0.49 -0.31,0.26 -0.4,0.45 -0.74,0.68l-1.78 -0.92c-0.31,-0.19 -0.49,-0.27 -0.84,-0.45l-4.41 -2.39c0.03,-1.47 0.67,-2.95 -1.31,-4.89 -2.19,-2.15 -5.94,-1.62 -7.48,1.49 -0.83,1.69 -0.43,3.09 0.35,4.58 -0.41,0.61 -4.37,4.34 -5.36,5.42 -0.96,1.03 -2.22,2.64 -3.31,3.37 -3.82,-2.03 -7.26,0.58 -7.26,3.98 0,3.94 4.76,6.3 7.94,3.37 1.66,-1.52 1.91,-4.13 0.61,-6.06l8.67 -8.79c1.11,0.58 1.85,0.88 3.38,0.68 1.08,-0.13 2.34,-0.88 2.84,-1.62l7.03 3.87c-0.12,1.4 -0.41,2.72 0.73,4.18 0.12,0.15 0.36,0.46 0.48,0.58 1.8,1.8 4.93,1.78 6.67,-0.04 1.6,-1.67 1.72,-3.79 0.67,-5.78l6.71 -6.3c0.51,-0.45 1.08,-1.19 1.61,-1.55 1.06,0.25 1.09,0.82 2.81,0.82 2.65,0 4.69,-2.06 4.69,-4.92 0,-2.29 -2.04,-4.46 -4.8,-4.46 -2.48,0 -4.57,2.1 -4.57,4.57z"/>
  </g>
  <g id="_2186855967856">
   <path class="fil2" d="M-1111.11 -301.06c0.1,0.42 0.53,1.07 0.82,1.64 0.13,0.27 0.23,0.49 0.39,0.78 0.89,1.66 1.45,3.32 2.89,3.32 1.31,0 1.66,-1.17 2.15,-2.07 0.28,-0.52 1.28,-2.5 1.6,-2.73 0.12,0.52 0.41,0.82 0.66,1.32 0.79,1.57 1.52,3.48 2.85,3.48 0.78,0 1.26,-0.38 1.6,-0.87l2.62 -4.99c0.27,0.2 0.81,1.15 1.1,1.6 1.23,1.83 6.86,10.29 7.46,11.41l-32.82 0c0.73,-1.08 1.4,-2.16 2.14,-3.26l5.34 -8.13c0.38,-0.58 0.79,-1.39 1.2,-1.5zm23.79 5.51l1.82 -2.87c0.23,-0.3 0.03,-0.2 0.4,-0.3 0.1,0.41 2.01,3.23 2.46,3.87 0.24,0.34 0.89,0.82 1.41,0.82 1.3,0 1.81,-1.19 2.34,-1.99l1.76 -2.7c0.36,0.24 3.32,4.84 3.55,5.24l3.48 5.31 -12.54 0c-0.11,-0.43 -0.83,-1.37 -1.12,-1.8l-3.56 -5.58zm6.09 -3.64c-0.15,-0.58 -1.76,-2.61 -1.76,-2.93l1.88 -2.81c0.62,0.94 1.24,1.88 1.87,2.81 -0.33,0.5 -0.63,0.95 -0.98,1.48 -0.3,0.44 -0.65,1.19 -1.01,1.45zm-25.9 -1.87c-0.1,-0.42 -0.52,-1.2 -0.75,-1.59 -0.65,-1.09 -1.2,-1.79 -0.81,-2.42l5.31 -8.06c0.31,0.23 4.95,7.42 5.63,8.44 -0.32,0.59 -1.64,3.37 -2,3.63l-1.38 -2.72c-0.67,-1.1 -0.82,-2.09 -2.25,-2.09 -1.6,0 -1.99,1.83 -2.89,3.44 -0.17,0.3 -0.24,0.38 -0.39,0.67 -0.18,0.35 -0.16,0.47 -0.47,0.7zm-17.81 14.65c0,1.15 0.82,1.87 1.87,1.87l56.26 0c1.07,0 1.87,-0.71 1.87,-1.87 0,-0.83 -0.83,-1.83 -1.22,-2.42l-2.22 -3.4c-0.28,-0.41 -0.49,-0.72 -0.76,-1.12l-10.31 -15.71c-0.89,-1.35 -2.36,-1.59 -3.38,-0.04l-5.95 9.05c-0.26,0.39 -0.43,0.85 -0.77,1.1 -0.33,-0.24 -1.36,-1.92 -1.69,-2.42 -0.57,-0.86 -1.05,-1.63 -1.62,-2.48 -1.12,-1.69 -2.16,-3.31 -3.3,-5.02l-4.88 -7.43c-0.25,-0.38 -0.54,-0.89 -0.85,-1.25 -0.58,-0.7 -0.78,-0.74 -1.72,-0.74 -1.13,0 -2.23,2.29 -3.05,3.52l-2.65 4.03c-0.47,0.7 -0.85,1.28 -1.31,1.97l-13.2 20.08c-0.41,0.61 -1.12,1.54 -1.12,2.28z"/>
   <path class="fil2" d="M-1090.37 -321.45c0,-3.2 4.8,-3.44 4.8,0.11 0,2.93 -4.8,3 -4.8,-0.11zm-3.63 -0.47l0 0.58c0,3.09 2.77,5.86 5.86,5.86 3.61,0 6.21,-2.5 6.21,-6.32 0,-2.99 -2.76,-5.75 -5.75,-5.75 -2.04,0 -3.16,0.45 -4.51,1.7 -0.82,0.75 -1.81,2.43 -1.81,3.93z"/>
  </g>
  <g id="_2186855967760">
   <path class="fil2" d="M-997.82 -428.73c-1.87,0 -6.82,-0.47 -8.09,-1.99 -1.13,-1.36 1.14,-8.48 8.09,-8.48 3.74,0 7.13,2.42 8.06,5.9 0.11,0.4 0.06,0.51 0.22,0.83 -0.56,0.14 -1.19,0.96 -1.59,1.38 -0.3,0.31 -0.36,0.46 -0.64,0.78 -0.25,0.27 -0.49,0.67 -0.72,0.84 -0.6,0.45 -4.12,0.74 -5.33,0.74zm28.96 -5.17c-0.79,-0.53 -3.27,-1.84 -4.4,-1.94l0 -0.25c1.36,-0.37 2.72,-2.8 3.36,-4.01 2.03,0 3.95,-0.1 5.77,-0.57 0.88,-0.22 1.07,-0.55 1.47,0.05 -1.17,0.56 -0.8,0.24 -2.12,1.11 -1.65,1.1 -3.91,3.58 -4.08,5.61zm-17.84 -6.2c0.21,0.4 0.37,0.79 0.62,1.19 0.53,0.85 1.84,2.58 2.74,2.82l0 0.25c-1.09,0.1 -3.62,1.43 -4.39,1.94 -0.17,-1.99 -2.44,-4.54 -4.09,-5.61 -0.34,-0.22 -0.65,-0.41 -0.96,-0.59 -0.41,-0.23 -0.75,-0.32 -1.16,-0.52 0.41,-0.61 0.56,-0.27 1.37,-0.07 2.08,0.49 3.56,0.59 5.87,0.59zm24.3 -4.65c0,-3.51 3.74,-4.99 6.11,-2.88 3.31,2.94 -1.03,8.7 -4.95,5.33 -0.51,-0.44 -1.16,-1.51 -1.16,-2.45zm-39.04 0.12c0,-1.71 0.56,-2.97 2.16,-3.66 1.42,-0.61 3.03,-0.27 4.02,0.72 3.23,3.23 -1.41,8.42 -4.98,5.37 -0.51,-0.44 -1.2,-1.53 -1.2,-2.43zm31.67 -8.01c1.43,0 3.22,0.52 4.14,1.04 1.16,0.66 2,1.48 2.84,2.45 -0.25,0.38 -0.64,0.75 -0.9,1.17 -1.44,2.34 -0.62,3.92 -0.52,5.17 -1.53,0.12 -2.56,0.64 -5.17,0.64 0.32,-1.38 0.04,-5.56 -1.55,-5.56 -0.86,0 -1.22,0.74 -1.03,1.41 0.52,1.8 0.51,1.12 0.51,3.25 0,3.46 -3.14,6.46 -6.98,6.46 -3.46,0 -6.72,-3.03 -6.72,-6.46 0,-1.4 0,-2.25 0.64,-3.5l1 -1.45c0.09,-0.09 0.12,-0.13 0.19,-0.21l0.19 -0.2c2.08,-2.08 5.13,-2.64 7.94,-1.24 1.7,0.85 1.65,1.56 2.58,1.56 0.76,0 1.87,-0.99 0.13,-2.33 -0.44,-0.34 -0.8,-0.76 -1.42,-0.91 0.15,-0.56 1.18,-0.78 1.78,-0.93 0.54,-0.14 1.64,-0.36 2.35,-0.36zm-17.58 8.92c0,1 -0.06,0.72 0.13,1.55 -2.65,0 -3.57,-0.51 -5.17,-0.64 0.05,-0.54 0.23,-1.07 0.33,-1.76 0.3,-2.19 -1.1,-3.62 -1.75,-4.58 0.76,-0.87 1.66,-1.84 2.75,-2.41 2.28,-1.21 5.13,-1.44 7.55,-0.39 0.87,0.37 0.71,0.21 0.82,0.6 -1.86,0.44 -4.66,4.26 -4.66,7.63zm13.96 -14.61c0,-4.73 7.24,-5.21 7.24,0.26 0,1.31 -1.01,2.53 -2.15,3.02 -1.45,0.62 -2.89,0.29 -4.02,-0.73 -0.53,-0.48 -1.07,-1.56 -1.07,-2.55zm-13.44 3.62c-1.68,0 -3.62,-1.48 -3.62,-3.36 0,-1.22 0.15,-2.14 1.13,-3.01 2.31,-2.05 6.11,-0.63 6.11,2.75 0,2.09 -1.84,3.62 -3.62,3.62zm-5.82 -3.75c0,0.92 0.27,1.87 0.57,2.54 0.16,0.35 0.4,0.69 0.59,0.96 0.27,0.37 0.53,0.53 0.78,0.9 -1.08,0.57 -1.34,0.44 -2.73,1.53 -0.41,0.32 -0.84,0.64 -1.18,1.02 -0.3,0.34 -0.69,0.97 -1,1.2 -1.75,-0.41 -2.93,-0.76 -4.83,0.21 -1.1,0.56 -2.14,1.64 -2.67,2.76 -0.89,1.9 -0.52,4.19 0.65,5.82 0.27,0.37 0.53,0.53 0.78,0.9 -1.9,0.91 -2.9,1.29 -4.44,3.19 -1.49,1.83 -3.52,6.41 -0.96,8.54 2.53,2.11 6.88,2.23 10.31,2.23 1.15,0 1.87,-0.17 2.84,-0.26 -0.12,0.51 -0.7,1.63 -0.98,2.9 -0.56,2.57 -0.82,4.24 0.54,6.21 1.24,1.8 3.16,2.31 3.16,0.33 0,-0.92 -1.94,-0.78 -1.94,-3.49 0,-4.36 2.66,-8.52 6.17,-10.89 0.73,-0.48 1.41,-0.86 2.26,-1.22 3.2,-1.36 4.05,-1.33 7.47,-1.33 3.65,0 6.85,1.82 9.52,4.04 2.27,1.89 4.31,6.12 4.31,9.4 0,2.31 -1.65,3.13 -3.88,4.01 -1.78,0.7 -3.8,1.02 -6.02,1.35 -1.22,0.18 -2.15,0.1 -3.41,0.21 -2.79,0.23 -1.74,-0.02 -3.49,-0.01 -1.21,0 -2.33,-0.1 -3.38,-0.25l-3.22 -0.53c-0.82,0 -1.25,1.1 -0.73,1.76 0.83,1.04 8.28,1.22 10.17,1.22 4.61,0 12.8,-0.97 15.44,-4.99 1.91,-2.91 -0.43,-7.54 -0.71,-8.72 3.81,0.32 7.01,0.62 10.9,-0.73 1.43,-0.5 3.45,-1.73 3.45,-3.53 0,-1.66 -0.15,-2.72 -0.86,-4.18 -2.06,-4.29 -3.19,-1.71 -3.1,-1.17 0.04,0.26 2.67,4.06 1.69,5.66 -0.26,0.42 -1.02,0.86 -1.53,1.06 -1.88,0.74 -4.51,1.08 -6.67,1.08 -1.14,0 -4.63,-0.3 -5.25,-0.69l-1.37 -1.6c-0.35,-0.37 -1.22,-1.34 -1.65,-1.45 0.51,-2.2 1.22,-3.39 2.68,-4.69 2.53,-2.25 6.59,-2.63 9.64,-1.05 0.44,0.23 0.76,0.57 1.25,0.57 0.88,0 1.03,-0.62 1.03,-1.3 0,-0.73 -1.84,-1.39 -2.45,-1.68 0.54,-0.81 1.94,-1.81 1.94,-4.26 0,-3.12 -2.67,-5.82 -5.3,-5.82 -2.02,0 -1.08,0.01 -2.72,0.39 -0.62,-0.46 -0.63,-1.36 -3.41,-3.05 -0.53,-0.32 -0.99,-0.43 -1.5,-0.7 0.52,-0.77 1.94,-1.77 1.94,-4.27 0,-6.36 -8.82,-8.14 -11.19,-2.14 -0.65,1.62 -0.47,3.69 0.52,5.19 0.32,0.49 0.7,0.81 0.98,1.22 -1.12,0.59 -1.31,0.51 -2.49,1.4 -0.62,0.46 -0.34,0.15 -1.01,0.15l-2.32 0c-0.62,0 -0.37,0.29 -0.93,-0.1 -1.84,-1.26 -0.96,-0.61 -2.56,-1.45 0.54,-0.82 1.18,-1.1 1.63,-2.64 1.17,-3.98 -2.01,-7.44 -5.12,-7.44 -2.03,0 -3.15,0.36 -4.56,1.77 -0.84,0.84 -1.65,2.3 -1.65,3.91z"/>
   <path class="fil2" d="M-989.8 -414.89c1.78,0 1.78,-2.07 0,-2.07 -1.08,0 -1.08,2.07 0,2.07z"/>
  </g>
  <g id="_2186855965072">
   <path class="fil2" d="M-1195.48 -283.76l0 -17.63 4 0 0 17.63c0,3.12 -4,3.12 -4,0zm-49 0l0 -17.63 4 0 0 17.63c0,3.12 -4,3.12 -4,0zm45 -38.13c0,-4.46 3.04,-7.5 7.5,-7.5l0.5 0 0 26 -8 0 0 -18.5zm-40 8.5c1.38,-0.32 2.25,-0.76 3.02,-1.73 1.17,-1.46 0.9,-2.56 0.97,-3.91 0.03,-0.55 0.03,-0.46 0.34,-0.78 0.24,-0.23 0.4,-0.38 0.63,-0.62 0.28,-0.26 0.35,-0.27 0.63,-0.5 0.28,-0.24 0.37,-0.36 0.66,-0.59 6.23,-4.84 14.83,-6.39 22.25,-3.12 1.14,0.51 2.18,0.99 3.2,1.67l3.96 3.17c2.57,2.57 2.34,2.68 2.34,4.91l0 12.01c-0.02,1.87 0.64,1.49 3.75,1.49 -0.02,1 -0.65,3.15 -0.95,4.05 -1.38,4.15 -4,7.79 -7.48,10.4 -3.48,2.6 -6.56,3.75 -10.87,4.38 -3.5,0.5 -7.83,-0.21 -10.95,-1.58 -3.55,-1.57 -5.6,-3.1 -8.1,-5.9l-1.68 -2.2c-0.43,-0.66 -0.73,-0.8 -0.73,-1.89l0.01 -7.64c0.01,-1.03 -0.03,-1.54 -1,-1.62l0 -10zm-4 0l2 0 0 10 -2 0 0 -10zm-4 -4.75c0.38,0.09 0.4,0.15 0.85,0.28 2.04,0.56 5.09,0.65 7.18,0.25 1.04,-0.19 1.42,-0.4 1.97,-0.53 -0.28,3.39 -3.42,2.75 -6.88,2.75 -2.05,0 -2.89,-0.96 -3.12,-2.75zm-2 0.37c0,2.44 1.88,3.88 4,4.38l0 10c-0.62,0.05 -1,0.35 -1,1l0 19.25c0,2.01 1.97,3.75 3.62,3.75 1.22,0 2.1,-0.1 3.1,-1.03 0.58,-0.53 1.11,-1.38 1.25,-2.25 0.24,-1.43 0.03,-5.28 0.03,-6.97 1.73,2 3.04,3.43 5.2,4.93 3.29,2.27 8.19,4.32 12.92,4.32l1.75 0c5.01,0 10.24,-2.34 13.15,-4.48 3,-2.21 5.43,-4.91 7.19,-8.19 0.23,-0.42 0.49,-1.11 0.79,-1.46 0,3.13 0,6.26 0,9.38 0,1.96 -0.18,2.71 0.65,3.98 1.38,2.12 4.43,2.39 6.2,0.62 0.5,-0.5 1.15,-1.54 1.15,-2.47l0 -47.38c0,-1.37 -1.72,-1 -3.62,-1 -3.5,0 -7.01,2.94 -8.05,6.45 -0.43,1.46 -0.33,2.74 -0.33,4.55 -0.55,-0.37 -1.1,-1.03 -1.59,-1.53 -1.42,-1.42 -3.69,-2.99 -5.49,-3.89 -8.55,-4.26 -18.04,-3.23 -25.65,2.44 -0.53,0.39 -1.01,0.88 -1.52,1.23l-0.26 -5.12c-0.05,-0.63 -0.09,-1.74 -0.19,-2.44 -0.17,-1.24 0.02,-1.69 -1.3,-1.69 -0.35,0 -0.68,0.43 -0.76,0.74 -0.11,0.4 0.57,10.13 0.63,10.26 -1.04,0.55 -2.28,0.87 -3.87,0.87l0 -10.87c0,-1.34 -2,-1.34 -2,0l0 10.87c-1.6,0 -2.84,-0.32 -3.88,-0.87 0.26,-0.53 0.26,-4.74 0.41,-5.84l0.25 -4.33c-0.23,-1.17 -1.87,-1.11 -2.02,0.05 -0.22,1.68 -0.76,11.63 -0.76,12.74z"/>
   <path class="fil2" d="M-1219.48 -290.39c-2.03,0 -5.24,-0.8 -6.9,-1.85 -6.3,-3.98 -8.77,-10.65 -5.83,-17.89 1.13,-2.8 4.19,-5.86 6.99,-7 5.69,-2.3 11.32,-1.37 15.58,2.9 1.2,1.2 1.45,1.57 2.31,2.94 0.24,0.38 0.42,0.77 0.58,1.16 2.28,5.62 1.38,11.32 -2.89,15.58 -1.16,1.16 -1.51,1.46 -2.96,2.29 -0.41,0.24 -0.68,0.41 -1.15,0.6 -1.74,0.71 -3.74,1.27 -5.73,1.27zm-16 -14.75c0,3.28 0.21,4.71 1.5,7.62 2.23,5.03 8.13,9.13 13.75,9.13 3.29,0 4.71,-0.21 7.62,-1.5 5.03,-2.23 9.13,-8.13 9.13,-13.75 0,-3.29 -0.21,-4.71 -1.5,-7.62 -2.23,-5.03 -8.13,-9.13 -13.75,-9.13 -3.29,0 -4.71,0.21 -7.63,1.5 -5.02,2.23 -9.12,8.13 -9.12,13.75z"/>
  </g>
  <g id="_2186855963488">
   <path class="fil2" d="M-645.25 -366.08c0.44,0.24 1.08,0.73 1.55,0.84l0 28.4 -1.55 0 0 -29.24zm-50.37 1.2c0,-0.34 0.48,-0.53 0.76,-0.68 0.38,-0.2 0.56,-0.34 0.91,-0.52l0 29.24 -1.67 0 0 -28.04zm-2.51 -0.48l0 -1.79 26.67 -15.59c0.5,-0.3 1.34,-0.88 1.86,-1 0.56,0.37 1.11,0.65 1.72,1.02l21.34 12.44c0.32,0.2 0.59,0.33 0.91,0.52l4.56 2.61 0 1.79c-0.4,-0.1 -5.39,-3.05 -6.23,-3.56l-8.07 -4.7c-3.75,-2.27 -7.81,-4.47 -11.54,-6.73 -3.62,-2.19 -2.18,-1.85 -6.43,0.51l-8.79 5.17c-0.33,0.18 -0.55,0.32 -0.91,0.53l-7.97 4.68c-0.55,0.3 -6.61,3.98 -7.12,4.1zm-1.43 -1.91c0,1.59 -0.4,4.4 1.07,3.83 0.35,-0.13 1.13,-0.64 1.44,-0.85l0 25.9c0,3.54 -0.57,2.99 3.94,2.99 0.28,0 0.35,-0.2 0.59,-0.36l0 -31.15 2.84 -1.7c1.71,-1.02 19.44,-11.52 20.08,-11.67 2.18,1.46 8.97,5.19 11.45,6.69 2.23,1.34 8.93,5.33 11.47,6.68l0 23.63c0,1.91 -0.23,6.28 0.12,7.76 0.9,0.21 3.27,0.21 4.17,0 0.29,-1.25 0.12,-12.11 0.12,-14.33 0,-4.81 0,-9.62 0,-14.44 0.44,0.12 2.63,1.94 2.63,0 0,-0.72 0.14,-3.02 -0.15,-3.55 -0.24,-0.44 -0.89,-0.67 -1.33,-0.93 -0.68,-0.4 -1.22,-0.71 -1.9,-1.09l-9.41 -5.51c-0.35,-0.21 -0.62,-0.34 -0.99,-0.56 -0.39,-0.24 -0.58,-0.36 -0.98,-0.57l-7.54 -4.4c-0.65,-0.39 -1.21,-0.7 -1.88,-1.11l-1.88 -1.09c-4.91,-2.67 -2.82,-3 -7.77,-0.1 -8.11,4.77 -16.51,9.58 -24.53,14.38 -0.89,0.54 -1.56,0.68 -1.56,1.55z"/>
   <path class="fil2" d="M-685.24 -342.45l0 5.61 -2.5 0 0 -22.32c0,-1.4 1.93,-1.79 2.43,-0.52 0.2,0.52 0.07,1.36 0.07,1.96l0 10.14c0,1.1 -0.09,0.99 0.36,1.67l29.84 0c1.37,0 3.11,-0.15 3.11,1.2l0 7.87 -2.51 0c0,-1.43 0.15,-5.17 -0.12,-6.32 -0.29,-0.14 -0.52,-0.24 -0.96,-0.24l-28.76 0c-0.58,0 -0.96,0.38 -0.96,0.95zm1.44 -8.71l25.78 0c1.19,0 2.2,0.38 2.84,0.98 0.91,0.86 1.34,1.47 1.34,2.84l-29.96 0 0 -3.82zm0 -2.86l2.03 0c0.75,0 1.19,0.63 1.19,1.43l-3.22 0 0 -1.43zm-5.37 -5.02l0 22.8c0,0.56 0.27,0.84 0.83,0.84l3.94 0c0.28,0 0.6,-0.32 0.6,-0.6l0 -5.97 27.93 0 0 5.73c0,0.56 0.28,0.84 0.83,0.84l3.94 0c0.28,0 0.6,-0.32 0.6,-0.6l0 -8.71c0,-1.32 -0.92,-1.98 -1.91,-2.51 0,-3.18 -2.48,-5.37 -5.61,-5.37l-21.13 0c0,-1.71 -1.28,-2.86 -2.62,-2.86l-2.03 0 0 -3.94c0,-0.99 -0.73,-1.83 -1.51,-2.2 -2.03,-0.97 -3.86,0.63 -3.86,2.55z"/>
  </g>
  <g id="_2186855955760">
   <path class="fil2" d="M-901.83 -417.53c0,2.09 0.21,3.46 1.39,5.17 1.74,2.51 4.17,3.62 7.4,3.62 1.95,0 9.49,-0.21 10.77,0.25 1.24,0.44 2.36,1.44 2.82,2.69 0.56,1.56 0.3,3.11 -0.48,4.31 -0.6,0.92 -2,2.01 -3.5,2.01l-25.31 0 0 3.63 25.08 0c4.24,0 8.09,-3.74 8.09,-7.97 0,-2.86 -1.08,-5.03 -2.85,-6.53 -2.05,-1.73 -3.94,-2.02 -6.76,-2.02 -2.91,0 -5.91,0.07 -8.8,0 -3.49,-0.08 -5.96,-4.76 -2.96,-7.89 0.69,-0.72 1.95,-1.37 3.32,-1.37l9.26 0 0 -3.64 -8.79 0c-3.36,0 -6.3,1.57 -7.78,4.54 -0.44,0.88 -0.9,1.93 -0.9,3.2z"/>
   <path class="fil2" d="M-877.45 -425.97c-0.41,-0.61 -0.58,-0.73 -1.09,-1.26l-1.12 -1.33c-1.9,-2.4 -4.94,-6.25 -4.94,-9.6 0,-5.9 6.7,-9.2 11.3,-6.02l1.04 0.83c1.2,1.15 2.19,3.32 2.19,5.08 0,3.81 -3.74,8.24 -6.12,11.1 -0.31,0.36 -0.89,0.96 -1.26,1.2zm0.12 4.92c0.96,-0.64 2.77,-2.72 3.43,-3.36 2.8,-2.75 7.35,-9.35 7.35,-13.16l0 -1.17c0,-5.26 -5.11,-10.2 -10.08,-10.2 -2.49,0 -3.95,0.11 -6.1,1.4 -2.53,1.52 -4.57,3.96 -5.18,7.01 -0.36,1.8 -0.36,3.62 0.22,5.35 1.06,3.16 2.41,5.23 4.38,7.81 1.23,1.61 4.6,5.4 5.98,6.32z"/>
   <path class="fil2" d="M-923.04 -412.37c0,-0.99 0.36,-2.24 0.67,-2.97 0.29,-0.67 0.99,-1.69 1.47,-2.17l0.96 -0.79c5.04,-3.5 11.44,0.38 11.44,5.81 0,3.25 -2.95,7.34 -4.89,9.64l-1.12 1.35c-0.46,0.5 -0.76,0.74 -1.14,1.31 -1.25,-0.83 -4.49,-5.17 -5.43,-6.76 -0.34,-0.57 -0.56,-0.98 -0.87,-1.59 -0.43,-0.86 -1.09,-2.63 -1.09,-3.83zm-3.51 -0.59c0,2.74 0.38,3.92 1.6,6.37 0.96,1.93 3.3,5.34 4.87,6.96 1.17,1.2 1.87,2.32 3.39,3.53 0.36,0.28 0.55,0.59 0.92,0.84l1.61 -1.44c0.48,-0.48 1.09,-1.01 1.5,-1.54 0.3,-0.39 0.4,-0.47 0.73,-0.8l2.09 -2.48c2.88,-3.7 5.66,-8.15 4.67,-13.13 -0.92,-4.61 -5.41,-8.51 -9.9,-8.51 -2.06,0 -3.53,0.05 -5.41,1.04 -3.33,1.77 -6.07,5.16 -6.07,9.16z"/>
   <path class="fil2" d="M-919.29 -412.37c0,0.99 0.47,1.9 0.96,2.43 1.91,2.02 6.07,1.28 6.07,-2.79 0,-0.87 -0.61,-1.73 -1.08,-2.2 -2.08,-2.06 -5.95,-0.65 -5.95,2.56z"/>
   <path class="fil2" d="M-880.85 -438.51c0,4.07 4.17,4.81 6.07,2.79 1.97,-2.09 0.79,-5.95 -2.67,-5.95 -0.98,0 -1.81,0.46 -2.32,0.96 -0.47,0.46 -1.08,1.33 -1.08,2.2z"/>
  </g>
  <g id="_2186855957440">
   <path class="fil2" d="M-847.17 -277.06c-0.41,-0.77 -7.4,-9.54 -8.44,-10.9l-3.64 -4.69c-5.59,-7.77 -2.18,-19.5 7.67,-22.7 4.8,-1.57 10.54,-0.38 14.17,2.86l1.12 1.11c2.78,3.03 4.66,7.1 3.96,12 -0.79,5.61 -3.69,8 -6.6,11.92 -0.45,0.61 -0.88,1.14 -1.34,1.71l-4.1 5.28c-0.45,0.6 -2.35,3.11 -2.8,3.41zm-9.03 -7.62c-1.62,0.04 -5.37,1 -6.92,1.41 -2.26,0.59 -5.37,1.7 -7.39,2.92 -1.47,0.89 -2.41,1.55 -3.71,2.62 -0.7,0.58 -1.44,1.54 -1.87,2.35 -1.57,2.95 -1.18,5.82 0.92,8.38 5.33,6.51 19.47,8.59 26.71,8.59 5.99,0 11,-0.38 16.62,-1.79 2.68,-0.66 5.23,-1.54 7.64,-2.79 0.52,-0.27 1.1,-0.64 1.63,-0.96 0.62,-0.37 1,-0.69 1.59,-1.1 0.36,-0.24 0.4,-0.32 0.69,-0.61 0.98,-0.98 0.85,-0.63 1.86,-2 1.96,-2.63 1.77,-6 -0.15,-8.56 -1.62,-2.16 -4.07,-3.83 -6.55,-4.94 -0.96,-0.43 -3.58,-1.52 -4.57,-1.52 -0.95,0 -1.37,1.72 -0.07,2.3l4.33 1.76 2.47 1.52c1.64,1.13 3.11,2.51 3.47,4.62 0.22,1.26 -0.17,2.27 -0.73,3.14 -1.56,2.43 -4.37,4.03 -6.99,5.08 -4.33,1.73 -8.45,2.53 -13.07,3.11 -0.88,0.12 -6.68,0.49 -7.67,0.36l-3.9 -0.21c-1.27,0 -2.45,-0.21 -3.64,-0.34 -3.91,-0.43 -7.78,-1.49 -11.3,-2.88l-2.69 -1.31c-0.52,-0.26 -0.82,-0.49 -1.29,-0.81 -1.22,-0.81 -2.24,-1.69 -3.05,-2.93 -2.39,-3.64 0.87,-6.81 3.82,-8.59 3.57,-2.15 7.89,-3.4 12.07,-4.11 1.02,-0.17 2.55,-0.48 3.62,-0.48 0.51,0.77 1.1,1.43 1.67,2.19 0.31,0.42 0.56,0.73 0.88,1.12 0.32,0.4 0.55,0.73 0.87,1.12l2.57 3.29c0.46,0.59 0.67,0.84 1.51,0.84 0.57,0 2.62,-2.86 2.98,-3.35 0.33,-0.44 0.65,-0.77 0.89,-1.22 0.35,0.16 2.74,0.38 3.28,0.47 1.53,0.25 7.98,1.6 7.98,3.75 0,1.4 -3.25,2.53 -4.5,2.89 -2.09,0.61 -4.02,0.85 -6.22,1.16 -1.15,0.16 -2.31,0.15 -3.48,0.16 -0.6,0.01 -0.68,0.13 -1.16,0.13 -0.49,0 -0.48,-0.11 -1.06,-0.13 -1.2,-0.03 -2.4,0.01 -3.58,-0.16 -1.52,-0.21 -2.86,-0.31 -4.28,-0.65 -2.11,-0.51 -9.44,-2.43 -5.04,-5.05 0.47,-0.29 1.41,-0.68 1.41,-1.4 0,-0.6 -0.49,-1.29 -1.05,-1.29 -0.96,0 -2.11,0.96 -2.7,1.4 -2.39,1.79 -1.91,4.71 0.91,6.48 6.13,3.83 19.81,3.94 26.66,1.75 2.65,-0.85 6.55,-2.13 6.55,-5.53 0,-2.28 -2.85,-3.74 -4.59,-4.44 -1.14,-0.45 -2.17,-0.74 -3.41,-1.04 -1.26,-0.32 -2.59,-0.44 -3.84,-0.73 0.13,-0.52 1.31,-1.78 1.65,-2.21 1.76,-2.2 5.49,-6.86 6.74,-8.74 3.93,-5.89 3.76,-13.78 -0.3,-19.53 -0.85,-1.2 -1.81,-2.22 -2.91,-3.2 -0.36,-0.32 -0.82,-0.62 -1.2,-0.91 -2.31,-1.75 -5.91,-3.16 -9.14,-3.16 -1.73,0 -3.36,0.08 -5.02,0.49 -1.82,0.44 -3.49,1.25 -5.07,2.2 -1.09,0.65 -2.13,1.47 -3.02,2.37 -2.36,2.42 -3.6,4.96 -4.55,8.23 -0.55,1.89 -0.55,4.48 -0.26,6.5 0.56,3.95 2.43,6.83 4.77,9.77 0.4,0.49 3.04,3.65 3.18,4.2z"/>
   <path class="fil2" d="M-857.61 -301.56c0,2.77 0.38,4.66 2.03,6.89 3.81,5.13 11.35,5.84 15.83,1.35 0.88,-0.89 1.63,-1.76 2.16,-3 0.78,-1.82 1.09,-2.54 1.09,-4.77 0,-0.87 -0.22,-2.35 -0.47,-2.94 -0.35,-0.85 -1.51,-1.07 -2.05,-0.28 -0.73,1.05 0.76,2.66 -0.22,5.64 -2.12,6.48 -9.48,7.61 -13.61,3.49 -5.56,-5.57 -0.64,-13.88 5.21,-13.88l1.29 0c0.76,0 1.38,0.36 1.99,0.33 1.2,-0.04 2.9,-2.8 -2.81,-2.8 -2.23,0 -5,0.99 -6.54,2.38 -1.22,1.1 -1.92,1.68 -2.84,3.48 -0.48,0.93 -1.06,2.7 -1.06,4.11z"/>
   <path class="fil2" d="M-841.66 -307.54c0,1.48 2.46,1.55 2.46,0 0,-0.98 -1.26,-1.64 -2.07,-0.9 -0.17,0.16 -0.39,0.64 -0.39,0.9z"/>
   <path class="fil2" d="M-835.92 -283.04c0,1.64 2.47,1.79 2.47,0.12 0,-1.07 -1.35,-1.55 -2.03,-0.85 -0.1,0.1 -0.44,0.63 -0.44,0.73z"/>
   <path class="fil2" d="M-857.14 -277.52c1.69,0 1.69,-2.35 0,-2.35 -1.48,0 -1.45,2.35 0,2.35z"/>
  </g>
  <g id="_2186859466960">
   <path class="fil2" d="M-1137.97 -425.42l-2.36 -2.29 -1.44 1.51c0.86,0.58 2.46,2.43 3.33,3.26 0.71,0.68 0.47,0.94 0.47,2.8 0,1.13 0,2.27 0,3.4l-4.53 -2.64c-0.72,-0.42 -0.59,-0.84 -1.01,-2.52 -0.16,-0.67 -0.51,-2.39 -0.75,-2.89 -0.67,0.15 -1.34,0.34 -2.01,0.5 0.23,1.01 0.52,2.01 0.75,3.02 -0.75,-0.2 -1.48,-1.07 -2.26,-1.13 -0.17,0.61 -0.73,1.06 -0.88,1.63 0.36,0.5 1.64,0.89 2.01,1.39 -1.01,0.23 -2.01,0.52 -3.02,0.75 0.16,0.68 0.35,1.34 0.5,2.01l4.25 -1.03c1.26,-0.33 0.86,-0.25 2.4,0.68 0.4,0.24 0.68,0.41 1.1,0.66l2.32 1.58 -4.43 2.63c-0.52,0.35 -0.61,0.25 -1.28,0.07l-4.36 -1.06c-0.15,0.67 -0.34,1.34 -0.5,2.01 1.01,0.23 2.01,0.52 3.02,0.75 -0.37,0.5 -1.65,0.89 -2.01,1.39 0.15,0.57 0.71,1.02 0.88,1.63 0.78,-0.06 1.51,-0.93 2.26,-1.13 -0.23,1.01 -0.52,2.01 -0.75,3.02 0.67,0.16 1.34,0.35 2.01,0.5l1.08 -4.2c0.32,-1.36 0.22,-0.91 2.89,-2.52l2.32 -1.33 0 4.91c0.01,0.88 0.07,0.77 -0.4,1.23 -0.86,0.82 -2.56,2.75 -3.38,3.3l1.42 1.48 2.33 -2.27 0.03 2.55 2.01 0 0 -2.52 2.3 2.24 1.5 -1.45c-0.86,-0.59 -2.46,-2.44 -3.33,-3.27 -0.71,-0.67 -0.47,-0.93 -0.47,-2.8 0,-1.13 0,-2.27 0,-3.4l4.53 2.64c0.72,0.42 0.59,0.85 1.01,2.52 0.16,0.67 0.51,2.39 0.75,2.89 0.56,-0.13 1.57,-0.29 2.01,-0.5 -0.23,-1.01 -0.52,-2.01 -0.75,-3.02 0.74,0.2 1.48,1.07 2.26,1.13 0.15,-0.56 0.72,-1.01 0.88,-1.63 -0.35,-0.48 -1.31,-0.78 -2.01,-1.39 1.01,-0.23 2.01,-0.52 3.02,-0.75 -0.16,-0.67 -0.35,-1.34 -0.5,-2.01l-4.23 1.06c-0.75,0.19 -0.74,0.3 -1.32,-0.04l-3.3 -1.99c-0.37,-0.22 -0.83,-0.57 -1.22,-0.67l4.44 -2.86c0.76,-0.47 1.16,-0.14 2.71,0.24 0.92,0.24 1.95,0.51 2.92,0.73 0.15,-0.67 0.34,-1.33 0.5,-2.01 -1.01,-0.23 -2.01,-0.52 -3.02,-0.75 0.7,-0.61 1.66,-0.9 2.01,-1.39 -0.16,-0.61 -0.73,-1.06 -0.88,-1.63 -0.78,0.06 -1.52,0.93 -2.26,1.13 0.23,-1.01 0.52,-2.01 0.75,-3.02 -0.44,-0.21 -1.45,-0.37 -2.01,-0.5l-1.08 4.2c-0.32,1.36 -0.22,0.91 -2.89,2.52 -0.41,0.25 -0.69,0.42 -1.1,0.66 -0.37,0.22 -0.83,0.57 -1.22,0.67l-0.01 -4.91c-0.01,-0.93 -0.03,-0.8 0.48,-1.29 0.75,-0.71 2.84,-2.66 3.3,-3.36l-1.48 -1.41 -2.26 2.32 -0.03 -2.55 -2.01 0 0 2.52z"/>
   <path class="fil2" d="M-1101.74 -423.91c0.58,0 1.73,0.4 2.12,0.65 3.33,2.15 1.2,5.57 1.15,5.76 0.22,0.34 1.23,1.05 1.63,1.26 0.46,-0.87 0.72,-1.63 2.14,-1.63 2.54,0 4.11,3.28 2.05,5.19 -0.52,0.48 -1.35,0.84 -2.3,0.84l-13.59 0c-2.98,0 -4.23,-3.25 -2.36,-5.13 1.77,-1.76 4.89,-0.78 5.13,2.12l2.01 0c0,-1.26 -0.3,-2.2 -0.98,-3.04 -0.43,-0.54 -1.28,-0.84 -0.94,-2.53 0.42,-2.11 2.02,-3.49 3.94,-3.49zm-6.04 3.52l0 0.5 -1.39 0c-2.32,0 -4.65,2.34 -4.65,4.66l0 0.75c0,2.32 2.33,4.66 4.65,4.66l14.85 0c2.32,0 4.65,-2.34 4.65,-4.66l0 -0.75c0,-2.32 -2.33,-4.66 -4.65,-4.66l-1.39 0c0,-2.4 -1.24,-4.42 -3.35,-5.45 -2.27,-1.11 -5.2,-0.66 -7,1.14 -0.87,0.87 -1.72,2.5 -1.72,3.81z"/>
   <path class="fil2" d="M-1129.29 -391.83l1.35 -1.42 0.03 1.54 2.01 0 0 -2.51c0.48,0.31 0.8,0.75 1.23,1.16 0.72,0.68 0.54,0.55 0.54,1.85 -0.01,1.41 0.19,3.39 0.62,4.28 -1.62,-0.03 -3.77,-1.7 -4.83,-3.09 -0.29,-0.37 -0.31,-0.41 -0.54,-0.85l-0.41 -0.96zm3.49 -5.26c0.22,-0.82 0.49,-1.56 0.66,-2.29 2.63,1.39 1.71,3.63 1.63,4.53l-2.29 -2.24zm-4.12 2.87c0,-1.44 -0.09,-2.67 0.37,-3.66 0.39,-0.84 1.26,-1.52 2.27,-1.75 -0.05,0.57 -0.29,0.96 -0.43,1.58 -0.48,2.21 0.39,1.29 -1.17,2.85 -0.36,0.36 -0.64,0.71 -1.04,0.98zm3.77 -7.55c-1.62,0 -2.67,0.19 -3.99,1.29 -2.08,1.74 -1.79,3.97 -1.79,6.26 0,2.9 1.82,5.77 3.43,7.13 2.68,2.27 4.94,2.43 8.26,2.43 -0.28,-1.24 -2.71,-3.87 -1.53,-8.84 0.37,-1.57 0.96,-2.77 0.33,-4.55 -0.51,-1.42 -1.24,-2.39 -2.57,-3.09 0.56,-0.83 0.93,-1.21 1.76,-1.76 -0.3,-0.58 -0.76,-1.09 -1.13,-1.64 -0.93,0.22 -2.26,2.01 -2.77,2.77z"/>
   <path class="fil2" d="M-1117.47 -393.09c0,-0.72 0.2,-0.9 0.25,-1.51l2.3 2.23c-0.22,0.83 -0.49,1.57 -0.66,2.3 -1.14,-0.61 -1.89,-1.58 -1.89,-3.02zm4.03 3.27c0.05,-0.59 0.3,-0.95 0.43,-1.58 0.45,-2.19 -0.37,-1.32 1.17,-2.86 0.36,-0.36 0.64,-0.7 1.04,-0.97 0,2.15 0.23,4.74 -2.64,5.41zm-3.78 -12.71c0.74,0.02 1.43,0.4 1.98,0.67 1.58,0.79 3.41,2.54 3.81,4.24l-1.35 1.41 -0.03 -1.54 -2.02 0 0 2.52c-0.47,-0.32 -0.8,-0.75 -1.22,-1.16 -0.72,-0.69 -0.55,-0.56 -0.54,-1.86 0.01,-1.4 -0.2,-3.38 -0.63,-4.28zm0.51 14.22c-0.56,0.83 -0.93,1.2 -1.76,1.76 0.3,0.58 0.76,1.08 1.13,1.63 0.93,-0.21 2.25,-2 2.77,-2.76 1.63,0 2.79,-0.24 4.05,-1.35 1.98,-1.75 1.73,-3.85 1.73,-6.2 0,-4.1 -3.11,-7.81 -6.81,-9.04 -1.72,-0.58 -2.64,-0.52 -4.89,-0.52 0.17,0.71 1.15,2.02 1.59,3.95 1.05,4.71 -1.42,6.34 -0.38,9.43 0.49,1.47 1.33,2.44 2.57,3.1z"/>
   <path class="fil2" d="M-1125.9 -431.96c0,-0.83 0.3,-1.82 0.58,-2.45 1.63,-3.77 6.68,-4.83 9.71,-1.8 3.18,3.18 1.7,8.24 -1.69,9.7 -2.51,1.08 -4.97,0.55 -6.74,-1.14 -1.12,-1.06 -1.86,-2.75 -1.86,-4.31zm-2.01 -0.51l0 1.01c0,3.8 3.75,7.55 7.55,7.55l1 0c3.8,0 7.55,-3.75 7.55,-7.55l0 -1.01c0,-3.79 -3.75,-7.54 -7.55,-7.54l-1 0c-3.8,0 -7.55,3.75 -7.55,7.54z"/>
   <path class="fil2" d="M-1109.17 -437.62c4.54,2.4 7.72,4.92 10.55,9.33 0.26,0.4 0.92,1.45 1.03,1.86l1.86 -0.92c-0.16,-0.66 -1.85,-3.13 -2.33,-3.77 -0.99,-1.32 -1.82,-2.18 -2.96,-3.33 -1.47,-1.47 -5.72,-4.67 -7.39,-5.06 -0.17,0.71 -0.69,1.15 -0.76,1.89z"/>
   <path class="fil2" d="M-1107.28 -393.09c0.15,0.28 0.25,0.52 0.43,0.83 0.23,0.37 0.34,0.47 0.45,0.93 1.13,-0.09 5.06,-3.61 5.69,-4.25 0.91,-0.91 1.6,-1.61 2.38,-2.65 0.44,-0.59 1.83,-2.42 2,-3.04 -0.6,-0.31 -1.17,-0.69 -1.77,-1 -2.43,3.62 -3.38,5.06 -7.06,7.78l-2.12 1.4z"/>
   <path class="fil2" d="M-1142 -430.45c0.56,0.37 1.08,0.75 1.64,1.13 0.27,-0.52 0.54,-0.8 0.89,-1.24 2.43,-3.07 5.2,-5.1 8.67,-6.94l-0.88 -1.88c-1.08,0.56 -2.02,1.09 -3.05,1.73 -0.52,0.33 -0.9,0.63 -1.39,1 -0.25,0.19 -0.39,0.29 -0.65,0.48 -0.33,0.25 -0.4,0.35 -0.68,0.58 -0.94,0.75 -4.3,4.05 -4.55,5.14z"/>
   <path class="fil2" d="M-1142 -399.13c1.12,2.11 5.51,6.15 7.68,7.3 0.29,-0.44 0.96,-1.39 1,-1.89 -0.39,-0.11 -0.71,-0.38 -1.02,-0.61 -1.7,-1.26 -2.08,-1.57 -3.6,-3.07 -0.59,-0.58 -1.96,-2.23 -2.3,-2.86 -0.28,0.19 -0.52,0.33 -0.82,0.55 -0.34,0.25 -0.51,0.47 -0.94,0.58z"/>
   <polygon class="fil2" points="-1099.51,-405.45 -1098.07,-404.07 -1094.98,-407.08 -1096.36,-408.54 "/>
   <polygon class="fil2" points="-1111.53,-405.52 -1110.14,-404.06 -1107.06,-407.08 -1108.44,-408.54 "/>
   <polygon class="fil2" points="-1105.49,-405.52 -1104.11,-404.06 -1101.02,-407.08 -1102.4,-408.54 "/>
   <polygon class="fil2" points="-1120.86,-442.03 -1118.85,-442.03 -1118.85,-445.04 -1120.86,-445.04 "/>
   <polygon class="fil2" points="-1132.94,-430.96 -1129.92,-430.96 -1129.92,-432.97 -1132.94,-432.97 "/>
   <polygon class="fil2" points="-1109.79,-430.96 -1106.78,-430.96 -1106.78,-432.97 -1109.79,-432.97 "/>
   <polygon class="fil2" points="-1120.86,-418.88 -1118.85,-418.88 -1118.85,-421.9 -1120.86,-421.9 "/>
   <polygon class="fil2" points="-1113.54,-424.26 -1111.53,-422.18 -1110.02,-423.63 -1112.16,-425.7 "/>
   <polygon class="fil2" points="-1129.64,-440.36 -1127.63,-438.28 -1126.12,-439.73 -1128.19,-441.74 "/>
   <polygon class="fil2" points="-1113.54,-439.73 -1112.16,-438.28 -1110.02,-440.36 -1111.46,-441.74 "/>
  </g>
  <path class="fil2" d="M-1039.42 -357.5l3.28 0 0 12.54 -3.28 0 0 -12.54zm-13.47 -13.25l34.68 0 0 9.73 -34.68 0c-0.36,0 -1.01,-0.83 -1.27,-1.08 -0.69,-0.7 -3.16,-3.39 -3.66,-3.72 0.15,-0.23 4.54,-4.93 4.93,-4.93zm13.47 -7.03l3.28 0 0 3.52 -3.28 0 0 -3.52zm16.88 -3.51l-34.81 0 0 -9.61 34.81 0c0.31,0 2.19,1.98 2.49,2.31l1.11 1.23c0.43,0.43 0.88,0.78 1.2,1.26 -0.37,0.25 -0.89,0.79 -1.19,1.16 -0.79,0.99 -2.06,2.09 -2.94,3.03 -0.47,0.51 -0.3,0.62 -0.67,0.62zm-16.88 -16.64l3.28 0 0 3.4 -3.28 0 0 -3.4zm-3.63 -1.76l0 5.16 -14.42 0c-1.66,0 -3.39,1.53 -3.39,3.16l0 10.43c0,1.51 1.65,3.16 3.16,3.16l14.65 0 0 3.52 -10.9 0c-1.16,0 -1.74,1.01 -2.32,1.67 -0.61,0.7 -1.37,1.38 -2.05,2.05l-1.93 2.05c-1.34,1.34 -1.79,1.42 -1.79,2.9 0,0.83 1.94,2.43 2.73,3.25l0.99 1.12c0.7,0.69 1.3,1.3 2,1.99 0.65,0.65 1.16,1.73 2.37,1.73l10.9 0 0 12.54c-1.28,0 -3.52,-0.36 -3.52,1.76 0,0.97 0.69,1.75 1.76,1.75l14.06 0c1.6,0 2.33,-1.84 1.27,-3.02 -0.62,-0.68 -1.9,-0.49 -3.02,-0.49l0 -12.54 14.41 0c1.69,0 3.4,-1.53 3.4,-3.17l0 -10.43c0,-1.56 -1.75,-3.16 -3.16,-3.16l-14.65 0 0 -3.52 11.13 0c0.78,0 1.85,-1.26 2.23,-1.75 0.61,-0.81 2.11,-2.14 2.96,-3.02l0.93 -1.06c1.31,-1.3 1.73,-1.31 1.73,-2.84 0,-0.79 -1.95,-2.48 -2.72,-3.25 -0.39,-0.38 -0.54,-0.67 -0.94,-1.06 -0.7,-0.68 -1.3,-1.3 -1.99,-1.99l-0.94 -1.06c-0.26,-0.28 -0.88,-0.72 -1.38,-0.72l-11.01 0 0 -5.16c0,-0.97 -0.69,-1.76 -1.76,-1.76l-7.03 0c-1.07,0 -1.76,0.79 -1.76,1.76z"/>
  <g id="_2186859516928">
   <path class="fil2" d="M-1000.11 -499.62l53.44 0c0.38,0 1.08,1.6 1.17,2l-55.79 0c0.1,-0.4 0.79,-2 1.18,-2zm26.6 -15.12l0.24 0c0.39,1.47 2.84,1.62 2.81,5.27 -0.02,3.16 -0.13,5.18 0.47,7.74l-12.19 0c1.79,-2.67 8.67,-9.77 8.67,-13.01zm-12.07 13.01c-1.31,0 -2.23,-0.7 -2.23,-1.87 0,-1.22 4.31,-6.61 5.19,-7.82 2.19,-2.99 3.49,-4.45 3.6,-9.53 0.3,0.2 3.75,4.06 3.75,4.1 0,4.01 -2.52,6.01 -4.3,8.36 -0.92,1.21 -4.6,6.76 -6.01,6.76zm15.47 -23.32c0,-0.58 1.74,-5.56 1.99,-5.74 0.36,1.32 2.63,3.16 4.46,3.16l6.21 0 0 25.9 -5.39 0c0.15,-0.65 0.47,-0.97 0.47,-1.87l0 -10.31c0,-4.26 -7.74,-9.6 -7.74,-11.14zm-11.49 0.24c-0.92,0 -3.18,-0.97 -4.11,-1.28 -1.2,-0.4 -3.5,-0.77 -3.5,-2.01 0,-2.25 4.82,0.82 5.97,0.82 0.47,0 0.94,-0.53 0.94,-1.05 0,-1.54 -4.69,-1.93 -4.69,-2.93 0,-1.12 0.66,-2.08 0.94,-3.28l7.51 2.55c-0.57,1.19 -1.93,7.18 -3.06,7.18zm10.2 -10.91c0,2.1 2.37,0.8 1.01,4.88 -0.64,1.93 -1.71,4.37 -1.71,6.03 0,2.4 7.62,7.95 7.62,10.54l0 10.9c0,1.18 -1.59,2.07 -2.78,1.5 -2.76,-1.33 0.78,-7.87 -2.56,-11.98 -1.68,-2.07 -8.49,-8.4 -8.49,-10.96l0 -0.94c0,-1.22 2.43,-7.95 2.94,-9.48 0.9,-2.71 1.83,-7.29 5.77,-6.28 2.02,0.53 4.44,5.07 5.61,6.83 0.83,1.25 1.49,2.78 3.17,3.03 1.97,0.3 5.36,-0.85 5.36,1.21 0,0.54 -0.69,0.82 -1.29,0.82l-5.86 0c-4.6,0 -5.6,-7.03 -7.85,-7.03 -0.57,0 -0.94,0.37 -0.94,0.93zm-6.5 1.74l-7.44 -2.56 1.31 -3.74 7.35 2.59 -1.22 3.71zm1.93 -5.72l-7.37 -2.49c0.97,-4.17 1.39,-3.74 5.02,-2.42 3.75,1.37 4.33,0.78 2.35,4.91zm-10.67 -2.23c0,1.28 0.99,0.03 0.23,2.22 -0.16,0.43 -0.78,2.09 -0.81,2.47 -1.23,0 -1.29,0.52 -1.29,1.29 0,0.98 0.89,-0.39 0.01,2.24 -0.33,1.01 -0.6,1.46 -0.6,2.8 -1.44,0.34 -2.22,1.52 -2.22,3.17 0,2.23 2.57,2.83 4.32,3.41 1.02,0.33 4.97,2.05 6.11,1.51 0,0.8 -0.75,6.05 -0.95,6.66 -0.3,0.89 -2.43,3.62 -3.1,4.52 -1.13,1.49 -2.13,2.92 -3.23,4.39 -1.67,2.22 -2.01,2.36 -1.28,5.52 -2.97,0 -5.94,0.01 -8.9,0 -1.67,0 -2.84,-0.11 -3.63,0.84 -0.44,0.52 -1.41,2.38 -1.41,3.38 0,1.02 0.85,1.88 1.87,1.88l56.26 0c3.28,0 2,-6.1 -1.99,-6.1l-8.09 0 0 -26.13c1.75,-0.41 3.47,-3.79 0,-5.63 0,-1.55 0.03,-3.14 0.01,-4.7 -0.04,-2.29 -2.12,-1.61 -2.12,-0.34l0 4.81 -2.93 0c-2.07,0 -4.54,-9.96 -9.96,-9.96 -0.93,0 -1.65,0.03 -2.46,0.46 -0.48,-2.04 -1.65,-2.19 -3.46,-2.87 -1.85,-0.7 -3.92,-1.58 -5.57,-1.58 -1.52,0 -2.32,1.37 -2.71,2.56 -0.12,0.36 -0.52,1.69 -0.67,1.91 -0.38,0.57 -1.43,0.3 -1.43,1.27z"/>
   <path class="fil2" d="M-961.44 -549.78c0,2.37 -1.74,4.1 -3.86,4.1 -3.68,0 -5.27,-4.15 -2.96,-6.71 2.28,-2.53 6.82,-0.85 6.82,2.61zm-9.96 -0.12l0 0.71c0,2.93 2.99,5.62 5.98,5.62 3.3,0 6.09,-2.78 6.09,-6.09 0,-3.1 -2.66,-5.98 -5.74,-5.98l-0.82 0c-2.78,0 -5.51,2.87 -5.51,5.74z"/>
  </g>
  <g id="_2186859516784">
   <rect class="fil0" x="-1070.3" y="-244.65" width="60" height="60"/>
   <g id="_2906906575232">
    <path class="fil1" d="M-1068.54 -189.45l56.49 0 0 1.99 -56.49 0 0 -1.99zm-1.76 3.04l0 -3.94c0.13,-1.14 0.66,-0.98 2.58,-0.98l0 -14.88c0,-0.57 0.37,-0.94 0.94,-0.94l7.5 0c0.57,0 0.94,0.37 0.94,0.94l0 5.62c0,1.32 -1.76,1.06 -1.76,0.24l0 -4.93 -5.74 0 0 13.95 5.74 0 0 -5.39c0,-0.52 0.89,-0.99 1.5,-0.44 0.5,0.45 0.26,4.52 0.26,5.83l5.74 0 0 -30.23c0,-0.43 0.32,-0.94 0.7,-0.94l7.86 0c0.54,0 0.82,0.27 0.82,0.82l0 11.95c0,1.18 -1.76,1.1 -1.76,-0.12l0 -10.89 -5.74 0 0 29.41 5.74 0 0 -14.3c0,-1.22 1.76,-1.29 1.76,-0.11l0 14.41 5.85 0 0 -22.27c0,-0.48 0.65,-0.7 1.18,-0.7l7.15 0c0.57,0 1.05,0.48 1.05,1.06l0 21.91 5.74 0 0 -24.84c0,-1.35 1.76,-1.04 1.76,-0.24l0 25.08 5.74 0 0 -35.27 -5.74 0 0 6.32c0,1.21 -1.76,0.99 -1.76,0.12l0 -7.38c0,-0.57 0.37,-0.94 0.94,-0.94l7.5 0c0.57,0 0.94,0.37 0.94,0.94l0 36.21c1.22,0 2.58,-0.24 2.58,0.94l0 3.98c0,0.29 -0.42,0.71 -0.71,0.71l-58.59 0c-0.29,0 -0.71,-0.42 -0.71,-0.71zm34.69 -26.01l5.74 0 0 21.09 -5.74 0 0 -21.09z"/>
    <path class="fil1" d="M-1062.8 -214.77c-1.83,0 -3.04,-1.22 -3.04,-2.34 0,-1.3 -0.08,-1.66 0.9,-2.61 1.71,-1.65 4.59,-0.51 4.79,1.95 0.13,1.51 -1.17,3 -2.65,3zm27.19 -9.96c0,-1.37 1.22,-2.81 2.58,-2.81 4.59,0 3.78,5.82 0.24,5.72 -1.49,-0.04 -2.82,-1.31 -2.82,-2.91zm-12.18 -5.39c-3.83,0 -4.03,-5.74 0.11,-5.74 0.79,0 1.5,0.47 1.91,0.9 1.78,1.84 0.3,4.84 -2.02,4.84zm33.04 -9.14l0 0.7c0,1.19 -1.27,2.46 -2.46,2.46 -1.34,0 -2.5,-0.32 -3.04,-1.76 -0.83,-2.29 1.21,-4.53 3.65,-3.76 0.86,0.27 1.85,1.27 1.85,2.36zm-7.5 0.23c0,1.76 0.5,1.93 0.71,2.7 -0.45,0.24 -3.25,2.96 -4.25,3.84 -1.02,0.9 -3.22,3.25 -4.19,3.9 -0.57,-0.16 -2.45,-1.57 -4.8,-0.35 -0.17,0.08 -0.63,0.36 -0.8,0.49 -0.3,0.26 -0.39,0.45 -0.73,0.68l-1.78 -0.92c-0.31,-0.19 -0.49,-0.27 -0.84,-0.45l-4.41 -2.39c0.03,-1.47 0.66,-2.95 -1.32,-4.89 -2.18,-2.15 -5.94,-1.62 -7.47,1.49 -0.84,1.69 -0.44,3.09 0.35,4.58 -0.41,0.61 -4.37,4.34 -5.36,5.42 -0.96,1.03 -2.22,2.64 -3.31,3.37 -3.83,-2.03 -7.27,0.58 -7.27,3.98 0,3.94 4.76,6.3 7.95,3.37 1.66,-1.52 1.9,-4.13 0.61,-6.06l8.67 -8.79c1.11,0.58 1.85,0.88 3.38,0.68 1.08,-0.13 2.34,-0.88 2.83,-1.62l7.03 3.87c-0.11,1.4 -0.41,2.72 0.74,4.18 0.12,0.15 0.36,0.46 0.47,0.58 1.81,1.8 4.93,1.78 6.68,-0.04 1.59,-1.67 1.72,-3.79 0.67,-5.78l6.71 -6.3c0.5,-0.45 1.07,-1.19 1.61,-1.55 1.05,0.25 1.09,0.82 2.81,0.82 2.64,0 4.69,-2.06 4.69,-4.92 0,-2.29 -2.04,-4.46 -4.81,-4.46 -2.47,0 -4.57,2.1 -4.57,4.57z"/>
   </g>
  </g>
  <path class="fil3" d="M-343.8 -182.16l-6.42 0 0 -1.87 6.42 0c0.52,0 1.05,0.48 1.05,0.94 0,0.46 -0.53,0.93 -1.05,0.93zm-23.59 -4.9l4.95 2.76c0.57,0.3 1.24,0.75 0.89,1.54 -0.56,1.24 -2.21,0 -3.39,-0.68l-3.38 -1.87c0.11,-0.42 0.71,-1.34 0.93,-1.75zm4.44 0.11c-0.56,-0.04 -2.22,-1.09 -2.8,-1.4 0.1,-0.44 0.28,-0.65 0.5,-1.01l2.98 -5.08c0.4,-0.68 0.84,-1.41 0.84,-2.43l0 -4.91c3.44,0 2.8,-0.72 2.8,5.61 0,1.09 -0.25,2 -0.66,2.72l-3.07 5.34c-0.23,0.38 -0.48,0.69 -0.59,1.16zm6.42 -14.83l3.97 0c0.53,0.79 1.14,1.47 1.72,2.25l2.6 3.36c1,1.3 1.76,2 1.76,4.2l0 6.07 -2.81 0 0 -5.49c0,-1.96 -1.94,-3.8 -3.29,-5.46 -0.62,-0.75 -3.5,-4.07 -3.95,-4.93zm-5.84 -4.32l6.92 1.49c0.66,0.16 1.73,0.49 2.43,0.49l0 0.47 -9.35 0 0 -2.45zm-9.34 -0.47l0 -0.81 5.61 0c0.23,0 0.91,0.59 1.87,0.81l0 1.05 -6.43 0c-0.58,0 -1.05,-0.47 -1.05,-1.05zm3.74 -5.14c0,1.97 0.27,1.55 0.35,2.46l-4.09 0 0 -7.48 7.01 0c-0.95,1.42 -3.27,2.51 -3.27,5.02zm6.54 -0.46c0,1.35 1.06,1.23 3.52,1.84 1.19,0.3 7.53,1.81 8.06,2.22 1.05,0.79 0.54,2.89 -1.31,2.49 -2.82,-0.59 -5.58,-1.31 -8.39,-1.89 -1.8,-0.38 -4.86,-0.75 -5.82,-1.89 -2.23,-2.65 1.13,-4.83 1.86,-5.66 0.67,-0.77 2.58,-2.91 3.28,-3.27 1.77,-0.92 3.36,1.23 1.92,2.74 -0.49,0.53 -3.12,2.86 -3.12,3.42zm19.73 -5.14c-0.02,-0.32 -0.05,-0.32 -0.11,-0.59 -0.34,0.03 -1.63,0.36 -1.87,0.47 0.1,0.42 0.35,1.32 0.35,1.75 0,0.3 -2.27,2.46 -4.67,2.46 -2.54,0 -1.24,-0.03 -3.16,-0.47 0,-0.78 0.16,-2 -0.11,-2.57 1.51,0.35 3.63,2.04 6.51,-0.85 0.49,-0.49 2.15,-2.42 2.83,-2.42 0.74,0 1.78,1.19 0.23,2.22zm-26.39 -5.02c1,0 2.22,0.59 2.72,1.13 0.35,0.38 1.24,1.96 1.25,2.6l-7.59 0c0.05,-2.1 1.77,-3.73 3.62,-3.73zm6.19 2.8l0 0zm0 0c0.02,-0.85 0.54,-1.4 0.7,-2.1 0.9,0.07 0.25,0.24 2.1,0.23 0.77,0 1.59,-0.03 2.35,-0.01 0.79,0.02 1.09,0.41 1.47,0.86 2.49,2.99 2.26,4.84 2.26,9.43 -1.15,-0.1 -4.47,-1.26 -5.49,-1.29 0.27,-1.01 3.91,-2.68 2.45,-5.95 -0.76,-1.72 -2.53,-2.51 -4.34,-2.01 -0.82,0.23 -0.93,0.46 -1.5,0.84zm-0.47 -6.77l0 -2.57c1.8,0 3.07,0.24 4.19,-0.49 0.81,-0.53 1.19,-1.48 1.61,-2.36 0.58,-1.19 0.89,-0.89 3.55,-0.89l0 6.31c0,3.64 -3.82,3.03 -6.31,3.03 -1.81,0 -3.04,-1.22 -3.04,-3.03zm2.46 -4.44l-2.46 0c0,-2.21 -0.47,-5.61 3.04,-5.61 2.68,0 7.5,-0.52 9.11,1.87 -1.53,0 -5.42,-0.25 -6.46,0.2 -2.21,0.95 -1.71,3.54 -3.23,3.54zm-4.32 -3.15l0 8.17c0,1.13 0.72,2.47 1.4,2.92 -0.11,0.48 -0.25,0.92 -0.59,1.17 -0.31,-1.18 -2.63,-2.57 -4.2,-2.57 -1.85,0 -3.06,0.33 -4.3,1.54 -0.75,0.74 -1.66,2.15 -1.66,3.6l0 12.84c0,1.29 1.29,2.57 2.57,2.57l6.78 0c0,0.97 -0.18,1.78 0.93,1.87 0,6.09 0.5,4.56 -2.5,9.53l-1.64 2.8c-0.41,0.4 -0.62,-0.09 -1.07,0.45 -0.17,0.2 -2.15,3.86 -2.15,3.92 0,0.52 0.18,0.76 0.54,0.98l5.11 2.84c1.24,0.63 1.26,0.97 2.76,0.97 2.5,0 4.12,-3.92 0.93,-5.61 0.12,-0.51 2.73,-4.95 3.14,-5.62 1.64,-2.74 1.42,-3.19 1.42,-7.34 0.27,0.2 0.73,0.87 1.02,1.2l4.17 5.17c0.68,1.09 0.41,4.92 0.41,6.59 -0.57,0.05 -0.93,0.33 -0.93,0.94l0 3.73c0,0.57 0.37,0.94 0.93,0.94l7.71 0c1.43,0 2.57,-1.23 2.57,-3.04 0,-1.28 -1.28,-2.57 -2.57,-2.57l-1.17 0 0 -6.89c0,-1.23 -0.57,-2.48 -1.07,-3.25l-4.74 -6.12c-0.59,-0.71 -0.73,-0.74 -0.73,-1.49 1.21,0 1.84,-0.04 2.72,-0.9 2.36,-2.27 0.43,-5.99 -2.72,-5.99l0 -1.05c1.45,0.03 2.66,1.02 6.06,-0.36 1.03,-0.42 1.51,-0.95 2.35,-1.51 2.16,9.28 4.38,18.54 6.54,27.8 0.7,-0.06 1.08,-0.35 1.87,-0.35 -0.05,-0.58 -0.25,-1.25 -0.4,-1.83l-2.1 -8.99c-0.28,-1.26 -0.63,-2.46 -0.88,-3.67l-3.39 -14.59c0.2,-0.78 2.1,-1.07 2.1,-3.62 0,-1.52 -1.28,-2.69 -3.15,-2.69 -2.51,0 -3.28,3.97 -6.31,3.97 -0.56,0 -1.47,-0.4 -1.88,-0.56 -0.32,-0.13 -0.51,-0.21 -0.84,-0.34 -1.07,-0.4 -0.66,-0.65 -1.61,-2.13 -0.3,-0.47 -0.73,-0.94 -1.04,-1.41 1.2,-0.28 2.68,-2.25 2.68,-3.85l0 -6.89c2.7,0 3.74,0.38 3.74,-1.17 0,-0.27 -0.82,-1.44 -1.02,-1.66 -1.29,-1.45 -3.22,-2.78 -5.4,-2.78l-6.07 0c-2.16,0 -4.32,2.17 -4.32,4.33z"/>
  <path class="fil2" d="M-27.96 -84.82c-0.09,-0.11 0.02,0.04 -0.13,-0.15 -0.08,-0.11 -0.09,-0.13 -0.15,-0.22 -0.11,-0.16 -0.18,-0.28 -0.31,-0.45 -0.22,-0.3 -0.36,-0.51 -0.57,-0.83 -0.59,-0.88 -1.64,-3.09 -2.99,-2.12 -0.47,0.34 -1.92,2.66 -2.34,3.28l-3.45 5.09c-1.13,0 -2.25,0 -3.38,0 -0.51,0 -1.23,-0.08 -1.59,0.09 -0.8,0.37 -1.01,1.43 -0.35,2.04 0.56,0.53 2.82,0.31 3.63,0.31 -0.55,0.82 -1.82,2.2 -0.73,3.07 1.28,1.03 2.32,-0.95 2.91,-1.84l1.67 -2.45c0.35,-0.54 0.69,-1 1.07,-1.56 0.55,-0.83 3.03,-4.6 3.33,-4.82 0.07,0.26 0.27,0.45 0.44,0.69l1.44 2.12c-0.63,1.18 -3.14,5.02 -3.88,6.15l-2.95 4.66c-0.32,0.51 -0.86,1.11 -0.86,1.76 0,1.07 1.55,1.95 2.56,0.22l12.03 -19.01c0.44,-0.67 1.67,-2.41 1.82,-2.97 0.38,0.1 0.6,0.7 0.82,1.06 0.25,0.44 0.49,0.78 0.76,1.21l9.71 15.33c0.35,0.53 0.61,0.78 1.37,0.78 0.79,0 1.04,-0.75 1.04,-1.4 0,-0.64 -3.54,-5.38 -3.76,-6.29 0.73,-0.49 1.36,-1.12 2.07,-1.59l3.16 3.49c0.32,0.34 0.47,0.47 0.76,0.84 0.26,0.33 0.55,0.51 0.82,0.87 0.31,0.39 0.51,0.53 0.81,0.87l2.35 2.63c1.39,1.53 3.53,-0.07 1.55,-2.02 -0.42,-0.41 -1.35,-1.37 -1.58,-1.8 0.71,0 4.16,0.16 4.65,-0.14 1.02,-0.63 0.68,-2.25 -0.61,-2.31 -1.61,-0.07 -3.27,0.01 -4.88,0.01 -1.91,0 -1.27,0.06 -2.46,-1.1 -1,-0.99 -1.9,-2.19 -2.91,-3.19 -0.54,-0.54 -0.77,-1.06 -1.66,-1.06 -0.75,0 -2.76,1.96 -3.47,2.44 -0.7,-1.32 -1.98,-3.14 -2.8,-4.43 -0.33,-0.51 -0.59,-0.99 -0.94,-1.5 -0.42,-0.62 -3.24,-5.32 -3.75,-5.9 -0.39,-0.45 -1.08,-0.56 -1.65,-0.21 -0.3,0.18 -0.82,1.06 -1.02,1.41l-1.88 3c-0.14,0.2 -3.58,5.42 -3.72,5.94z"/>
  <g id="_2186859508960">
   <path class="fil2" d="M-245.23 11.73c-0.91,0 -1.57,0.47 -1.74,1.29l-0.15 2.57c-0.33,4.08 -2.41,8.49 -5.09,11.53 -5.87,6.66 -15.48,8.8 -23.96,4.99 -4.09,-1.83 -8.38,-5.82 -10.09,-9.97l-0.73 -1.78c-2.37,-6.12 -1.16,-13.48 2.52,-18.81 1.19,-1.72 3.26,-3.77 4.96,-4.97 0.47,-0.34 0.99,-0.67 1.53,-0.97 0.57,-0.32 1.01,-0.61 1.65,-0.87 3.37,-1.39 5.02,-1.92 9.15,-1.92 2.51,0 5.11,0.63 7.28,1.49 2.89,1.14 4.88,2.57 7.01,4.7l1.05 1.14c0.17,0.2 0.19,0.19 0.34,0.4 -1.1,0 -5.13,-0.2 -5.82,0.25 -1.54,1.01 -0.89,3.2 1.22,3.2l7.52 0c0.6,0 1.18,-0.18 1.49,-0.5 0.72,-0.7 0.46,-2.18 0.66,-3.52 0.06,-0.38 0.03,-0.61 0.04,-1 0.02,-0.5 0.09,-0.48 0.11,-0.94 0.07,-1.4 0.16,-2.59 0.21,-3.97 0.02,-0.8 0.21,-0.99 -0.21,-1.68 -0.49,-0.8 -2.07,-1.17 -2.87,0.06 -0.43,0.66 -0.33,2.04 -0.37,2.77 -0.02,0.46 -0.1,0.43 -0.11,0.94 -0.02,0.89 0.2,1.54 -0.54,0.77 -3.55,-3.73 -8.41,-6.46 -13.59,-7.22 -1.76,-0.25 -3.2,-0.44 -4.9,-0.25 -0.37,0.04 -0.75,-0.01 -1.12,0.03 -5.03,0.53 -9.1,2.26 -13.03,5.36 -0.27,0.21 -0.35,0.33 -0.62,0.54 -0.29,0.23 -0.35,0.28 -0.6,0.53 -2.42,2.45 -4.35,4.82 -5.7,8.21 -0.22,0.56 -0.47,1.15 -0.63,1.67 -1.47,4.67 -1.7,9.28 -0.38,13.92 0.77,2.7 1.79,4.98 3.24,7.11l0.97 1.33c0.17,0.21 0.33,0.43 0.51,0.63 1.9,2.13 3.2,3.37 5.59,4.87 7.56,4.75 16.95,4.93 24.36,0.79 6.05,-3.39 10.28,-8.92 11.86,-15.74 0.25,-1.07 0.9,-4.98 0.44,-6.04 -0.22,-0.5 -0.75,-0.94 -1.46,-0.94z"/>
   <path class="fil2" d="M-269.27 2.01l0 11.6c0,0.89 1.45,1.75 2.25,2.35l6.57 4.93c0.8,0.59 0.93,0.88 1.84,0.88 1.42,0 2.16,-1.76 1.23,-2.8l-1.43 -1.09c-0.5,-0.37 -0.91,-0.68 -1.43,-1.07 -1.53,-1.15 -4.27,-3.29 -5.69,-4.24l0.01 -10.25c0,-0.65 -0.13,-0.89 -0.45,-1.23 -1.14,-1.22 -2.9,-0.16 -2.9,0.92z"/>
  </g>
  <g id="_2186859504640">
   <path class="fil2" d="M2.74 34.53c-0.03,-0.3 -0.36,-1.11 -0.47,-1.46 -0.25,-0.74 -0.32,-1.02 -1.09,-1.02 -0.22,0 -0.64,0.3 -0.64,0.74 0,0.52 0.78,2.47 1.01,3.2 0.38,1.14 1.2,0.74 3.57,0.74 4.83,0 9.65,0 14.48,0 -0.23,-1 -1.19,-3.57 -1.19,-4.13 0,-0.34 0.8,-1 1.18,0.01 0.11,0.29 0.21,0.6 0.3,0.9l0.54 1.84c0.29,-0.08 0.31,-0.17 0.52,-0.39l1.42 -1.6c1.08,-1.32 2.34,-3.21 3.16,-4.73l1.38 -2.65c0.41,-0.92 0.86,-1.73 1.25,-2.69 0.41,-0.96 0.78,-1.8 1.17,-2.77 0.36,-0.91 0.75,-1.88 1.1,-2.85 0.2,-0.56 0.96,-2.58 0.99,-3.03l-16.49 0 0 -2.66c0,-0.98 -1.55,-1.18 -1.57,0.08 -0.06,3.41 0.41,1.95 -0.71,5.06l-2.34 5.55c-0.15,0.31 -0.21,0.52 -0.36,0.83 -1.74,3.48 -3.77,7.7 -6.55,10.5 -0.22,0.22 -0.34,0.44 -0.66,0.53z"/>
   <path class="fil2" d="M34.08 36.82l10.82 0c0.31,0 0.42,-0.09 0.55,-0.27l0.9 -1.67c0.21,-0.35 1.11,-2 1.11,-2.37 0,-0.45 -0.37,-0.82 -0.82,-0.82 -0.69,0 -0.86,0.75 -1.13,1.25 -0.26,0.48 -0.67,1.05 -0.8,1.59 -0.46,-0.13 -0.63,-0.57 -0.94,-0.9l-1.62 -2.03c-0.26,-0.38 -0.54,-0.73 -0.81,-1.12 -0.51,-0.75 -0.95,-1.44 -1.43,-2.24 -0.25,-0.41 -0.43,-0.75 -0.68,-1.15 -0.63,-1.05 -1.37,-2.61 -1.91,-3.68 -0.84,-1.69 -2.44,-5.38 -3.02,-7.16 -0.12,-0.35 -0.11,-0.46 -0.31,-0.7l0 15.95c0,1.88 0.09,3.53 0.09,5.32z"/>
   <path class="fil2" d="M20.79 36.82l11.73 0 -0.18 -21.08c-0.05,0.61 -1.92,5.36 -2.17,5.98 -1.55,3.89 -3.87,8.52 -6.44,11.89 -0.3,0.38 -0.6,0.73 -0.91,1.11l-1.5 1.53c-0.21,0.18 -0.38,0.35 -0.53,0.57z"/>
  </g>
  <g style="clip-path:url(#id0)">
   <image x="-3968.07" y="-1753.33" width="1706.9" height="1706.9" xlink:href="4_Images\4_ImgID1.png"/>
  </g>
 </g>
</svg>
