<?xml version="1.0" encoding="UTF-8"?>
<!DOCTYPE svg PUBLIC "-//W3C//DTD SVG 1.1//EN" "http://www.w3.org/Graphics/SVG/1.1/DTD/svg11.dtd">
<!-- Creator: CorelDRAW 2020 (64-Bit) -->
<svg xmlns="http://www.w3.org/2000/svg" xml:space="preserve" width="48px" height="48px" version="1.1" style="shape-rendering:geometricPrecision; text-rendering:geometricPrecision; image-rendering:optimizeQuality; fill-rule:evenodd; clip-rule:evenodd"
viewBox="0 0 48 48"
 xmlns:xlink="http://www.w3.org/1999/xlink"
 xmlns:xodm="http://www.corel.com/coreldraw/odm/2003">
 <defs>
  <style type="text/css">
   <![CDATA[
    .fil0 {fill:none}
    .fil1 {fill:#F97150}
   ]]>
  </style>
 </defs>
 <g id="Layer_x0020_1">
  <metadata id="CorelCorpID_0Corel-Layer"/>
  <rect class="fil0" width="48" height="48"/>
  <rect class="fil0" width="48" height="48"/>
  <g id="_2186854260208">
   <path class="fil1" d="M24.83 34.93c-1.94,0 -4.21,-0.62 -5.66,-1.42 -0.88,-0.48 -1,-0.62 -1.76,-1.18 -0.71,-0.53 -1.6,-1.49 -2.13,-2.19 -1.24,-1.65 -2.3,-4.33 -2.3,-6.42 0,-2.1 0.2,-3.82 1.16,-5.73 3.37,-6.7 11.54,-8.59 17.32,-4.57 1.62,1.13 3.27,3 4.01,4.8 0.64,1.56 1.02,2.7 1.05,4.87 0.03,1.79 -0.38,3.47 -1.01,4.8 -1.58,3.37 -4.29,5.81 -8,6.69 -0.65,0.15 -1.87,0.35 -2.68,0.35zm-0.83 3.77c2.14,0 2.59,0.04 4.81,-0.52 1.31,-0.33 1.75,-0.64 2.74,-1.03 0.82,-0.34 2.16,-1.23 2.89,-1.8 1.51,-1.19 3.04,-2.98 3.95,-4.68 3.87,-7.21 1.8,-15.45 -4.38,-20.09 -0.69,-0.51 -1.49,-1.03 -2.32,-1.44 -0.79,-0.39 -1.83,-0.8 -2.73,-1.04 -3.53,-0.92 -6.24,-0.73 -9.68,0.43 -2.43,0.81 -4.52,2.4 -6.19,4.28 -1.39,1.56 -1.74,2.25 -2.63,4.08 -0.72,1.5 -1.24,3.63 -1.25,5.36 0,0.47 -0.1,0.55 -0.09,0.91 0.01,0.33 0.09,0.39 0.09,0.83 0.01,1.72 0.54,3.89 1.25,5.37 0.55,1.13 0.62,1.33 1.33,2.44 0.43,0.68 1.16,1.51 1.71,2.14l2.02 1.75c1.37,1.03 3.43,2.05 5.15,2.47 0.97,0.24 2.27,0.54 3.33,0.54z"/>
   <path class="fil1" d="M16.1 22.8c0,1.67 0.16,2.68 0.82,4.05 2.09,4.24 7.14,6.16 11.37,4.19 0.85,-0.4 1.9,-1.08 2.57,-1.75 1.65,-1.65 2.39,-3.62 2.59,-6.04 0.03,-0.33 -0.13,-1.54 -0.21,-1.88 -0.44,-1.96 -1.02,-2.81 -2.24,-4.28 -0.17,-0.2 -0.35,-0.28 -0.55,-0.47 -3.25,-3.01 -8.52,-2.91 -11.8,0.37 -1.29,1.29 -2.55,3.28 -2.55,5.81z"/>
   <path class="fil1" d="M0.48 17.38c0,0.98 0.62,2.14 1.22,2.74 0.66,0.66 1.54,0.69 1.84,2.2 0.09,0.44 -0.5,6.73 -0.56,7.29l-0.21 3.75c-0.13,1.61 -0.45,6.53 -0.24,7.52 0.41,2.01 2.36,2.65 3.49,1.42 1.1,-1.2 0.8,-3.34 0.71,-5.08 -0.02,-0.4 -0.08,-0.38 -0.1,-0.82 -0.01,-0.32 0.03,-0.69 0,-1.01l-0.65 -9.36c-0.2,-1.92 -0.71,-3.82 0.31,-4.95 0.47,-0.51 2.46,-1.24 2.46,-3.88 0,-0.99 -0.07,-1.65 -0.09,-2.58l-0.57 -7.51c-0.38,-0.69 -1.36,-0.35 -1.37,0.53 -0.01,0.44 0.11,0.71 0.1,1.29 -0.01,1.24 0.24,3.88 0.28,5.14 0.04,1.5 0.13,1.93 -0.92,1.93 -0.17,0 -0.31,-0.12 -0.41,-0.24 -0.26,-0.31 -0.22,-1.41 -0.24,-1.78 -0.04,-0.88 0.02,-1.86 0.01,-2.76 -0.01,-0.52 -0.1,-0.63 -0.1,-1.18 0,-0.55 0.05,-2.31 -0.07,-2.69 -0.19,-0.61 -1.6,-1.5 -1.58,1.21l-0.15 6.65c-0.11,0.69 -0.27,0.79 -0.95,0.79 -0.7,0 -0.61,-1.36 -0.5,-2.06l0.13 -2.62c-0.01,-0.58 0.05,-0.85 0.09,-1.29 0.03,-0.44 -0.03,-0.93 0.01,-1.37 0.02,-0.29 0.41,-1.93 -0.65,-1.93 -0.87,0 -0.73,1.26 -0.75,1.45 -0.03,0.27 -0.07,0.28 -0.08,0.65 -0.03,1.02 -0.1,1.94 -0.18,2.86l-0.23 4.18c-0.03,0.23 -0.04,0.45 -0.05,0.67l0 0.82 0 0.02z"/>
   <path class="fil1" d="M42.1 16.28l0 6.71c0,1.31 1.13,1.47 2.02,1.47 0,1.31 -0.33,4.07 -0.46,5.6 -0.02,0.33 0.02,0.67 -0.01,1 -0.04,0.32 -0.09,0.47 -0.08,0.93l-0.21 3.83c-0.17,1.23 -0.16,3.13 -0.16,4.53 0,1.25 1.03,2.57 1.93,2.57 0.75,0 1.2,-0.07 1.8,-0.86 0.37,-0.49 0.53,-1.14 0.59,-1.83l0 -1.45c-0.03,-0.4 -0.06,-0.77 -0.09,-1.1l-0.65 -10.65c-0.02,-0.6 -0.15,-1.43 -0.18,-2.02 -0.04,-0.72 0,-1.57 0,-2.3l0 -15.8c0,-0.88 0.2,-1.84 -0.55,-1.84 -0.28,0 -0.7,0.73 -0.87,0.97 -0.88,1.33 -1.33,2.22 -1.93,3.77 -0.71,1.85 -1.15,3.96 -1.15,6.47z"/>
  </g>
 </g>
</svg>
